<svg width="45" height="45" fill="none" xmlns="http://www.w3.org/2000/svg"><path d="M32.046 14.744a1.012 1.012 0 00-1.441 0 1.035 1.035 0 000 1.455 11.549 11.549 0 013.357 8.18c0 3.09-1.192 5.996-3.357 8.182a11.4 11.4 0 01-16.21 0 11.548 11.548 0 01-3.357-8.181c0-3.09 1.192-5.996 3.357-8.181a11.342 11.342 0 016.062-3.204l-1.549 2.292c-.317.47-.197 1.11.268 1.43a1.015 1.015 0 001.416-.27l2.76-4.085v-.001c.317-.47.198-1.11-.267-1.43L19.086 8.18a1.013 1.013 0 00-1.416.27c-.317.47-.197 1.11.268 1.43l1.711 1.178a13.372 13.372 0 00-6.695 3.687A13.602 13.602 0 009 24.38c0 3.64 1.404 7.062 3.954 9.635A13.391 13.391 0 0022.5 38c3.456 0 6.914-1.329 9.546-3.985A13.602 13.602 0 0036 24.38c0-3.64-1.404-7.062-3.954-9.636z" fill="#C94F6E"/><path d="M21.476 22.509c0-1.861-1.5-3.375-3.343-3.375s-3.342 1.514-3.342 3.375c0 .567.456 1.028 1.019 1.028.562 0 1.019-.46 1.019-1.028 0-.727.585-1.317 1.304-1.317.72 0 1.305.59 1.305 1.317a1.314 1.314 0 01-.417.968l-3.967 4.43c-.27.3-.339.735-.176 1.106.164.372.529.611.932.611h4.647c.563 0 1.019-.46 1.019-1.028 0-.568-.456-1.029-1.02-1.029h-2.352l2.413-2.693a3.367 3.367 0 00.959-2.365z" fill="#C94F6E"/><path fill-rule="evenodd" clip-rule="evenodd" d="M23.44 27.465c-.384 0-.737-.219-.91-.566a1.037 1.037 0 01.091-1.074l4.6-6.274c.262-.357.72-.504 1.138-.365.418.14.7.533.7.977v5.245h.131c.563 0 1.02.46 1.02 1.028 0 .569-.457 1.029-1.02 1.029h-.13v1.131c0 .568-.457 1.029-1.02 1.029s-1.019-.46-1.019-1.029v-1.131h-3.58zm3.582-2.057v-2.127l-1.56 2.127h1.56z" fill="#C94F6E"/></svg>