<svg width="45" height="45" fill="none" xmlns="http://www.w3.org/2000/svg"><path opacity=".01" fill="#EFEFEF" d="M0 0h45v45H0z"/><mask id="a" maskUnits="userSpaceOnUse" x="6" y="6" width="33" height="33" fill="#000"><path fill="#fff" d="M6 6h33v33H6z"/><path d="M38 27.98c0-4.52-3.045-8.467-7.338-9.657C30.392 12.033 25.192 7 18.837 7 12.31 7 7 12.31 7 18.837a11.8 11.8 0 001.641 6.017L7.044 30.63l5.776-1.598a11.792 11.792 0 005.503 1.63A10.043 10.043 0 0027.98 38a9.98 9.98 0 005.098-1.393l4.878 1.35-1.35-4.879A9.985 9.985 0 0038 27.98zm-24.893-.912l-3.458.957.956-3.458-.218-.341a9.987 9.987 0 01-1.57-5.39c0-5.524 4.495-10.02 10.02-10.02 5.525 0 10.02 4.495 10.02 10.02 0 5.526-4.495 10.021-10.02 10.021a9.987 9.987 0 01-5.389-1.57l-.341-.218zm22.244 8.283l-2.566-.71-.342.223a8.172 8.172 0 01-4.463 1.32 8.225 8.225 0 01-7.778-5.59c5.438-.626 9.766-4.954 10.393-10.393a8.225 8.225 0 015.589 7.779 8.172 8.172 0 01-1.32 4.463l-.223.342.71 2.566z"/></mask><path d="M38 27.98c0-4.52-3.045-8.467-7.338-9.657C30.392 12.033 25.192 7 18.837 7 12.31 7 7 12.31 7 18.837a11.8 11.8 0 001.641 6.017L7.044 30.63l5.776-1.598a11.792 11.792 0 005.503 1.63A10.043 10.043 0 0027.98 38a9.98 9.98 0 005.098-1.393l4.878 1.35-1.35-4.879A9.985 9.985 0 0038 27.98zm-24.893-.912l-3.458.957.956-3.458-.218-.341a9.987 9.987 0 01-1.57-5.39c0-5.524 4.495-10.02 10.02-10.02 5.525 0 10.02 4.495 10.02 10.02 0 5.526-4.495 10.021-10.02 10.021a9.987 9.987 0 01-5.389-1.57l-.341-.218zm22.244 8.283l-2.566-.71-.342.223a8.172 8.172 0 01-4.463 1.32 8.225 8.225 0 01-7.778-5.59c5.438-.626 9.766-4.954 10.393-10.393a8.225 8.225 0 015.589 7.779 8.172 8.172 0 01-1.32 4.463l-.223.342.71 2.566z" fill="#C94F6E"/><path d="M38 27.98c0-4.52-3.045-8.467-7.338-9.657C30.392 12.033 25.192 7 18.837 7 12.31 7 7 12.31 7 18.837a11.8 11.8 0 001.641 6.017L7.044 30.63l5.776-1.598a11.792 11.792 0 005.503 1.63A10.043 10.043 0 0027.98 38a9.98 9.98 0 005.098-1.393l4.878 1.35-1.35-4.879A9.985 9.985 0 0038 27.98v0zm-24.893-.912l-3.458.957.956-3.458-.218-.341a9.987 9.987 0 01-1.57-5.39c0-5.524 4.495-10.02 10.02-10.02 5.525 0 10.02 4.495 10.02 10.02 0 5.526-4.495 10.021-10.02 10.021a9.987 9.987 0 01-5.389-1.57l-.341-.218zm22.244 8.283l-2.566-.71-.342.223a8.172 8.172 0 01-4.463 1.32 8.225 8.225 0 01-7.778-5.59c5.438-.626 9.766-4.954 10.393-10.393a8.225 8.225 0 015.589 7.779 8.172 8.172 0 01-1.32 4.463l-.223.342.71 2.566z" stroke="#C94F6E" stroke-width=".4" mask="url(#a)"/><mask id="b" maskUnits="userSpaceOnUse" x="16.929" y="22.408" width="4" height="4" fill="#000"><path fill="#fff" d="M16.929 22.408h4v4h-4z"/><path d="M17.929 23.408h1.816v1.817H17.93v-1.817z"/></mask><path d="M17.929 23.408h1.816v1.817H17.93v-1.817z" fill="#C94F6E"/><path d="M17.929 23.408h1.816v1.817H17.93v-1.817z" stroke="#C94F6E" stroke-width=".4" mask="url(#b)"/><mask id="c" maskUnits="userSpaceOnUse" x="14.204" y="11.449" width="9" height="11" fill="#000"><path fill="#fff" d="M14.204 11.449h9v11h-9z"/><path d="M20.653 16.082c0 .516-.21.992-.591 1.34l-2.133 1.953v2.217h1.816v-1.417l1.543-1.412a3.643 3.643 0 001.182-2.681 3.637 3.637 0 00-3.633-3.633 3.637 3.637 0 00-3.633 3.633h1.816a1.817 1.817 0 013.633 0z"/></mask><path d="M20.653 16.082c0 .516-.21.992-.591 1.34l-2.133 1.953v2.217h1.816v-1.417l1.543-1.412a3.643 3.643 0 001.182-2.681 3.637 3.637 0 00-3.633-3.633 3.637 3.637 0 00-3.633 3.633h1.816a1.817 1.817 0 013.633 0z" fill="#C94F6E"/><path d="M20.653 16.082c0 .516-.21.992-.591 1.34l-2.133 1.953v2.217h1.816v-1.417l1.543-1.412a3.643 3.643 0 001.182-2.681 3.637 3.637 0 00-3.633-3.633 3.637 3.637 0 00-3.633 3.633h1.816a1.817 1.817 0 013.633 0z" stroke="#C94F6E" stroke-width=".4" mask="url(#c)"/></svg>