<svg width="12" height="12" fill="none" xmlns="http://www.w3.org/2000/svg"><path d="M7.322 6l4.486-4.487A.653.653 0 0012 1.049a.651.651 0 00-.192-.464l-.393-.393A.65.65 0 0010.951 0a.65.65 0 00-.464.192L6 4.678 1.513.192A.65.65 0 001.05 0a.65.65 0 00-.464.192L.192.585a.657.657 0 000 .928L4.679 6 .192 10.486A.653.653 0 000 10.95c0 .176.068.34.192.465l.393.393a.65.65 0 00.464.191.65.65 0 00.464-.191L6 7.32l4.487 4.487a.651.651 0 00.464.191c.176 0 .34-.068.464-.191l.393-.393A.652.652 0 0012 10.95a.653.653 0 00-.192-.464L7.322 6z" fill="#C94F6E"/></svg>