<svg width="20" height="24" fill="none" xmlns="http://www.w3.org/2000/svg"><mask id="a" maskUnits="userSpaceOnUse" x="1" y="0" width="19" height="24" fill="#000"><path fill="#fff" d="M1 0h19v24H1z"/><path fill-rule="evenodd" clip-rule="evenodd" d="M10.373 2A7.377 7.377 0 003 9.36a7.153 7.153 0 00.643 3 46.326 46.326 0 006.416 9.501.418.418 0 00.621 0 46.328 46.328 0 006.414-9.493 7.167 7.167 0 00.643-3A7.377 7.377 0 0010.373 2zm0 11.184a3.827 3.827 0 113.83-3.827 3.833 3.833 0 01-3.83 3.827z"/></mask><path clip-rule="evenodd" d="M10.373 2A7.377 7.377 0 003 9.36a7.153 7.153 0 00.643 3 46.326 46.326 0 006.416 9.501.418.418 0 00.621 0 46.328 46.328 0 006.414-9.493 7.167 7.167 0 00.643-3A7.377 7.377 0 0010.373 2zm0 11.184a3.827 3.827 0 113.83-3.827 3.833 3.833 0 01-3.83 3.827z" stroke="#C94F6E" stroke-width="4" mask="url(#a)"/></svg>