<svg width="20" height="20" fill="none" xmlns="http://www.w3.org/2000/svg"><g clip-path="url(#clip0_70_1347)" fill="#C94F6E"><path d="M10.003 5.07a4.926 4.926 0 100 9.853 4.926 4.926 0 100-9.853zm0 8.124a3.197 3.197 0 113.198-3.198 3.196 3.196 0 01-3.198 3.198z"/><path d="M13.958.46c-1.766-.082-6.141-.078-7.91 0C4.496.535 3.126.91 2.02 2.015.173 3.86.41 6.348.41 9.997c0 3.734-.209 6.165 1.61 7.983 1.853 1.853 4.377 1.61 7.983 1.61 3.7 0 4.976.003 6.284-.504 1.778-.69 3.12-2.28 3.252-5.135.083-1.767.078-6.141 0-7.91-.158-3.37-1.967-5.414-5.58-5.58zm2.796 16.298c-1.21 1.21-2.89 1.103-6.774 1.103-4 0-5.604.059-6.775-1.115-1.348-1.341-1.104-3.496-1.104-6.762 0-4.42-.453-7.603 3.983-7.83 1.019-.036 1.319-.048 3.885-.048l.036.024c4.263 0 7.608-.447 7.808 3.988.046 1.012.056 1.316.056 3.878 0 3.954.075 5.567-1.115 6.762z"/><path d="M15.125 6.027a1.151 1.151 0 100-2.302 1.151 1.151 0 000 2.302z"/></g><defs><clipPath id="clip0_70_1347"><path fill="#fff" transform="translate(.4 .4)" d="M0 0h19.2v19.2H0z"/></clipPath></defs></svg>