<svg width="21" height="19" fill="none" xmlns="http://www.w3.org/2000/svg"><path d="M18.57 13.433v2.5a1.65 1.65 0 01-.547 1.235 1.69 1.69 0 01-1.291.432 16.805 16.805 0 01-7.275-2.558 16.344 16.344 0 01-5.057-5 16.37 16.37 0 01-2.588-7.225 1.649 1.649 0 01.434-1.274A1.685 1.685 0 013.489 1h2.53a1.7 1.7 0 011.115.403c.31.264.513.63.57 1.03.107.8.305 1.586.59 2.342a1.649 1.649 0 01-.38 1.758l-1.07 1.059a13.41 13.41 0 005.058 5l1.07-1.059a1.692 1.692 0 011.779-.375c.765.283 1.56.478 2.368.584.41.057.784.26 1.051.573.267.312.41.71.4 1.118z" stroke="#C94F6E" stroke-width="2" stroke-linecap="round" stroke-linejoin="round"/></svg>