<svg width="22" height="19" fill="none" xmlns="http://www.w3.org/2000/svg"><path d="M2.057 9.91h.001l.046-.091-.028.096h.001l3.502.99 1.903 5.383.095-.034-.095.034c.274.772.894 1.267 1.629 1.267.46 0 .909-.192 1.295-.543h0l2.134-1.943 3.12 2.483a.203.203 0 00.004.003l.028.023h.001l.004.004.005.003h0c.368.283.776.436 1.18.436h0c.794 0 1.415-.584 1.594-1.456L21.282 2.87c.117-.571.021-1.097-.287-1.47-.268-.324-.668-.499-1.12-.499-.244 0-.501.05-.762.15 0 0 0 0 0 0L1.988 7.512c-.468.177-.744.402-.902.628a.995.995 0 00-.186.602c.005.155.05.373.22.59.17.218.46.427.937.577zM17.024 4.7h0a.697.697 0 00-.868-.198s0 0 0 0L6.042 9.61 2.77 8.685 19.606 2.33h0a.781.781 0 01.27-.06.257.257 0 01.05.006c.005.01.012.031.016.068a.81.81 0 01-.018.25l-2.806 13.698a.855.855 0 01-.083.238c-.046.08-.097.118-.154.118-.078 0-.194-.044-.327-.145l-3.608-2.873a.19.19 0 00-.007-.005l-2.06-1.64 6.096-6.403a.68.68 0 00.05-.883zM6.969 10.682l6.258-3.16-3.869 4.063a.683.683 0 00-.168.306s0 0 0 0l-.742 2.973-1.48-4.182zm2.657 5.177l.648-2.595 1.175.936-1.823 1.66z" fill="#C94F6E" stroke="#C94F6E" stroke-width=".2"/></svg>