<svg width="20" height="20" fill="none" xmlns="http://www.w3.org/2000/svg"><g clip-path="url(#clip0_70_1353)"><path d="M19.498 14.416a1.299 1.299 0 00-.065-.125c-.333-.6-.97-1.336-1.91-2.21l-.02-.02-.01-.01-.01-.01h-.01c-.426-.406-.696-.68-.809-.82-.207-.266-.253-.536-.14-.809.08-.207.38-.643.9-1.31.273-.353.49-.636.65-.85 1.152-1.532 1.652-2.512 1.499-2.938l-.06-.1c-.04-.06-.143-.115-.31-.165-.166-.05-.38-.058-.64-.025l-2.878.02a.374.374 0 00-.2.005l-.13.03-.05.025-.04.03a.444.444 0 00-.11.105.686.686 0 00-.1.175c-.313.807-.67 1.556-1.07 2.25-.246.413-.473.77-.68 1.074-.206.303-.38.527-.52.67a3.64 3.64 0 01-.38.345c-.112.086-.2.123-.259.11a7.31 7.31 0 01-.17-.04.666.666 0 01-.225-.245 1.097 1.097 0 01-.115-.39 4.273 4.273 0 01-.035-.405 8.437 8.437 0 01.005-.48c.007-.207.01-.347.01-.42 0-.253.005-.528.015-.825l.025-.704c.007-.174.01-.357.01-.55 0-.193-.012-.345-.035-.455a1.555 1.555 0 00-.105-.32.539.539 0 00-.205-.24 1.155 1.155 0 00-.334-.135c-.354-.08-.803-.123-1.35-.13-1.24-.013-2.036.067-2.39.24-.14.073-.266.174-.38.3-.12.147-.136.227-.05.24.4.06.684.203.85.43l.06.12c.047.086.094.24.14.46.047.22.077.463.09.73.034.486.034.902 0 1.249-.033.346-.064.616-.095.81a1.621 1.621 0 01-.255.69.172.172 0 01-.05.05.749.749 0 01-.27.05c-.093 0-.206-.047-.34-.14a2.398 2.398 0 01-.414-.386 5.144 5.144 0 01-.485-.684c-.18-.294-.367-.64-.56-1.04l-.16-.29a24.92 24.92 0 01-.41-.815 15.706 15.706 0 01-.46-1.034.659.659 0 00-.24-.32l-.05-.03a.684.684 0 00-.16-.085 1.06 1.06 0 00-.23-.065l-2.738.02c-.28 0-.47.063-.57.19l-.04.06a.323.323 0 00-.03.16.8.8 0 00.06.27c.4.94.835 1.846 1.304 2.719.47.873.878 1.576 1.225 2.109.346.533.7 1.036 1.06 1.51.36.473.598.776.714.909a7.7 7.7 0 00.275.3l.25.24c.16.16.395.351.705.575.31.223.653.443 1.03.66.376.216.814.393 1.314.53.5.136.987.19 1.46.164h1.15c.233-.02.41-.093.53-.22l.04-.05a.668.668 0 00.074-.184 1.02 1.02 0 00.035-.275 3.293 3.293 0 01.065-.775c.05-.23.106-.403.17-.52a1.277 1.277 0 01.385-.44.657.657 0 01.08-.035c.16-.053.348-.001.565.155.216.157.42.35.61.58.19.23.418.488.684.775.267.287.5.5.7.64l.2.12c.133.08.307.153.52.22.213.066.4.083.56.05l2.559-.04c.253 0 .45-.042.59-.125.14-.084.223-.175.25-.275a.774.774 0 00.004-.34 1.253 1.253 0 00-.07-.265z" fill="#C94F6E"/></g><defs><clipPath id="clip0_70_1353"><path fill="#fff" transform="translate(.4 .4)" d="M0 0h19.2v19.2H0z"/></clipPath></defs></svg>