<svg width="21" height="20" fill="none" xmlns="http://www.w3.org/2000/svg"><path fill-rule="evenodd" clip-rule="evenodd" d="M1.82 15.03L.402 20l5.19-1.32a10.189 10.189 0 004.938 1.273c5.57 0 10.102-4.476 10.102-9.977C20.633 4.476 16.1 0 10.53 0S.429 4.475.429 9.976c0 1.787.48 3.526 1.39 5.055zm4.346 2.022l-.309-.187-2.998.763.816-2.862-.208-.32a8.18 8.18 0 01-1.325-4.47c0-4.568 3.763-8.284 8.389-8.284 4.625 0 8.388 3.716 8.388 8.284 0 4.568-3.763 8.284-8.388 8.284a8.45 8.45 0 01-4.365-1.208z" fill="#C94F6E"/><path d="M7.564 5.752l-.677-.036a.839.839 0 00-.582.192c-.329.274-.854.805-1.015 1.496-.24 1.031.131 2.294 1.093 3.556.961 1.263 2.753 3.283 5.922 4.146 1.021.278 1.824.09 2.444-.292.49-.302.83-.787.951-1.336l.108-.486a.335.335 0 00-.196-.377l-2.288-1.016a.36.36 0 00-.425.1l-.898 1.122a.263.263 0 01-.29.083c-.614-.209-2.675-1.04-3.806-3.137a.243.243 0 01.033-.279l.858-.956a.328.328 0 00.058-.354l-.987-2.222a.35.35 0 00-.303-.204z" fill="#C94F6E"/></svg>