<svg width="611" height="713" fill="none" xmlns="http://www.w3.org/2000/svg"><path opacity=".88" fill-rule="evenodd" clip-rule="evenodd" d="M506.46 463.74a25.4 25.4 0 01-4.858 5.247 359.88 359.88 0 00-8.651-24.234c-4.606-4.638-10.04-7.905-16.302-9.801a579.853 579.853 0 01-43.429-15.871 186.46 186.46 0 01-43.019-28.6c-8.977-9.445-16.075-20.14-21.295-32.083a211.318 211.318 0 00-20.867-21.619c-4.419-3.368-9.363-5.48-14.834-6.339-16.978-.677-33.675 1.284-50.09 5.885a414.3 414.3 0 01-42.258 11.182c-23.271 3.656-45.985 1.448-68.141-6.623a108.89 108.89 0 01-23.538-14.621 477.71 477.71 0 01-39.83-37.469 40.268 40.268 0 01-3.814-5.016 179.308 179.308 0 00-5.958-11.303 23.382 23.382 0 00-4.094-4.26 143.68 143.68 0 00-15.786-8.408 880.56 880.56 0 00-19.64-13.781 27.763 27.763 0 00-9.784-3.271l-34.611 1.641a95.685 95.685 0 01-13.207-1.443 6.573 6.573 0 01-2.147-1.395 2.52 2.52 0 011.155-1.033 413.718 413.718 0 0134.374-3.789 369.157 369.157 0 0031.674-8.566 448.04 448.04 0 0164.544-19.437 350.18 350.18 0 0138.711-3.905c9.63-.446 18.884 1.313 27.763 5.275a420.529 420.529 0 0023.858 12.592 84.936 84.936 0 0019.012 4.79c11.439 3.656 21.737 9.407 30.896 17.252a255.899 255.899 0 0138.277 38.184 940.213 940.213 0 0025.908 34.474 450.035 450.035 0 0125.519 24.368 331.778 331.778 0 00-16.993-39.08c-3.322-8.212-4.256-16.686-2.803-25.423a587.63 587.63 0 00-2.839-29.044c-.215-9.664 1.914-18.838 6.389-27.523 1.411-3.284 1.413-6.547.008-9.787.449-1.207.676-2.441.68-3.699-3.196-9.261-3.997-18.717-2.402-28.366a93.485 93.485 0 015.19-21.955c.942-4.499 1.9-8.954 2.876-13.365a9.672 9.672 0 011.953-3.658 168.694 168.694 0 0137.415 22.151 60.827 60.827 0 0113.869 17.317 23.393 23.393 0 004.094 4.26 878.922 878.922 0 0131.691 17.89 197.421 197.421 0 0128.386 20.791 120.12 120.12 0 0118.036 28.817 123.218 123.218 0 019.446 26.503 605.71 605.71 0 016.679 50.728 201.37 201.37 0 01-2.174 29.596 1149.713 1149.713 0 01-9.188 44.866 79.17 79.17 0 00.733 26.376 745.025 745.025 0 0113.416 34.582zm-16.446-27.543a70.1 70.1 0 00-10.975-5.857 412.072 412.072 0 01-43.109-16.269 175.772 175.772 0 01-42.146-27.247 103.39 103.39 0 01-12.4-13.855c1.097.175 1.655-.25 1.672-1.271a126.401 126.401 0 00-8.342-13.215 135.316 135.316 0 0022.107 13.147 1441.859 1441.859 0 0048.359 17.864c13.293 4.94 24.877 12.482 34.75 22.626 3.375 8.053 6.737 16.078 10.084 24.077zm-1.813-19.733a642.88 642.88 0 00-20.251-43.977 141.72 141.72 0 01-3.112-34.812 1151.629 1151.629 0 014.57-40.733c1.648-21.243.167-42.342-4.441-63.297a101.43 101.43 0 00-3.809-11.54c15.704 15.585 26.084 34.132 31.141 55.642a266.244 266.244 0 016.747 64.493 522.325 522.325 0 01-9.036 52.822 247.024 247.024 0 00-1.809 21.402zm-12.242-12.423c-11.834-11.01-25.459-18.992-40.875-23.944a883.46 883.46 0 01-38.021-12.843c-11.321-4.016-20.863-10.574-28.626-19.677a681.006 681.006 0 00-12.701-33.03c10.294 8.485 21.666 15.205 34.115 20.159a1104.281 1104.281 0 0134.917 14.272 199.105 199.105 0 0137.293 25.97 445.3 445.3 0 0113.898 29.093zM347.022 270.024c8.358 9.84 18.137 18.004 29.338 24.491a762.046 762.046 0 0043.82 22.713 252.93 252.93 0 0113.758 8.088 684.673 684.673 0 0124.469 42.787 149.673 149.673 0 00-36.817-24.936l-41.517-18.256c-13.419-6.152-23.993-15.496-31.721-28.033l-2.383-5.174c.434-7.238.785-14.465 1.053-21.68zm114.177 88.892a1004.17 1004.17 0 01-15.333-25.673 2804.486 2804.486 0 01-22.486-36.301 95.59 95.59 0 01-1.133-23.432 555.986 555.986 0 014.483-31.663 141.493 141.493 0 00-.248-35.128 67.315 67.315 0 00-2.856-9.47 356.156 356.156 0 0129.542 18.126 60.14 60.14 0 018.298 19.381c4.334 23.264 5.335 46.59 3.002 69.979a430.045 430.045 0 00-4.175 44.314c-.056 3.33.246 6.619.906 9.867zm-31.313-40.764a2763.065 2763.065 0 00-54.953-30.004 106.207 106.207 0 01-24.01-20.548c-4.76-4.978-7.341-10.855-7.742-17.63a57.483 57.483 0 011.522-12.49 421.911 421.911 0 015.543-15.471 282.185 282.185 0 0022.621 17.803 171.89 171.89 0 0117.926 17.957 3211.801 3211.801 0 0039.093 60.383zm-10.638-27.459c-4.58-5.949-8.845-12.304-12.793-19.067a173.933 173.933 0 01-1.379-15.794 2630.577 2630.577 0 002.907-49.248 94.418 94.418 0 00-2.568-20.012 128.15 128.15 0 0014.791 9.242 119.4 119.4 0 014.229 31.789 2849.659 2849.659 0 01-5.614 50.996 68.238 68.238 0 00.427 12.094zm-18.275-27.704c-17.437-25.159-30.754-52.262-39.951-81.309a307.566 307.566 0 01-6.299-30.837 40.3 40.3 0 01.602-6.046 300.645 300.645 0 0136.659 23.503l-.956 1.193c6.349 6.806 10.426 14.753 12.233 23.84 1.5 9.756 1.85 19.502 1.048 29.24a455.524 455.524 0 00-3.336 40.416zm-66.012 62.003a109.798 109.798 0 00-23.75-.1 215.801 215.801 0 00-13.847 2.613 663.976 663.976 0 01-58.969 14.112c-18.245 3.223-36.318 2.558-54.221-1.996a43.032 43.032 0 01-10.976-4.227c9.286.786 18.529.25 27.729-1.607l15.2-3.487a451.858 451.858 0 0159.13-15.942c13.666-2.357 27.23-2.04 40.696.95 7.202 1.541 13.537 4.769 19.008 9.684zm16.533-165.638a259.848 259.848 0 0011.023 42.457 350.001 350.001 0 0023.429 48.156 647.963 647.963 0 01-10.254-10.829l-16.776-14.098a38.931 38.931 0 01-7.472-8.599 123.72 123.72 0 00-4.119-20.929c-.684-12.273.706-24.325 4.169-36.158zm-29.486 146.77a1.15 1.15 0 01-.876.278 282.98 282.98 0 00-35.945-20.32 108.211 108.211 0 01-22.183-17.126 477.923 477.923 0 00-33.862-37.583c16.602 2.777 31.209 9.805 43.821 21.082a195.417 195.417 0 0121.624 20.268 549.87 549.87 0 0127.421 33.401zm-9.152 2.459c-12.537-1.784-25.148-1.663-37.833.365a354.456 354.456 0 00-55.309 14.433 217.561 217.561 0 01-39.112 6.848c-7.951.31-15.694-.89-23.23-3.6a507.873 507.873 0 01-45.872-41.334 24.953 24.953 0 01-3.894-5.732 99.321 99.321 0 00-6.036-12.019 154.836 154.836 0 0031.265 4.164c21.902-.238 43.809-.962 65.721-2.171 9.852.243 19.691.729 29.517 1.458 30.061 8.461 58.322 20.99 84.783 37.588zm-176.789-94.675a244.396 244.396 0 0139.705-3.109c7.827.209 15.277 2.046 22.353 5.51a150.733 150.733 0 0129.263 18.882l41.018 43.318a381.706 381.706 0 00-55.679-18.507 365.672 365.672 0 01-23.495-19.156c-16.085-12.261-33.806-21.24-53.165-26.938zm66.79 50.262a1485.463 1485.463 0 01-73.121 2.444 341.073 341.073 0 01-35.004-5.202 132.785 132.785 0 01-30.457-18.207c36.816-.253 73.252 4.247 109.309 13.501a993.45 993.45 0 0129.273 7.464zm1.438-6.682a787.718 787.718 0 00-74.06-15.937 541.381 541.381 0 00-70.49-4.914c-.477.053-.742-.16-.794-.637a1785.562 1785.562 0 0047.234-15.355 1063.243 1063.243 0 0121.527-5.272c29.352 7.055 54.879 21.094 76.583 42.115z" fill="#FEFFFE"/><path opacity=".882" fill-rule="evenodd" clip-rule="evenodd" d="M478.034 404.451a71.056 71.056 0 00-2.506-7.476 5606.845 5606.845 0 00-31.245 34.92c-4.829 1.972-9.832 2.58-15.006 1.825a684.15 684.15 0 00-39.414-7.678 210.431 210.431 0 00-44.42-1.575 967.064 967.064 0 00-26.99 4.559 109.976 109.976 0 01-17.839 1.543c-1.119.505-1.228 1.148-.327 1.93a553.088 553.088 0 0028.351 14.938c28.078 11.955 56.848 13.491 86.309 4.607a148.805 148.805 0 0015.389-5.831 291.896 291.896 0 01-21.943 18.126 450.121 450.121 0 01-60.826 16.696c-28.403 5.817-56.243 4.075-83.523-5.228a59.813 59.813 0 01-9.854-4.551 6.297 6.297 0 01-1.457-2.531c-.321-1.663-.6-3.332-.839-5.009 3.248-12.838 2.398-25.395-2.549-37.671-2.085-4.425-5.251-7.809-9.5-10.152a558.873 558.873 0 01-17.575-.597c-5.798.549-9.707 3.494-11.727 8.835-4.97-2.439-10.13-2.851-15.48-1.235-10.456 3.76-17.885 10.676-22.288 20.749-5.285 4.215-7.506 9.697-6.662 16.447.391 4.358 1.834 8.343 4.328 11.956-.024 9.246 3.781 16.478 11.414 21.697 15.964 9.028 32.203 9.498 48.719 1.411 7.127-3.702 12.325-9.176 15.595-16.422 2.928-2.298 6.203-3.067 9.825-2.306 35.979 13.638 72.555 15.008 109.731 4.111a1262.768 1262.768 0 0032.926-9.113 524.258 524.258 0 01-62.752 37.421c-21.934 6.345-44.304 9.039-67.111 8.083a168.86 168.86 0 01-16.155-1.946c1.816-4.509.613-7.957-3.608-10.344-7.107-.774-11.252 2.396-12.437 9.51-.302 1.781.166 3.317 1.403 4.607 3.304 3.042 6.807 3.272 10.509.69a31.747 31.747 0 003.487-3.579c21.096 5.168 42.405 6.001 63.926 2.5a363.497 363.497 0 01-33.972 14.695 6364.99 6364.99 0 00-48.56 16.392 460.202 460.202 0 00-88.79 24.069 58.47 58.47 0 00-8.431 4.627c-6.469-2.179-11.004-.036-13.603 6.432-1.105 6.706 1.746 9.805 8.552 9.296 5.341-2.176 7.96-6.101 7.856-11.776a66.292 66.292 0 00-1.794-2.886 9.659 9.659 0 013.451-2.196 338.856 338.856 0 0156.218-15.292c-14.12 8.813-26.18 19.81-36.181 32.99a1106.313 1106.313 0 00-16.841 24.354 565.278 565.278 0 00-22.942 29.873c-3.758 4.253-8.274 7.459-13.548 9.619-.14.232-.214.484-.227.756 22.754-3.994 44.215-11.675 64.385-23.043 19.286-10.427 33.896-25.328 43.828-44.703a349.046 349.046 0 007.299-19.616 67.603 67.603 0 019.139-15.828 25.62 25.62 0 015.745-5.183 629.659 629.659 0 0022.373-5.441 600.21 600.21 0 0123.055-7.709 79.51 79.51 0 00-17.706 23.015 87.215 87.215 0 00-8.992 26.082c-3.879.855-6.82 2.971-8.822 6.349-.372 5.855 2.361 9.066 8.197 9.633 4.073.163 7.162-1.465 9.269-4.883 1.063-6.157-1.476-9.732-7.615-10.726 4.561-16.017 12.681-29.933 24.36-41.748l11.944-11.877a685.963 685.963 0 0091.818-47.189c-23.52 19.991-40.549 44.478-51.089 73.461-3.475 10.339-5.416 21-5.821 31.983a100.687 100.687 0 01-1.683 8.751c.318.462.752.635 1.302.519a79.07 79.07 0 0114.293-16.941 372.47 372.47 0 0035.909-27.872c10.348-9.978 17.309-21.939 20.883-35.883a130.664 130.664 0 003.982-30.507c.457-6.812 2.241-13.229 5.35-19.252a394.167 394.167 0 0032.594-28.236l29.033-32.415c.492.08.647.338.465.774-13.05 28.132-18.811 57.807-17.283 89.026a119.804 119.804 0 003.682 18.103c.413 1.676.007 3.097-1.219 4.261a62.539 62.539 0 01-12.383 7.434c-16.643 10.161-25.018 24.993-25.124 44.498-.006 6.723 1.865 12.866 5.614 18.43 2.364 3.446 5.589 5.515 9.672 6.208 4.627 7.261 11.22 11.127 19.781 11.597a21.485 21.485 0 006.847-2.314c12.006.211 21.639-4.477 28.901-14.066 2.465-3.749 3.727-7.871 3.785-12.367 5.338 1.94 9.757.67 13.258-3.809a36.324 36.324 0 001.946-10.892 59.18 59.18 0 013.751-5.719c.782-4.616-.075-8.932-2.571-12.949-8.481-10.368-19.198-17.25-32.149-20.646a20.731 20.731 0 00-5.664-.563 257.842 257.842 0 00-7.724-6.573 10.068 10.068 0 01-1.475-1.84c-4.416-12.697-6.107-25.76-5.072-39.192a122.25 122.25 0 014.129-25.516c1.118 13.255 4.387 25.991 9.807 38.208 7.428 16.46 19.43 28.061 36.004 34.805l.227-.756c-6.781-9.938-11.531-20.773-14.249-32.506a1069.172 1069.172 0 01-4.039-23.029c-4.561-13.004-12.774-22.937-24.638-29.799a180.59 180.59 0 0113.624-36.419zm-3.033 126.796c7.928 4.751 13.967 11.303 18.117 19.656 3.345 8.936 3.228 17.82-.35 26.654 2.536 1.784 5.144 1.829 7.822.135 2.858-3.177 4.156-6.929 3.895-11.256-3.512-2.248-5.601-5.35-6.267-9.305l1.093.582a25.653 25.653 0 005.183 5.745c4.239-.244 6.006-2.46 5.298-6.648a38.238 38.238 0 00-9.445-12.228c-5.524-5.633-12.021-9.681-19.49-12.144a46.12 46.12 0 00-5.856-1.191zm3.19 10.471c4.121 8.955 5.516 18.295 4.185 28.019-.629 3.373-2.316 6.099-5.061 8.179a180.433 180.433 0 00-6.902 4.39c5.831.913 11.435.274 16.81-1.916 4.453-6.92 6.036-14.497 4.749-22.73-1.368-6.337-4.508-11.636-9.419-15.897-.427-.418-.636-.354-.629.191a29.982 29.982 0 014.446 10.089l-1.256.383c-1.735-3.994-4.043-7.563-6.923-10.708zm-14.846-9.668c-3.529 2.99-6.142 6.684-7.838 11.084a153.654 153.654 0 00-4.731 16.775l-.355.337c-.862-2.802-.902-5.689-.121-8.66a60.113 60.113 0 018.374-18.342c-4.865 1.53-8.907 4.286-12.127 8.271-12.283 14.475-13.094 29.598-2.431 45.368 2.37 2.222 4.992 2.568 7.868 1.036l6.118-6.211c.457.111.891.284 1.302.519a11.248 11.248 0 01-1.101 2.395 7.107 7.107 0 003.35-1.021 112.606 112.606 0 0112.711-9.364c4.134-3.069 5.857-7.179 5.17-12.331-1.335-11.112-5.626-20.943-12.874-29.492a25.32 25.32 0 00-3.741 8.005 241.168 241.168 0 01-2.501 13.578 1.317 1.317 0 01-1.093-.582c-.192-7.461 1.148-14.583 4.02-21.365zm24.271 57.146a1.063 1.063 0 00-.464-.774c-3.761 3.185-8.044 5.405-12.848 6.659l-.382-1.256c4.104-1.051 7.597-3.107 10.48-6.167a28.48 28.48 0 01-9.398-.8 1.861 1.861 0 00-1.676.511 11.188 11.188 0 01-2.039 3.825 40.822 40.822 0 00-7.284 3.134c-.282.687-.37 1.4-.263 2.14 1.98 2.691 2.026 5.347.138 7.968 10.198-1.67 18.11-6.75 23.736-15.24zm-58.803-150.987a92108.484 92108.484 0 00-39.477-7.887 192.434 192.434 0 00-47.189-1.647 502.205 502.205 0 01-31.014 4.869 459.015 459.015 0 0121.183 10.941c17.739 7.243 36.231 9.85 55.477 7.82 10.523-.706 20.691-2.887 30.504-6.545-9.447 2.006-18.814 1.808-28.102-.595-.835-.759-.747-1.472.264-2.14 13.038.54 25.823-1.066 38.354-4.816zm42.102 148.75a239.524 239.524 0 01-3.952-2.457c-2.931 3.299-6.492 4.384-10.681 3.253a11.211 11.211 0 01-2.731 3.807 2634.11 2634.11 0 012.55 3.113c1.326.391 2.683.588 4.071.591 1.318-4.196 4.162-6.13 8.531-5.802a6.044 6.044 0 002.212-2.505zm-19.48-54.942c-17.678 5.493-27.526 17.494-29.543 36.003-.626 6.659.268 13.1 2.682 19.322 2.235 5.403 6.151 7.49 11.748 6.263-4.667-2.469-7.221-6.344-7.661-11.627 2.526 4.415 6.014 7.854 10.466 10.315 1.709.626 3.373.577 4.99-.147-3.521-2.485-6.114-5.739-7.779-9.76-6.634-16.903-3.839-32.02 8.386-45.35 2-2.014 4.237-3.687 6.711-5.019zm9.011 68.659c-.198-.634-.626-1.038-1.284-1.211-2.128.136-4.052-.423-5.774-1.675a26.616 26.616 0 00-3.771-4.115c-.831.06-1.663.085-2.495.073a85.411 85.411 0 01-9.205 5.093c3.464 4.244 7.9 6.784 13.306 7.619 2.907.03 5.56-.778 7.958-2.424.734-1.038 1.155-2.159 1.265-3.36zm-75.732-107.383c-25.455 21.971-42.396 49.254-50.822 81.848a65.638 65.638 0 00-1.5 12.357 58.02 58.02 0 018.585-7.878 384.01 384.01 0 0028.808-21.133c14.078-11.279 23.042-25.681 26.89-43.205a377.418 377.418 0 004.51-34.787 382.794 382.794 0 01-14.13 15.975c-10.243 13.398-18.633 27.931-25.169 43.597-.389.729-.947.899-1.676.51 5.426-17.199 13.594-32.96 24.504-47.284zm-135.403-55.337a68.226 68.226 0 00-5.257-13.504c-2.32-2.991-5.368-4.733-9.143-5.225-1.326.048-2.492.48-3.497 1.294a23.133 23.133 0 002.988 7.557l.028 1.594c-2.861-2.426-4.79-5.501-5.784-9.223-4.206-1.613-8.365-1.49-12.476.367a8.906 8.906 0 00-2.731 3.807c-.122.625.096 1.092.656 1.402 18.572 1.211 29.72 11.013 33.444 29.406.399 2.494.843 4.953 1.331 7.375 1.949-8.297 2.096-16.581.441-24.85zm-48.498 6.075a53.8 53.8 0 018.659-5.384c7.577-.898 14.406.989 20.49 5.66a72.082 72.082 0 019.727 9.395 33.116 33.116 0 00-6.039-10.061c.224-.564.622-.761 1.193-.592 4.801 3.813 8.183 8.656 10.147 14.531-2.397-12.71-9.556-21.438-21.478-26.185-12.465-4.496-20.032-.285-22.699 12.636zm43.679 24.686c-4.703-9.059-11.179-16.546-19.429-22.461-3.961-2.524-8.271-3.652-12.931-3.384a9308.98 9308.98 0 01-11.254 6.631c-2.686.137-5.066 1.091-7.139 2.861-1.191 2.136-.538 2.776 1.959 1.921.239.532.249 1.064.027 1.594a52.501 52.501 0 01-6.446 2.879c-3.036 1.305-4.249 3.582-3.641 6.83 1.215 4.663 3.748 8.469 7.596 11.418 12.125 8.771 25.153 10.219 39.085 4.344a26.62 26.62 0 008.322-5.738c-8.68 1.667-17.21 1.213-25.589-1.361l-3.005-1.602c-.373-.336-.318-.658.164-.965a93.872 93.872 0 0020.289 2.745c4.375-.056 8.466-1.15 12.274-3.28a26.58 26.58 0 01-10.107-.126 90.034 90.034 0 01-12.286-4.268c-.476-.232-.743-.609-.801-1.129a3.853 3.853 0 012.285-.01 112.706 112.706 0 0012.932 3.385 30.53 30.53 0 007.695-.284zm6.219 42.962c-1.237-3.174-3.535-4.457-6.894-3.85-2.891 1.474-4.385 3.836-4.479 7.085 2.873 3.908 5.963 4.035 9.27.381a9.586 9.586 0 002.103-3.616zm-11.99-28.846c-14.71 8.917-29.514 9.154-44.411.711-6.884-4.713-11.495-11.089-13.836-19.13-1.32 1.099-2.027 2.534-2.121 4.308.077 5.204 1.851 9.775 5.321 13.713l-.227.756c-3.335-1.907-5.57-4.735-6.704-8.486a11.108 11.108 0 01-.502-4.653c-1.163.632-1.837 1.676-2.021 3.133-1.247 4.233-.281 7.906 2.898 11.018 12.225 11.3 26.487 15.043 42.783 11.228 7.526-2.43 13.799-6.629 18.82-12.598zm23.664 112.257c-2.74-4.97-6.526-5.877-11.356-2.721-1.438 3.006-.618 5.198 2.46 6.574 2.758.578 5.398.232 7.922-1.039.633-.88.958-1.818.974-2.814zm-60.373-165.156c-1.177-.161-2.316.11-3.415.811a57.784 57.784 0 00-7.484 5.484 1.602 1.602 0 01-.61-.501 33.053 33.053 0 0110.552-8.936c-8.583.774-15.698 4.467-21.342 11.078a28.368 28.368 0 01-3.005 3.661c3.778-1.492 6.334-.363 7.669 3.386a8.427 8.427 0 003.105.428 22.529 22.529 0 004.488-4.8c1.943-.871 3.94-1.327 5.992-1.368a25.018 25.018 0 012.348-5.063c-.297-1.746.27-3.139 1.702-4.18zm-5.06 13.442c-1.182-.851-2.405-.859-3.67-.027a9.438 9.438 0 00-1.875 2.86c-2.076 2.232-4.541 2.906-7.394 2.023-1.118 2.806-.841 5.468.83 7.986a15.446 15.446 0 014.945-1.048c.569-4.553 3.116-7.464 7.638-8.735-.453-1.033-.611-2.053-.474-3.059zm29.327 112.819a64.214 64.214 0 00-12.3 12.214 340.357 340.357 0 00-19.207 30.11c-3.034 4.183-6.815 7.547-11.345 10.092-1.045.086-1.403-.339-1.074-1.275a91.977 91.977 0 0011.598-14.518 316.64 316.64 0 0118.079-29.307 63.417 63.417 0 016.974-7.159c-13.599 4.612-25.787 11.681-36.567 21.207a144.15 144.15 0 00-18.08 18.781 913.713 913.713 0 01-40.749 54.063 148.424 148.424 0 0036.575-24.185c-.07 1.342-.631 2.504-1.684 3.488a61.256 61.256 0 01-7.101 6.74 206.447 206.447 0 01-19.093 12.452 209.36 209.36 0 0050.161-24.661c13.092-9.436 23.1-21.41 30.024-35.921a438.89 438.89 0 007.918-22.093 71.88 71.88 0 015.871-10.028zm-45.882-110.066c-1.215-1.384-2.62-1.489-4.216-.318-5.359 2.815-7.598 7.235-6.718 13.26a19.55 19.55 0 002.807 9.215 14.025 14.025 0 012.44-3.26 284.07 284.07 0 016.209-4.409c.26-.923.515-1.84.765-2.75a19.08 19.08 0 01-2.187-6.429c.565-1.769.865-3.539.9-5.309zm-44.208 138.879c-2.528-5.4-5.906-5.973-10.136-1.719-1.611 2.422-1.44 4.734.511 6.939 3.379 1.306 6.081.407 8.104-2.697.426-.911.933-1.752 1.521-2.523z" fill="#FEFFFE"/></svg>