<svg width="842" height="860" fill="none" xmlns="http://www.w3.org/2000/svg"><path fill-rule="evenodd" clip-rule="evenodd" d="M211.026 492.266l1.949 2.403c10.957-5.628 22.507-7.407 34.651-5.335a132.135 132.135 0 0117.769 4.37l29.831 12.229c18.676 7.608 38.107 11.105 58.293 10.489 14.409-1.298 28.377-4.657 41.903-10.077a568.641 568.641 0 0039.768-19.726 74.482 74.482 0 0023.289-6.366 447.056 447.056 0 0035.157-17.694c5.76-2.287 11.714-3.131 17.861-2.533 2.433.569 4.909.932 7.428 1.09a2619.549 2619.549 0 0044.389 11.236c27.826 5.491 54.996 3.092 81.509-7.196a113.814 113.814 0 0015.648-8.42c.607-.464.983-1.054 1.127-1.768-12.456 1.735-24.713.771-36.776-2.899a620.416 620.416 0 00-37.272-10.179 175.515 175.515 0 00-20.826-2.176c23.334-11.693 40.982-29.227 52.944-52.601a41.387 41.387 0 002.987-7.543 52.572 52.572 0 01-8.573 8.374 301.897 301.897 0 01-20.413 13.421 92.724 92.724 0 00-17.704 16.062 151.434 151.434 0 01-17.142 22.719c-13.542.851-26.719 3.664-39.532 8.439a636.279 636.279 0 00-30.285 13.176 305.016 305.016 0 01-41.633 19.532l-5.169 1.345a183.375 183.375 0 0025.897-19.29c13.948-13.376 23.369-29.36 28.263-47.953a156.044 156.044 0 018.304-28.355c3.686-8.162 9.677-13.873 17.973-17.134.799-1.759.289-2.389-1.531-1.888-13.703 6.439-27.879 7.787-42.529 4.041a123.492 123.492 0 01-18.817-6.365 2458.44 2458.44 0 00-39.407-19.828c-12.77-5.21-26-6.906-39.689-5.089-17.157 2.11-33.577 6.888-49.261 14.336 21.298-19.59 46.229-31.65 74.795-36.178a424.737 424.737 0 0132.485-4.148l41.476-1.48a42.491 42.491 0 0013.069 8.749 1052.133 1052.133 0 0035.064 10.262 33.389 33.389 0 015.14 4.937c2.564 2.463 5.597 3.513 9.098 3.15 3.256-1.594 3.747-3.795 1.475-6.602-2.049-2.268-4.588-3.528-7.618-3.781a91.994 91.994 0 00-6.035.626 152.737 152.737 0 00-13.009-4.815l-20.19-5.252a33.944 33.944 0 01-11.743-6.411l-.491-1.309a79.661 79.661 0 017.933-.742c18.783 7.358 38.243 10.072 58.381 8.142 5.112 2.734 10.407 3.182 15.885 1.345 4.627-3.329 4.412-6.284-.645-8.866-5.862-.523-10.877 1.362-15.045 5.656-18.166 1.305-35.555-1.192-52.165-7.493a241.337 241.337 0 0043.169-11.672c12.897 2.584 25.604 1.765 38.122-2.459l6.537 2.097c5.108.607 8.869-1.304 11.282-5.735-1.04-3.762-3.571-5.598-7.594-5.506-4.534.623-8.213 2.752-11.037 6.388a6.362 6.362 0 01-2.649 1.294 139.123 139.123 0 01-26.5 1.003c17.428-7.603 33.354-17.67 47.776-30.203 5.728-.543 10.822-2.681 15.282-6.416a42.708 42.708 0 009.863-11.696c.51-1.378.707-2.77.594-4.18l-3.062-3.776c-2.538-1.27-5.023-1.057-7.451.635-7.696 6.474-13.395 14.414-17.101 23.823a234.356 234.356 0 01-46.411 27.674 111.928 111.928 0 0010.443-12.735c6.143-2.797 10.589-7.255 13.338-13.375 1.134-2.815 1.001-5.552-.399-8.212-2.62-2.597-5.289-2.614-8.008-.051a24.193 24.193 0 00-6.495 9.534 119.316 119.316 0 01-1.577 12.09 122.202 122.202 0 01-16.15 16.224 234.292 234.292 0 01-56.753 13.867c1.56-2.664 3.581-4.966 6.064-6.908a47.73 47.73 0 017.734-4.848 218.575 218.575 0 0117.973-6.606 70.888 70.888 0 008.601-4.129c7.178 1.26 11.358-1.655 12.54-8.746-.852-3.602-2.941-4.658-6.268-3.168a21.739 21.739 0 00-4.806 3.897 26.188 26.188 0 00-2.654 5.85 466.887 466.887 0 01-18.733 6.37 45.987 45.987 0 00-15.477 8.281 101.74 101.74 0 00-10.355 10.388c-9.637.173-19.277.214-28.922.121-26.303.347-51.928 5.002-76.874 13.964l9.214-16.005c10.439-16.815 24.202-30.25 41.29-40.307 25.059-16.588 52.469-26.294 82.227-29.117 3.471-.056 6.933-.113 10.388-.172.334-.47.263-.792-.214-.965a41.234 41.234 0 00-7.116-1.057 251.946 251.946 0 00-18.344-7.887l-9.39-.353a106.46 106.46 0 00-9.427-6.012c-9.634-3.205-19.428-3.705-29.381-1.499a49.843 49.843 0 00-13.343 7.405c-1.891 1.059-3.653.875-5.284-.552-4.661-.692-9.131-.007-13.413 2.055-12.474 7.173-19.974 17.806-22.5 31.9a339.257 339.257 0 01-6.152 40.836 106.985 106.985 0 00-12.234 23.86c-18.416 7.55-34.3 18.722-47.65 33.515-21.248 10.148-40.096 23.628-56.544 40.441a140.83 140.83 0 00-14.168 18.316c-4.562 7.325-9.093 14.603-13.594 21.833 6.352-20.061 15.34-38.918 26.964-56.572 7.045-10.538 15.637-19.591 25.776-27.159 7.195-4.25 14.438-8.416 21.731-12.499 14.23-8.433 24.875-20.099 31.937-34.999a72.966 72.966 0 002.969-10.373 851.915 851.915 0 001.697-46.329c14.306-6.812 27.086-15.846 38.34-27.103 11.911-11.669 18.618-25.737 20.12-42.204a4.203 4.203 0 01-.181-1.276c-2.85 4.979-6.456 9.421-10.818 13.324l-23.41 19.551c-10.028 8.368-18.178 18.201-24.45 29.497.125-21.924-8.15-46.848-20.004-59.298-5.583-5.864 8.339 7.606-30.536-33.956-.792-5.603-.354 2.179-.869 3.323 11.619 12.125 36.45 43.661 42.339 59.446a101.211 101.211 0 013.118 12.266c-8.047-19.589-31.984-42.795-50.352-52.995 0 0 .323 1.526-.593 2.269 20.282 13.368 44.312 36.983 52.179 59.968.719 11.506.772 23.033.158 34.581-1.229-4-2.589-8.018-4.083-12.053a61.342 61.342 0 00-4.472-8.323 1796.377 1796.377 0 00-26.231-31.649c-2.781-11.569-12.064-31.967-17.551-42.524-.974.636-.934 3.572 2.854 11.765a161.833 161.833 0 016.949 17.695c-1.088 7.257-4.35 13.41-9.784 18.459a4906.712 4906.712 0 01-20.107 18.01 90.858 90.858 0 00-14.576 19.217 258.238 258.238 0 00-5.781 13.222 112.634 112.634 0 013.711-23.494 578.479 578.479 0 019.613-28.847 1536.269 1536.269 0 0114.168-18.316 50.944 50.944 0 003.823-6.514 18.782 18.782 0 00-4.463 3.619 81.24 81.24 0 01-10.884 13.946l1.958-6.709a32.077 32.077 0 00-5.836 4.732 1615.118 1615.118 0 00-11.719 33.969c-6.696 21.027-5.606 41.67 3.271 61.931a1702.143 1702.143 0 0015.663 30.545c4.818 8.21 6.728 16.998 5.729 26.366a165.627 165.627 0 00-27.483 40.492c-7.818 15.871-13.83 32.316-18.037 49.335a755.137 755.137 0 01-19.495 37.713zm194.342 4.592c-9.91 1.218-19.75.661-29.52-1.67a7081.98 7081.98 0 01-70.917-25.006 155.27 155.27 0 00-29.826-6.258c-12.513-.207-24.835 1.439-36.966 4.936a195.53 195.53 0 00-22.394 21.856l-1.341.803a1.001 1.001 0 00-.074-.793 4.764 4.764 0 00-1.504 2.356c8.758-5.107 18.176-7.527 28.254-7.26 8.658.586 17.078 2.2 25.261 4.838a655.376 655.376 0 0048.157 17.286c31.575 8.035 61.865 4.338 90.87-11.088zm-191.038-6.132a245.92 245.92 0 0151.125-45.721 4706.2 4706.2 0 0020.348-12.8 83.95 83.95 0 0017.527-21.894 700.375 700.375 0 0119.16-36.019 92.819 92.819 0 0115.691-17.843 306.368 306.368 0 00-55.807 31.877c-13.415 12.019-24.702 25.818-33.862 41.397a3173.82 3173.82 0 00-34.182 61.003zm27.102-24.821c12.05-4.014 24.397-5.395 37.041-4.143a211.54 211.54 0 0135.57 8.429 5391.05 5391.05 0 0061.787 22.167 109.695 109.695 0 0034.976 2.083 440.05 440.05 0 0035.416-20.182 147.663 147.663 0 0016.414-12.739c-9.602 2.455-19.253 2.599-28.954.431a401.748 401.748 0 01-45.373-13.853 323.737 323.737 0 00-57.82-12.01 256.642 256.642 0 00-47.618 1.623 229.852 229.852 0 00-41.439 28.194zM435.31 357.64c-24.015-14.344-49.182-17.078-75.501-8.202-12.353 3.403-22.34 10.268-29.961 20.595a254.776 254.776 0 00-20.208 34.025 100.043 100.043 0 01-21.081 27.335 262.646 262.646 0 0146.263-18.734 102.061 102.061 0 0020.404-14.837 488.835 488.835 0 0126.235-25.54c15.783-13.236 33.732-18.117 53.849-14.642zm-144.32 76.049c17.985-2.266 36.015-1.902 54.09 1.095a581.193 581.193 0 0129.794 6.569 4411.014 4411.014 0 0056.989 16.952c11.337 2.917 22.646 2.947 33.928.088 10.8-9.396 18.594-20.837 23.382-34.322-8.777 6.733-18.671 10.204-29.683 10.411a182.619 182.619 0 01-33.602-3.197 1455.898 1455.898 0 01-58.707-15.56 69.155 69.155 0 00-20.482-2.454 257.836 257.836 0 00-55.709 20.418zm-12.62-71.705a2657.925 2657.925 0 0025.6-75.097 142.628 142.628 0 005.224-24.436 85.052 85.052 0 01-6.366 8.291 515.575 515.575 0 00-24.681 25.702c-4.962 5.959-8.692 12.587-11.19 19.884a31.76 31.76 0 00-.96 6.184 177.285 177.285 0 0110.225 22.436c1.871 5.571 2.587 11.25 2.148 17.036zm32.633-86.775a853.717 853.717 0 01-30.434 85.276 78.792 78.792 0 0112.295-9.399 715.044 715.044 0 0021.313-13.014c3.834-6.089 5.734-12.751 5.701-19.986a128.871 128.871 0 00-2.357-22.556 1659.414 1659.414 0 00-6.518-20.321zm-8.231-65.59c-1.463 4.42-3.715 8.427-6.754 12.02a927.878 927.878 0 01-22.362 21.545c-11.343 10.158-18.82 22.574-22.431 37.25.61 8.518 2.689 16.695 6.236 24.532a153.862 153.862 0 007.274 14.586c1.168-8.08 4.237-15.405 9.209-21.976a132.134 132.134 0 018.629-10.411 601.585 601.585 0 0019.615-19.318 43.979 43.979 0 007.516-11.784c.648-15.857-1.663-31.338-6.932-46.444zm42.591 199.899a325.696 325.696 0 0159.513-8.708c12.276-.499 24.561-.787 36.855-.863 18.754-1.026 36.183-6.432 52.285-16.22a63.947 63.947 0 008.518-6.337 77.789 77.789 0 01-24.064-1.257c-11.792-3.031-23.05-7.559-33.775-13.584-14.631-5.187-29.135-4.713-43.512 1.424-9.311 3.938-17.442 9.582-24.394 16.934a455.432 455.432 0 01-23.145 23.034 209.558 209.558 0 01-8.281 5.577zm12.09 1.577a1461.858 1461.858 0 0165.651 16.757 182.264 182.264 0 0035.338 4.635c8.408.029 16.449-1.749 24.124-5.336a45.188 45.188 0 007.08-4.602l8.712-29.256a57.018 57.018 0 0110.309-17.462c-19.009 16.593-41.037 25.919-66.083 27.975-20.24.609-40.459 1.639-60.654 3.091a194.682 194.682 0 00-24.477 4.198zm-39.092-76.985c17.001-12.037 25.372-28.497 25.113-49.381-.941-10.712-3.86-20.863-8.76-30.452a365.766 365.766 0 00-6.379-9.622 584.736 584.736 0 01-17.56-19.903c3.205 14.486 3.669 29.094 1.392 43.823a933.033 933.033 0 006.839 21.768c3.372 11.78 4.221 23.705 2.547 35.774a37.644 37.644 0 01-3.192 7.993zm187.875 123.638a99.036 99.036 0 0117.644 1.057 1780.98 1780.98 0 0146.384 10.188c27.631 4.924 54.264 1.63 79.903-9.877a60.326 60.326 0 01-14.952-1.248 3487.8 3487.8 0 00-51.506-12.294c-16.678-2.473-33.134-1.364-49.368 3.326a622.932 622.932 0 00-28.105 8.848zm-120.753-161.56c.247.14.511.115.793-.074a163.129 163.129 0 0121.151-21.986 135.63 135.63 0 015.613-17.639l7.349-16.2a62.245 62.245 0 015.604-8.528c-4.74-1.858-9.457-1.827-14.15.093-11.672 6.727-18.785 16.668-21.34 29.822l-3.675 29.154a46.43 46.43 0 01-1.345 5.358zm23.8-23.28a225.72 225.72 0 0110.619-6.904c1.198-8.15 4.082-15.705 8.652-22.663a84.094 84.094 0 0115.607-20.051 22.798 22.798 0 00-6.542 2.459 167.46 167.46 0 01-8.313 5.887c-9.781 12.314-16.455 26.071-20.023 41.272zm11.886-8.5a3904.164 3904.164 0 0123.113-12.196 301.956 301.956 0 0118.102-7.85 3182.948 3182.948 0 0118.066-13.51 31.434 31.434 0 01-6.416-4.755 59.047 59.047 0 00-20.632-4.041c-1.665-.036-3.181.434-4.546 1.41-6.714 3.931-12.086 9.235-16.117 15.913-5.191 7.775-9.047 16.119-11.57 25.029zm113.237 68.078c1.724 1.078 1.509 1.632-.645 1.66 1.371 1.97 3.221 3.315 5.549 4.037 1.477-.216 2.75-.869 3.818-1.958-2.357-2.589-5.265-3.835-8.722-3.739zm-32.04-96.359a84.944 84.944 0 00-10.694-4.417c-5.13-.912-9.758.28-13.885 3.577a80.656 80.656 0 00-9.27 7.516 188.063 188.063 0 0133.849-6.676zm24.069 49.334c5.039.704 8.143-1.433 9.311-6.411-1.28-2.916-3.181-3.272-5.701-1.067a15.743 15.743 0 00-3.897 5.72c2.46-.518 2.556.068.287 1.758zm29.766 33.904c3.558 1.417 7.124 1.37 10.699-.139.293-.299.486-.645.58-1.039a16.76 16.76 0 01-.952-2.928c-4.462-.97-8.436-.023-11.923 2.84.939-.14 1.883-.146 2.83-.019a3.72 3.72 0 01-1.234 1.285zm3.99-44.203c.247.139.511.114.793-.074 3.795-5.426 4.292-5.165 1.489.784 4.879-2.264 8.098-6.013 9.66-11.246.48-1.945.135-3.657-1.035-5.136-1.25.184-2.505.158-3.763-.079-3.279 2.455-5.397 5.69-6.355 9.706a58.674 58.674 0 01-.789 6.045zm21.248 19.188a26.377 26.377 0 003.345-.436c.477.173.548.495.214.965-.712.035-1.112.36-1.202.974 2.305.398 4.631.694 6.978.886 2.487-.288 4.193-1.576 5.117-3.864-.348-1.452-1.297-2.39-2.849-2.812-4.533-.461-8.4.968-11.603 4.287zm18.576-30.425c8.351-2.803 15.198-7.691 20.543-14.665 1.794-3.219 1.088-5.493-2.116-6.82-3.845.732-7.076 2.593-9.696 5.586a54.039 54.039 0 00-9.297 13.797 11.008 11.008 0 002.542-1.776l.835 1.03a18.509 18.509 0 00-2.811 2.848z" fill="#FEFFFE"/><path opacity=".88" fill-rule="evenodd" clip-rule="evenodd" d="M229.867 478.783l2.427-2.801c25.614 30.374 56.343 54.144 92.187 71.31a144.43 144.43 0 0127.613.392 49.902 49.902 0 0114.526 4.742 684.303 684.303 0 0028.062 14.021 130.32 130.32 0 0015.207 5.088l.598 1.008a161.3 161.3 0 01-32.795 6.152c-19.22.81-34.966-6.297-47.236-21.321a97.271 97.271 0 01-4.892-5.955 255.63 255.63 0 01-51.905-31.497 295.964 295.964 0 0043.541 65.197 173.502 173.502 0 0025 22.647 99.4 99.4 0 0019.679 3.323l29.499 1.045c12.497.344 24.515 3.076 36.053 8.196a315.306 315.306 0 0147.927 5.245l7.02-1.026a608.75 608.75 0 0127.931-6.199c12.219-1.979 24.2-.996 35.941 2.949a464.369 464.369 0 0037.359 11.78c.672.34 1.273.779 1.802 1.317a4.992 4.992 0 01-2.884 1.913 562.837 562.837 0 01-32.132 9.915c-19.929 4.519-39.098 2.21-57.505-6.926A213.98 213.98 0 01475.937 630a1233.416 1233.416 0 01-40.328-5.525 228.21 228.21 0 0122.61 18.614 1772.348 1772.348 0 0130.975 32.729c.021 1.074-.445 1.896-1.401 2.464a65.316 65.316 0 01-16.635 2.502 270.47 270.47 0 01-50.056-5.619c-20.26-4.071-37.493-13.612-51.699-28.621a584.328 584.328 0 01-23.562-28.267 628.45 628.45 0 017.655 18.895 186.715 186.715 0 0021.808 33.121 138.86 138.86 0 0022.843 20.042c2.288-3.786 5.577-4.941 9.868-3.463 6.536 4.463 6.985 9.51 1.344 15.141-4.575 1.733-8.166.501-10.773-3.696a16.653 16.653 0 01-1.326-3.846 3.462 3.462 0 01.757-2.287 124.627 124.627 0 01-23.46-17.634 176.275 176.275 0 008.626 25.13 76.008 76.008 0 004.658 8.206c3.399-1.863 6.371-1.331 8.916 1.596 3.567 4.48 3.057 8.37-1.531 11.669-4.125 1.041-7.287-.31-9.485-4.052-1.843-3.142-1.479-6.015 1.092-8.616-9.605-11.484-15.229-24.613-16.869-39.385a198.317 198.317 0 01-11.931-16.225c1.93 10.444 2.195 20.89.794 31.339 4.838 1.307 7.212 4.51 7.123 9.606-.794 3.685-2.99 6.031-6.591 7.039-4.769-.109-7.912-2.424-9.428-6.946-.203-4.357 1.577-7.638 5.339-9.839a7.38 7.38 0 001.951-.271 129.817 129.817 0 00-.663-18.474 407.31 407.31 0 00-3.305-20.519 307.283 307.283 0 01-14.619-31.796 39.99 39.99 0 00-2.11-3.79 120.712 120.712 0 00-9.765-7.972c1.738 9.45 1.888 18.897.449 28.342 10.469 11.32 14.744 24.588 12.827 39.805a138.605 138.605 0 01-2.222 9.354 687.42 687.42 0 01-6.963 16.523c-1.708 4.218-2.187 8.544-1.438 12.976a1.828 1.828 0 01-.588.962c-14.551-13.387-21.73-29.907-21.537-49.56.567-11.954 5.664-21.514 15.291-28.679 1.714-7.963 2.013-16.041.895-24.234a38.894 38.894 0 00-4.91-13.573 239.38 239.38 0 01-27.708-34.801 617.284 617.284 0 01-15.702-24.888 113.66 113.66 0 01-8.738-19.342 309.27 309.27 0 01-36.548-35.352zm99.627 70.647c13.106-1.498 25.649.627 37.63 6.376a552.491 552.491 0 0024.972 13.059c-21.733-3.509-42.601-9.987-62.602-19.435zm71.508 22.74a146.608 146.608 0 01-31.413 3.426c-8.243-.514-15.786-3.127-22.629-7.841a167.324 167.324 0 01-14.88-13.387c22.263 9.06 45.237 14.993 68.922 17.802zM323.97 700.101c-8.157-11.806-12.461-24.854-12.912-39.143.058-10.152 3.83-18.654 11.314-25.504a192.106 192.106 0 00-3.509 39.134 98.013 98.013 0 005.107 25.513zm2.651.336a74.917 74.917 0 01-3.221-13.826 151.647 151.647 0 01.149-31.011 1506.273 1506.273 0 002.875-22.274c9.651 12.967 12.514 27.3 8.589 42.998a303.669 303.669 0 01-6.236 15.683 57.216 57.216 0 00-2.156 8.43zm24.83-86.37a345.668 345.668 0 0030.461 1.633 146.797 146.797 0 0130.246 4.145c13.201 4.157 24.895 10.94 35.083 20.35a422.093 422.093 0 0134.036 35.137c-46.494-13.52-89.769-33.942-129.826-61.265zm122.909 61.891c-6.27.337-12.54.215-18.811-.364a282.71 282.71 0 01-40.683-6.814c-21.32-6.376-38.982-18.25-52.987-35.623a505.265 505.265 0 01-12.099-14.898 408.312 408.312 0 0057.749 32.392 481.126 481.126 0 0066.831 25.307zM354.421 688.73a10.259 10.259 0 014.033-2.39c3.756 1.92 4.885 4.86 3.389 8.822-2.892 4.055-5.618 3.9-8.178-.467-.456-2.106-.204-4.095.756-5.965zm45.444 3.584c2.247-3.657 5.172-4.392 8.775-2.203 2.524 2.848 2.695 5.857.514 9.027-3.814 2.674-6.758 1.921-8.832-2.259a13.556 13.556 0 01-.457-4.565zm-10.791 18.111c2.605-1.724 4.612-1.211 6.021 1.54.348 1.18.522 2.394.523 3.641-.687 2.553-2.28 3.542-4.78 2.968-1.612-1.069-2.508-2.581-2.688-4.537.208-1.259.516-2.463.924-3.612zm184.93-77.579a1193.708 1193.708 0 00-68.717-3.892 1055.602 1055.602 0 01-18.783-1.81c11.614-3.866 23.637-5.951 36.072-6.255a141.026 141.026 0 0120.967 2.968 505.656 505.656 0 0130.461 8.989zm-87.061-1.399a2397.361 2397.361 0 0062.331 2.772c7.646.25 15.255.713 22.825 1.39a225.801 225.801 0 01-31.824 8.711c-19.26 2.021-37.037-2.27-53.332-12.873z" fill="#FEFFFE"/></svg>