<svg width="111" height="43" viewBox="0 0 111 43" fill="none" xmlns="http://www.w3.org/2000/svg">
<path d="M38.4643 0.736497V0.4418H31.7555L20.4747 29.6736L8.15022 0.4418H1.39157V0.736497C2.13704 0.785861 2.88251 0.982326 3.62798 1.32589C4.32352 1.71882 4.67153 2.35758 4.67153 3.19281L3.52862 31.3441C3.37932 32.1793 2.98187 32.8181 2.33577 33.1616C1.64023 33.5057 0.844831 33.7022 0 33.751V34.0457H8.19965V33.751C7.45418 33.7022 6.75864 33.5052 6.06261 33.1123C5.31714 32.7682 4.96912 32.1788 4.96912 31.3436L6.06261 3.88043L18.7845 34.0457H20.3249L31.9533 3.88043C32.1026 7.07373 32.2514 10.8076 32.4007 14.9837C32.5499 19.1598 32.6987 22.8936 32.848 26.0869C32.9968 29.2802 33.0468 31.0489 33.0468 31.3436C33.0468 32.1788 32.6987 32.7682 32.0032 33.1123C31.2577 33.5052 30.5123 33.7017 29.7668 33.751V34.0457H39.8548V33.751C39.01 33.7022 38.2151 33.5052 37.5191 33.1616C36.8235 32.8176 36.4256 32.1788 36.3267 31.3441C36.1774 28.1508 36.0286 24.417 35.8793 20.1915C35.7305 15.9665 35.5812 12.1833 35.432 8.84241C35.2827 5.55088 35.1833 3.6346 35.1833 3.19281C35.1833 2.35758 35.5313 1.71882 36.2768 1.32589C36.9723 0.981832 37.7178 0.785367 38.4633 0.736497H38.4643ZM65.7834 18.2268C65.6341 21.5184 64.8887 24.2699 63.4477 26.4803C62.0067 28.6913 60.2176 30.3618 58.0312 31.3934C55.3973 32.6216 52.4159 32.9657 49.1854 32.3763C45.9554 31.8357 43.0729 30.3618 40.5384 27.9548C38.0039 25.5474 36.513 22.2558 36.0661 18.0797C35.8174 14.5917 36.4635 11.3491 38.0538 8.40111C39.5942 5.5025 42.1786 3.488 45.7067 2.35808C49.5334 1.37575 52.9622 1.47398 55.9935 2.65277C59.0248 3.88093 61.4599 5.84607 63.2489 8.59757C64.9885 11.3491 65.8329 14.5424 65.7834 18.2268ZM51.8193 0C47.1977 0 43.2222 1.22815 39.8928 3.73382C36.5634 6.2395 34.327 9.38392 33.2834 13.216C32.2399 17.048 32.6872 21.1259 34.7244 25.4003C36.3147 28.4465 38.5511 30.7552 41.3837 32.2785C44.2163 33.8014 47.2476 34.5384 50.577 34.4401C54.8506 34.293 58.3792 33.212 61.1618 31.2468C63.8951 29.3306 65.9327 26.8743 67.175 23.9268C68.4173 20.9788 68.8647 17.9331 68.5666 14.8381C68.1192 10.269 66.3801 6.68278 63.3488 3.98015C60.3175 1.32737 56.4414 0.000493631 51.8198 0.000493631L51.8193 0ZM70.7401 1.81755H74.3676C77.7963 1.96465 80.3308 2.70164 81.9211 4.12676C83.5114 5.55137 84.2569 7.51652 84.1575 10.0222C84.1081 12.4785 83.3626 14.493 81.8717 16.0652C80.3807 17.6863 77.8962 18.5215 74.3676 18.6198H70.7401V1.81755ZM67.51 3.43863V31C67.51 31.9828 67.162 32.6705 66.5159 33.0634C65.8698 33.5057 65.0749 33.7022 64.1802 33.751V34.0457H74.0195V33.751C73.1747 33.7022 72.3798 33.5052 71.7337 33.0634C71.0876 32.6705 70.7401 31.9824 70.7401 31.0489V20.0439H73.8707C75.163 20.0439 76.2559 20.3879 77.2001 21.1249C78.0944 21.8619 78.8898 22.7954 79.5853 23.9253C80.2314 25.0552 80.8775 26.2834 81.4737 27.5115C81.9211 28.445 82.4179 29.3291 82.8653 30.1643C83.8095 31.7854 84.8031 32.9158 85.8472 33.5052C86.8907 34.0946 88.2324 34.3404 89.8227 34.2911C90.8168 34.2911 91.9098 34.1928 93.1026 34.0452V33.7505C92.0091 33.7505 90.9656 33.4558 89.972 32.9153C88.9778 32.3748 88.1335 31.6872 87.4375 30.8519C86.2945 29.4273 85.3504 27.8551 84.555 26.1847C83.9089 24.8583 83.2133 23.679 82.4678 22.5979C81.7224 21.5169 80.8281 20.731 79.7346 20.2399C78.8898 19.7976 77.9456 19.5522 76.8027 19.454C80.3807 19.1099 83.0146 18.0782 84.7537 16.2607C86.4928 14.492 87.3875 12.4286 87.437 10.1194C87.4864 8.30189 87.0395 6.68031 86.0454 5.20633C85.0513 3.78171 83.5608 2.60242 81.5731 1.71833C79.5354 0.834236 77.0508 0.391943 74.1189 0.391943H64.1802V0.736004C65.0744 0.736004 65.8698 0.932469 66.5159 1.3254C67.162 1.76769 67.51 2.45532 67.51 3.43814V3.43863ZM93.8356 1.81755H104.967C105.911 1.81755 106.706 2.11225 107.352 2.75101C107.999 3.38976 108.495 4.17562 108.943 5.01085C109.34 5.89543 109.638 6.73066 109.887 7.51652L110.185 7.46765C109.887 6.28837 109.539 5.01085 109.191 3.58623C108.843 2.16161 108.595 1.03169 108.346 0.147102C107.501 0.343567 106.607 0.4418 105.663 0.39293H87.2757V0.736991C88.17 0.736991 88.9654 0.933456 89.6115 1.32639C90.2576 1.76868 90.5556 2.45631 90.5556 3.43913V31.0005C90.5556 31.9833 90.2576 32.671 89.6115 33.0639C88.9654 33.5062 88.1704 33.7027 87.2757 33.7515V34.0462H106.408C107.302 34.0462 108.147 34.1445 108.893 34.2921C109.191 33.1621 109.489 32.0811 109.738 31.0005L110.93 26.2839L110.632 26.235C110.086 28.2495 109.291 29.7724 108.148 30.9023C107.005 32.0322 105.365 32.6216 103.178 32.6216H93.8356V17.9321H101.14C101.886 17.9321 102.433 18.2268 102.78 18.7674C103.128 19.3079 103.376 19.9466 103.526 20.6836C103.674 21.4206 103.724 22.0594 103.724 22.5994H104.023V11.8402H103.724C103.724 12.4296 103.674 13.0684 103.526 13.7565C103.376 14.4935 103.128 15.1323 102.78 15.6723C102.383 16.2128 101.786 16.5075 101.041 16.5075H93.8356V1.81804V1.81755Z" fill="#383E42"/>
<path fill-rule="evenodd" clip-rule="evenodd" d="M65.9232 17.4294C66.2458 13.3224 65.2287 11.9471 63.1835 8.47689C63.1131 8.35743 63.0032 8.24834 62.9308 8.12C63.8046 10.9524 64.7109 11.914 63.8326 14.9163C63.6538 15.5274 63.3862 16.1178 63.0302 16.687L63.0287 16.686C62.8889 16.874 62.7661 17.0557 62.6557 17.2334C61.6886 18.5341 60.2386 19.7169 58.3162 20.7732C57.5558 20.4465 55.5406 19.8334 53.7805 21.5201C53.3631 21.9199 52.4708 22.6861 51.4263 22.3726C51.4263 22.3726 55.3109 25.3423 58.489 21.1163C59.923 20.3295 61.1034 19.4715 62.0266 18.5455C61.8264 19.128 61.7295 19.6803 61.6301 20.2485C61.6266 20.2702 61.6227 20.2924 61.6192 20.3142C57.1633 23.0973 59.8181 27.1401 59.8181 27.1401C59.588 26.0852 60.4338 25.2687 60.8712 24.8906C62.7391 23.2755 62.2523 21.2091 61.9871 20.4553C61.9956 20.408 62.0036 20.3606 62.0121 20.3137C62.1749 19.3807 62.3317 18.4922 62.9833 17.4393C63.549 16.6741 63.9579 15.8685 64.2051 15.0234C64.6584 13.4729 64.4872 12.074 64.1771 11.023C65.5597 13.3989 65.7424 15.6252 65.5482 17.3129C64.9016 17.7695 63.2759 19.1882 63.8695 21.5867C64.0078 22.1445 64.2255 23.2932 63.4242 24.0258C63.4242 24.0258 67.9379 22.229 65.9237 17.4304L65.9232 17.4294Z" fill="#383E42"/>
<path fill-rule="evenodd" clip-rule="evenodd" d="M55.2244 4.07033C55.6309 4.48893 55.9804 4.96775 56.273 5.50581L56.2715 5.5063C56.3584 5.70227 56.4482 5.88195 56.5401 6.05028C57.1403 7.40333 57.4244 9.08068 57.3919 11.07C56.7823 11.5163 55.3682 12.815 55.915 14.9658C56.0448 15.4757 56.2505 16.5256 55.521 17.2004C55.521 17.2004 59.6793 15.5157 57.7454 11.0907C57.7709 9.60739 57.6236 8.28939 57.3036 7.14269C57.679 7.56573 58.0775 7.89449 58.4874 8.23213C58.5034 8.24497 58.5194 8.25829 58.5349 8.27113C58.7271 13.0361 63.1834 12.8061 63.1834 12.8061C62.2327 12.504 61.9651 11.4674 61.8618 10.952C61.4219 8.74896 59.542 8.18474 58.816 8.04751C58.782 8.01938 58.7481 7.99124 58.7141 7.9631C58.041 7.40826 57.4004 6.87909 56.8542 5.88689C56.4997 5.09313 56.0408 4.40402 55.4761 3.82351C54.44 2.75826 53.2402 2.25229 52.2556 2.01436C54.793 2.0183 56.6619 2.89401 57.9262 3.81858C57.9966 4.53385 58.3896 6.45703 60.5845 7.08987C61.0948 7.23697 62.1154 7.59189 62.3361 8.55497C62.3361 8.55497 62.9607 4.19571 58.1918 3.57818C54.7811 1.04585 52.2171 1.39139 48.3784 1.83813C50.827 2.07705 53.3386 2.1274 55.2239 4.07033H55.2244Z" fill="#383E42"/>
<path fill-rule="evenodd" clip-rule="evenodd" d="M64.5437 24.3006C64.5297 24.3292 63.1057 27.1626 59.8347 27.9139C59.1841 28.0635 58.5081 28.1223 57.806 28.0921L57.8065 28.0902C57.5629 28.0601 57.3342 28.0428 57.115 28.0334C55.4338 27.8256 53.6158 27.1261 51.6745 25.9399C51.5886 25.0933 51.1298 22.9781 48.6931 22.2564C48.1154 22.0856 46.9615 21.674 46.7199 20.5806C46.7199 20.5806 45.9669 25.5623 51.4468 26.2687C52.8948 27.1547 54.2789 27.7767 55.5956 28.1346C54.9605 28.2501 54.4052 28.4431 53.8345 28.6421C53.8131 28.6495 53.7906 28.6574 53.7686 28.6648C48.9623 26.0846 46.6025 30.5095 46.6025 30.5095C47.4524 29.769 48.6287 30.1131 49.1964 30.3135C51.6226 31.168 53.2693 29.6851 53.8255 29.0661C53.873 29.0498 53.9204 29.033 53.9678 29.0167C54.904 28.6904 55.7963 28.3809 57.0885 28.4308C57.4126 28.4703 57.7316 28.4925 58.0467 28.4969C58.6933 28.5058 59.3199 28.4407 59.9256 28.3014C61.5763 27.9223 62.7712 27.061 63.5765 26.2504C62.1001 28.6919 60.1533 29.9828 58.5086 30.664C57.7626 30.316 55.64 29.579 53.7427 31.3254C53.3013 31.7317 52.3596 32.5082 51.2826 32.1616C51.2826 32.1616 55.2046 35.3964 58.581 31.1625C61.1873 30.041 64.7584 26.5061 64.8533 23.5404L64.5437 24.3016V24.3006Z" fill="#383E42"/>
<path d="M10.0619 38.5858V38.5488H9.22161L7.80907 42.2096L6.2657 38.5488H5.41938V38.5858C5.51275 38.5923 5.60612 38.6164 5.69949 38.6599C5.78637 38.7092 5.83031 38.7892 5.83031 38.8939L5.687 42.4189C5.66853 42.5235 5.6186 42.6035 5.53771 42.6464C5.45083 42.6894 5.35097 42.7141 5.24512 42.7205V42.7575H6.2717V42.7205C6.17833 42.7141 6.09145 42.6899 6.00407 42.6405C5.9107 42.5976 5.86726 42.5235 5.86726 42.4189L6.00407 38.9798L7.59736 42.757H7.79009L9.24608 38.9798C9.26455 39.3796 9.28353 39.8471 9.302 40.3703C9.32048 40.8931 9.33945 41.361 9.35792 41.7609C9.3764 42.1607 9.38289 42.3824 9.38289 42.4194C9.38289 42.524 9.33945 42.5976 9.25207 42.641C9.1587 42.6904 9.06533 42.7151 8.97196 42.721V42.758H10.2352V42.721C10.1294 42.7146 10.03 42.6904 9.94261 42.6469C9.85524 42.604 9.8058 42.524 9.79332 42.4194C9.77485 42.0195 9.75587 41.5521 9.7374 41.0229C9.71892 40.4937 9.69995 40.0198 9.68147 39.6017C9.663 39.1896 9.65052 38.9496 9.65052 38.8944C9.65052 38.7897 9.69396 38.7097 9.78733 38.6604C9.87421 38.6174 9.96758 38.5928 10.0609 38.5863L10.0619 38.5858ZM15.0406 40.7761C15.0221 41.1883 14.9287 41.5328 14.748 41.8097C14.5677 42.0867 14.3435 42.296 14.0699 42.4248C13.7399 42.5788 13.3669 42.6218 12.9624 42.5477C12.558 42.4801 12.197 42.2955 11.8794 41.9939C11.5619 41.6923 11.3756 41.2801 11.3192 40.7573C11.2883 40.3205 11.3691 39.9142 11.5684 39.5455C11.7611 39.1826 12.0846 38.9304 12.5265 38.7887C13.0059 38.6658 13.4353 38.6781 13.8148 38.8257C14.1942 38.9798 14.4993 39.2256 14.7235 39.5701C14.9412 39.9147 15.047 40.3145 15.0411 40.7761H15.0406ZM13.292 38.4935C12.7133 38.4935 12.2155 38.6475 11.7985 38.961C11.3816 39.2749 11.1015 39.6684 10.9707 40.1482C10.8399 40.628 10.8958 41.1389 11.1509 41.674C11.3502 42.0556 11.6303 42.3443 11.9848 42.5354C12.3393 42.7259 12.7193 42.8182 13.1362 42.8059C13.6715 42.7876 14.1133 42.6519 14.4619 42.4061C14.8044 42.1661 15.059 41.8586 15.2148 41.4894C15.3706 41.1201 15.4265 40.7391 15.3891 40.3511C15.3332 39.7789 15.1155 39.3297 14.7355 38.9916C14.356 38.6594 13.8707 38.4935 13.292 38.4935ZM17.2185 38.7211H17.6729C18.1023 38.7394 18.4199 38.8317 18.6191 39.0104C18.8183 39.1886 18.9117 39.4349 18.8992 39.7483C18.8932 40.0559 18.7999 40.3081 18.6131 40.5051C18.4264 40.708 18.1153 40.8126 17.6734 40.8249H17.219V38.7211H17.2185ZM16.8141 38.924V42.3754C16.8141 42.4984 16.7707 42.5847 16.6898 42.6336C16.6089 42.6889 16.5095 42.7136 16.3972 42.7195V42.7565H17.6295V42.7195C17.5236 42.7131 17.4243 42.6889 17.3434 42.6336C17.2625 42.5843 17.219 42.4984 17.219 42.3814V41.0032H17.611C17.7728 41.0032 17.9096 41.0461 18.0279 41.1384C18.1398 41.2307 18.2396 41.3477 18.3265 41.4889C18.4074 41.6306 18.4883 41.7841 18.5632 41.9381C18.6191 42.0551 18.6815 42.1657 18.7374 42.2703C18.8558 42.4732 18.9801 42.6149 19.1109 42.6884C19.2417 42.7625 19.4095 42.7931 19.6087 42.7871C19.7331 42.7871 19.8699 42.7748 20.0192 42.7565V42.7195C19.8824 42.7195 19.7515 42.6825 19.6272 42.6149C19.5029 42.5472 19.397 42.4608 19.3101 42.3567C19.1668 42.1785 19.049 41.9815 18.9491 41.7722C18.8683 41.6064 18.7814 41.4588 18.688 41.323C18.5946 41.1878 18.4828 41.089 18.346 41.0278C18.2401 40.9725 18.1218 40.9419 17.979 40.9296C18.4269 40.8867 18.7569 40.7573 18.9746 40.5298C19.1923 40.3081 19.3047 40.0499 19.3106 39.7607C19.3166 39.5331 19.2607 39.3302 19.1364 39.1456C19.0121 38.9674 18.8253 38.8193 18.5762 38.7088C18.321 38.5982 18.0099 38.5429 17.6425 38.5429H16.3977V38.5858C16.5095 38.5858 16.6094 38.6105 16.6903 38.6599C16.7712 38.7152 16.8146 38.8016 16.8146 38.9245L16.8141 38.924ZM21.6679 38.7211H23.0619C23.1803 38.7211 23.2796 38.7581 23.3605 38.8381C23.4414 38.9181 23.5038 39.0163 23.5598 39.1209C23.6097 39.2315 23.6466 39.3362 23.6781 39.4349L23.7155 39.4285C23.6781 39.2809 23.6347 39.1209 23.5912 38.9422C23.5478 38.764 23.5163 38.6224 23.4854 38.5113C23.3795 38.536 23.2677 38.5483 23.1493 38.5419H20.847V38.5849C20.9589 38.5849 21.0587 38.6095 21.1396 38.6589C21.2205 38.7142 21.2579 38.8006 21.2579 38.9235V42.375C21.2579 42.4979 21.2205 42.5842 21.1396 42.6331C21.0587 42.6884 20.9594 42.7131 20.847 42.719V42.756H23.2427C23.3545 42.756 23.4604 42.7684 23.5538 42.7866C23.5912 42.645 23.6287 42.5097 23.6596 42.3745L23.8089 41.7836L23.7715 41.7777C23.7031 42.0299 23.6037 42.2204 23.4604 42.3621C23.3171 42.5038 23.1119 42.5773 22.8383 42.5773H21.6684V40.7381H22.5831C22.6765 40.7381 22.7449 40.7751 22.7883 40.8427C22.8318 40.9103 22.8632 40.9903 22.8817 41.0826C22.9002 41.1749 22.9067 41.2549 22.9067 41.3225H22.9441V39.9754H22.9067C22.9067 40.0495 22.9002 40.1294 22.8817 40.2153C22.8632 40.3076 22.8318 40.3876 22.7883 40.4552C22.7384 40.5228 22.664 40.5599 22.5706 40.5599H21.6684V38.7206L21.6679 38.7211Z" fill="#383E42"/>
<path d="M26.3814 42.7199V42.7569H28.7336C28.8579 42.751 28.9763 42.7633 29.0881 42.7875L29.3373 41.7844L29.2998 41.7785C29.2314 42.0308 29.132 42.2213 28.9887 42.363C28.8454 42.5047 28.6402 42.5782 28.3666 42.5782H27.2027V38.9174C27.2027 38.8004 27.2462 38.7146 27.3271 38.6593C27.4079 38.6099 27.5078 38.5852 27.6132 38.5852V38.5423H26.3809V38.5852C26.4927 38.5852 26.5926 38.6099 26.6735 38.6593C26.7543 38.7146 26.7918 38.8009 26.7918 38.9239V42.3753C26.7918 42.4982 26.7543 42.5846 26.6735 42.6335C26.5926 42.6888 26.4932 42.7135 26.3809 42.7194L26.3814 42.7199ZM34.2595 40.776C34.241 41.1881 34.1476 41.5327 33.9669 41.8096C33.7866 42.0865 33.5624 42.2958 33.2888 42.4247C32.9588 42.5787 32.5858 42.6216 32.1813 42.5476C31.7769 42.48 31.4159 42.2954 31.0983 41.9937C30.7808 41.6921 30.5945 41.28 30.5381 40.7572C30.5071 40.3203 30.588 39.9141 30.7873 39.5453C30.98 39.1825 31.3035 38.9303 31.7454 38.7886C32.2248 38.6657 32.6542 38.678 33.0336 38.8256C33.4131 38.9796 33.7182 39.2255 33.9424 39.57C34.1601 39.9146 34.2659 40.3144 34.26 40.776H34.2595ZM32.5109 38.4934C31.9322 38.4934 31.4344 38.6474 31.0174 38.9609C30.6005 39.2748 30.3204 39.6683 30.1896 40.1481C30.0588 40.6279 30.1147 41.1388 30.3698 41.6739C30.5691 42.0554 30.8492 42.3442 31.2037 42.5353C31.5582 42.7258 31.9382 42.8181 32.3551 42.8058C32.8903 42.7875 33.3322 42.6518 33.6808 42.4059C34.0233 42.166 34.2779 41.8585 34.4337 41.4893C34.5895 41.12 34.6454 40.7389 34.608 40.3509C34.552 39.7788 34.3343 39.3296 33.9544 38.9915C33.5749 38.6593 33.0896 38.4934 32.5109 38.4934ZM35.691 38.955L37.2219 42.7569H37.4271C37.5953 42.3447 37.7571 41.9261 37.9189 41.508C38.2614 40.653 38.5969 39.804 38.933 38.9485C38.9764 38.8315 39.0573 38.7457 39.1632 38.6839C39.269 38.6287 39.3809 38.5916 39.5057 38.5852V38.5482H38.2924V38.5852C38.3548 38.5852 38.4292 38.5976 38.5101 38.6222C38.591 38.6469 38.6534 38.6839 38.7033 38.7328C38.7532 38.7881 38.7657 38.8498 38.7407 38.9298L37.4525 42.1902L36.1334 38.9298C36.1084 38.8498 36.1209 38.7881 36.1708 38.7328C36.2142 38.6835 36.2767 38.6469 36.3575 38.6222C36.4384 38.5976 36.5068 38.5852 36.5752 38.5852V38.5482H35.1068L35.1008 38.5852C35.2316 38.5916 35.3499 38.6282 35.4553 38.6899C35.5612 38.7516 35.642 38.8375 35.692 38.9545L35.691 38.955ZM41.2792 38.721H42.6733C42.7916 38.721 42.891 38.758 42.9719 38.838C43.0528 38.9179 43.1152 39.0162 43.1711 39.1208C43.221 39.2314 43.258 39.336 43.2895 39.4348L43.3269 39.4283C43.2895 39.2807 43.246 39.1208 43.2026 38.9421C43.1591 38.7639 43.1277 38.6222 43.0967 38.5112C42.9909 38.5359 42.879 38.5482 42.7607 38.5418H40.4584V38.5847C40.5702 38.5847 40.6701 38.6094 40.751 38.6588C40.8319 38.7141 40.8693 38.8004 40.8693 38.9234V42.3748C40.8693 42.4977 40.8319 42.5841 40.751 42.633C40.6701 42.6883 40.5707 42.713 40.4584 42.7189V42.7559H42.8541C42.9659 42.7559 43.0718 42.7683 43.1651 42.7865C43.2026 42.6448 43.24 42.5096 43.271 42.3743L43.4203 41.7835L43.3828 41.7775C43.3144 42.0298 43.2151 42.2203 43.0718 42.362C42.9284 42.5037 42.7232 42.5772 42.4496 42.5772H41.2797V40.738H42.1945C42.2878 40.738 42.3562 40.775 42.3997 40.8426C42.4431 40.9102 42.4746 40.9902 42.4931 41.0825C42.5115 41.1748 42.518 41.2548 42.518 41.3224H42.5555V39.9753H42.518C42.518 40.0493 42.5115 40.1293 42.4931 40.2152C42.4746 40.3075 42.4431 40.3875 42.3997 40.4551C42.3498 40.5227 42.2754 40.5597 42.182 40.5597H41.2797V38.7205L41.2792 38.721Z" fill="#383E42"/>
<path d="M55.6635 38.5857V38.5487H54.8232L53.4106 42.2095L51.8673 38.5487H51.0209V38.5857C51.1143 38.5921 51.2077 38.6163 51.3011 38.6598C51.3879 38.7091 51.4319 38.7891 51.4319 38.8937L51.2886 42.4188C51.2701 42.5234 51.2202 42.6034 51.1393 42.6463C51.0524 42.6893 50.9525 42.714 50.8467 42.7204V42.7574H51.8733V42.7204C51.7799 42.714 51.693 42.6898 51.6056 42.6404C51.5123 42.5975 51.4688 42.5234 51.4688 42.4188L51.6056 38.9796L53.1989 42.7569H53.3917L54.8476 38.9796C54.8661 39.3795 54.8851 39.8469 54.9036 40.3702C54.922 40.8929 54.941 41.3609 54.9595 41.7608C54.978 42.1606 54.9845 42.3822 54.9845 42.4193C54.9845 42.5239 54.941 42.5975 54.8536 42.6409C54.7603 42.6903 54.6669 42.7149 54.5735 42.7209V42.7579H55.8368V42.7209C55.7309 42.7144 55.6316 42.6903 55.5442 42.6468C55.4568 42.6039 55.4074 42.5239 55.3949 42.4193C55.3764 42.0194 55.3574 41.5519 55.339 41.0228C55.3205 40.4936 55.3015 40.0197 55.283 39.6016C55.2646 39.1894 55.2521 38.9495 55.2521 38.8942C55.2521 38.7896 55.2955 38.7096 55.3889 38.6603C55.4758 38.6173 55.5691 38.5926 55.6625 38.5862L55.6635 38.5857ZM60.6421 40.776C60.6236 41.1881 60.5303 41.5327 60.3495 41.8096C60.1693 42.0865 59.9451 42.2958 59.6715 42.4247C59.3414 42.5787 58.9684 42.6216 58.564 42.5476C58.1596 42.48 57.7986 42.2954 57.481 41.9937C57.1634 41.6921 56.9772 41.28 56.9208 40.7572C56.8898 40.3203 56.9707 39.9141 57.1699 39.5453C57.3627 39.1825 57.6862 38.9303 58.1281 38.7886C58.6074 38.6657 59.0368 38.678 59.4163 38.8256C59.7958 38.9796 60.1009 39.2255 60.3251 39.57C60.5428 39.9146 60.6486 40.3144 60.6426 40.776H60.6421ZM58.8935 38.4934C58.3148 38.4934 57.817 38.6474 57.4001 38.9609C56.9832 39.2748 56.7031 39.6683 56.5723 40.1481C56.4414 40.6279 56.4974 41.1388 56.7525 41.6739C56.9517 42.0554 57.2318 42.3442 57.5864 42.5353C57.9409 42.7258 58.3208 42.8181 58.7378 42.8058C59.273 42.7875 59.7149 42.6518 60.0634 42.4059C60.406 42.166 60.6606 41.8585 60.8164 41.4893C60.9722 41.12 61.0281 40.7389 60.9906 40.3509C60.9347 39.7788 60.717 39.3296 60.337 38.9915C59.9576 38.6593 59.4722 38.4934 58.8935 38.4934ZM62.8201 38.721H63.2745C63.7039 38.7392 64.0214 38.8315 64.2207 39.0102C64.4199 39.1884 64.5133 39.4348 64.5008 39.7482C64.4948 40.0557 64.4014 40.308 64.2147 40.505C64.0279 40.7078 63.7169 40.8125 63.275 40.8248H62.8206V38.721H62.8201ZM62.4157 38.9239V42.3753C62.4157 42.4982 62.3722 42.5846 62.2913 42.6335C62.2105 42.6888 62.1111 42.7135 61.9987 42.7194V42.7564H63.231V42.7194C63.1252 42.713 63.0258 42.6888 62.9449 42.6335C62.864 42.5841 62.8206 42.4982 62.8206 42.3812V41.003H63.2126C63.3743 41.003 63.5111 41.046 63.6295 41.1383C63.7413 41.2306 63.8412 41.3476 63.9281 41.4888C64.009 41.6304 64.0899 41.784 64.1647 41.938C64.2207 42.055 64.2831 42.1655 64.339 42.2702C64.4573 42.4731 64.5817 42.6147 64.7125 42.6883C64.8433 42.7623 65.0111 42.7929 65.2103 42.787C65.3346 42.787 65.4714 42.7747 65.6207 42.7564V42.7194C65.4839 42.7194 65.3531 42.6824 65.2288 42.6147C65.1044 42.5471 64.9986 42.4607 64.9117 42.3566C64.7684 42.1784 64.6506 41.9814 64.5507 41.7721C64.4698 41.6062 64.3829 41.4587 64.2896 41.3229C64.1962 41.1876 64.0844 41.0889 63.9475 41.0277C63.8417 40.9724 63.7234 40.9418 63.5806 40.9295C64.0284 40.8865 64.3585 40.7572 64.5762 40.5296C64.7939 40.308 64.9062 40.0498 64.9122 39.7606C64.9182 39.533 64.8623 39.3301 64.738 39.1455C64.6136 38.9673 64.4269 38.8192 64.1777 38.7086C63.9226 38.5981 63.6115 38.5428 63.244 38.5428H61.9992V38.5857C62.1111 38.5857 62.211 38.6104 62.2918 38.6598C62.3727 38.715 62.4162 38.8014 62.4162 38.9243L62.4157 38.9239ZM67.2694 38.721H68.6635C68.7819 38.721 68.8812 38.758 68.9621 38.838C69.043 38.9179 69.1054 39.0162 69.1613 39.1208C69.2113 39.2314 69.2482 39.336 69.2797 39.4348L69.3171 39.4283C69.2797 39.2807 69.2362 39.1208 69.1928 38.9421C69.1493 38.7639 69.1179 38.6222 69.0869 38.5112C68.9811 38.5359 68.8692 38.5482 68.7509 38.5418H66.4486V38.5847C66.5604 38.5847 66.6603 38.6094 66.7412 38.6588C66.8221 38.7141 66.8595 38.8004 66.8595 38.9234V42.3748C66.8595 42.4977 66.8221 42.5841 66.7412 42.633C66.6603 42.6883 66.5609 42.713 66.4486 42.7189V42.7559H68.8443C68.9561 42.7559 69.062 42.7683 69.1553 42.7865C69.1928 42.6448 69.2302 42.5096 69.2612 42.3743L69.4105 41.7835L69.373 41.7775C69.3046 42.0298 69.2053 42.2203 69.062 42.362C68.9187 42.5037 68.7135 42.5772 68.4398 42.5772H67.2699V40.738H68.1847C68.2781 40.738 68.3465 40.775 68.3899 40.8426C68.4333 40.9102 68.4648 40.9902 68.4833 41.0825C68.5017 41.1748 68.5082 41.2548 68.5082 41.3224H68.5457V39.9753H68.5082C68.5082 40.0493 68.5017 40.1293 68.4833 40.2152C68.4648 40.3075 68.4333 40.3875 68.3899 40.4551C68.34 40.5227 68.2656 40.5597 68.1722 40.5597H67.2699V38.7205L67.2694 38.721Z" fill="#383E42"/>
<path d="M71.9829 42.7198V42.7568H73.2152V42.7198C73.1094 42.7133 73.01 42.6892 72.9291 42.6398C72.8482 42.5904 72.8048 42.5045 72.8048 42.3875V40.7818H73.5887C73.6821 40.7818 73.7505 40.8188 73.8004 40.8864C73.8438 40.954 73.8753 41.034 73.8938 41.1263C73.9122 41.2186 73.9187 41.2986 73.9187 41.3662H73.9562V40.0186H73.9187C73.9187 40.0927 73.9127 40.1726 73.8938 40.2585C73.8753 40.3508 73.8378 40.4308 73.7944 40.4984C73.751 40.566 73.6761 40.6031 73.5827 40.6031H72.8048V38.7268H73.9687C74.2423 38.7268 74.448 38.7944 74.5908 38.9361C74.7341 39.0777 74.8335 39.2747 74.9019 39.5205L74.9393 39.5141L74.6902 38.5116C74.5783 38.5362 74.46 38.5486 74.3357 38.5486C73.7944 38.5426 73.2591 38.5426 72.7179 38.5486H71.9834V38.5856C72.0953 38.592 72.1951 38.6162 72.276 38.6656C72.3569 38.7208 72.3943 38.8072 72.3943 38.9237V42.3752C72.3943 42.4981 72.3569 42.5845 72.276 42.6334C72.1951 42.6887 72.0958 42.7133 71.9834 42.7193L71.9829 42.7198ZM75.891 42.7198V42.7568H78.2432C78.3676 42.7509 78.4859 42.7632 78.5978 42.7874L78.8469 41.7843L78.8095 41.7784C78.7411 42.0306 78.6417 42.2212 78.4984 42.3629C78.3551 42.5045 78.1499 42.5781 77.8763 42.5781H76.7124V38.9173C76.7124 38.8003 76.7558 38.7144 76.8367 38.6591C76.9176 38.6098 77.0174 38.5851 77.1228 38.5851V38.5422H75.8905V38.5851C76.0023 38.5851 76.1022 38.6098 76.1831 38.6591C76.264 38.7144 76.3014 38.8008 76.3014 38.9237V42.3752C76.3014 42.4981 76.264 42.5845 76.1831 42.6334C76.1022 42.6887 76.0028 42.7133 75.8905 42.7193L75.891 42.7198ZM83.7691 40.7758C83.7506 41.188 83.6572 41.5326 83.4765 41.8095C83.2962 42.0864 83.0721 42.2957 82.7984 42.4246C82.4684 42.5786 82.0954 42.6215 81.691 42.5475C81.2865 42.4799 80.9255 42.2952 80.608 41.9936C80.2904 41.692 80.1042 41.2798 80.0477 40.7571C80.0168 40.3202 80.0977 39.914 80.2969 39.5452C80.4896 39.1824 80.8132 38.9301 81.2551 38.7885C81.7344 38.6656 82.1638 38.6779 82.5433 38.8255C82.9228 38.9795 83.2278 39.2253 83.452 39.5699C83.6697 39.9144 83.7756 40.3143 83.7696 40.7758H83.7691ZM82.0205 38.4933C81.4418 38.4933 80.944 38.6473 80.5271 38.9608C80.1102 39.2747 79.83 39.6681 79.6992 40.1479C79.5684 40.6277 79.6243 41.1387 79.8795 41.6738C80.0787 42.0553 80.3588 42.3441 80.7133 42.5351C81.0678 42.7257 81.4478 42.818 81.8647 42.8056C82.4 42.7874 82.8419 42.6516 83.1904 42.4058C83.5329 42.1659 83.7876 41.8584 83.9434 41.4891C84.0991 41.1199 84.1551 40.7388 84.1176 40.3508C84.0617 39.7787 83.844 39.3295 83.464 38.9914C83.0845 38.6591 82.5992 38.4933 82.0205 38.4933ZM85.0823 38.9178L86.6566 42.7632H86.8558L86.9866 42.4186L87.5718 40.9175L88.3248 42.7632H88.524L90.0115 38.9178C90.0424 38.8378 90.1173 38.7638 90.2292 38.6962C90.335 38.6345 90.4658 38.5974 90.6086 38.5856V38.5486H89.3579V38.5856C89.4263 38.5856 89.4947 38.5979 89.5756 38.6162C89.6505 38.6409 89.7124 38.6779 89.7683 38.7208C89.8182 38.7702 89.8367 38.8314 89.8182 38.9055L88.555 42.1782L87.796 40.3261L88.3438 38.9173C88.3747 38.8373 88.4496 38.7633 88.5615 38.6957C88.6673 38.634 88.7981 38.5969 88.9409 38.5851V38.5481H87.9139V38.5851C88.1131 38.5792 88.194 38.6898 88.1505 38.905L87.6962 40.0798L87.2168 38.905C87.1919 38.7944 87.2103 38.7139 87.2668 38.6587C87.3227 38.6093 87.4036 38.5846 87.4969 38.5846V38.5476H86.3455V38.5846C86.5448 38.5969 86.6816 38.7075 86.75 38.9168L87.4655 40.6702L86.8868 42.1773L85.5486 38.9045C85.5302 38.8304 85.5486 38.7692 85.5986 38.7199C85.6485 38.6769 85.7104 38.6399 85.7913 38.6152C85.8722 38.597 85.9406 38.5846 86.003 38.5846V38.5476H84.4906V38.5846C84.6024 38.591 84.7148 38.6216 84.8331 38.6769C84.9515 38.7322 85.0323 38.8122 85.0823 38.9168V38.9178ZM92.3817 38.7208H93.7757C93.8941 38.7208 93.9934 38.7579 94.0743 38.8378C94.1552 38.9178 94.2176 39.016 94.2736 39.1207C94.3235 39.2313 94.3604 39.3359 94.3919 39.4346L94.4293 39.4282C94.3919 39.2806 94.3484 39.1207 94.305 38.942C94.2616 38.7638 94.2301 38.6221 94.1992 38.5111C94.0933 38.5357 93.9815 38.5481 93.8631 38.5417H91.5608V38.5846C91.6727 38.5846 91.7725 38.6093 91.8534 38.6587C91.9343 38.7139 91.9717 38.8003 91.9717 38.9232V42.3747C91.9717 42.4976 91.9343 42.584 91.8534 42.6329C91.7725 42.6882 91.6732 42.7128 91.5608 42.7188V42.7558H93.9565C94.0683 42.7558 94.1742 42.7681 94.2676 42.7864C94.305 42.6447 94.3425 42.5095 94.3734 42.3742L94.5227 41.7833L94.4853 41.7774C94.4169 42.0297 94.3175 42.2202 94.1742 42.3619C94.0309 42.5035 93.8257 42.5771 93.5521 42.5771H92.3822V40.7378H93.2969C93.3903 40.7378 93.4587 40.7749 93.5021 40.8425C93.5456 40.9101 93.577 40.9901 93.5955 41.0824C93.614 41.1747 93.6205 41.2547 93.6205 41.3223H93.6579V39.9752H93.6205C93.6205 40.0492 93.614 40.1292 93.5955 40.2151C93.577 40.3074 93.5456 40.3873 93.5021 40.455C93.4522 40.5226 93.3778 40.5596 93.2844 40.5596H92.3822V38.7204L92.3817 38.7208ZM96.3582 38.7208H96.8125C97.2419 38.7391 97.5595 38.8314 97.7587 39.0101C97.958 39.1883 98.0513 39.4346 98.0388 39.7481C98.0328 40.0556 97.9395 40.3079 97.7527 40.5048C97.566 40.7077 97.2549 40.8124 96.813 40.8247H96.3587V38.7208H96.3582ZM95.9537 38.9237V42.3752C95.9537 42.4981 95.9103 42.5845 95.8294 42.6334C95.7485 42.6887 95.6491 42.7133 95.5368 42.7193V42.7563H96.7691V42.7193C96.6632 42.7128 96.5639 42.6887 96.483 42.6334C96.4021 42.584 96.3587 42.4981 96.3587 42.3811V41.0029H96.7506C96.9124 41.0029 97.0492 41.0459 97.1675 41.1382C97.2794 41.2305 97.3793 41.3475 97.4661 41.4886C97.547 41.6303 97.6279 41.7838 97.7028 41.9378C97.7587 42.0548 97.8211 42.1654 97.8771 42.2701C97.9954 42.4729 98.1197 42.6146 98.2505 42.6882C98.3814 42.7622 98.5491 42.7928 98.7484 42.7869C98.8727 42.7869 99.0095 42.7745 99.1588 42.7563V42.7193C99.022 42.7193 98.8912 42.6822 98.7668 42.6146C98.6425 42.547 98.5366 42.4606 98.4498 42.3564C98.3065 42.1782 98.1886 41.9813 98.0888 41.772C98.0079 41.6061 97.921 41.4585 97.8276 41.3228C97.7343 41.1875 97.6224 41.0888 97.4856 41.0276C97.3798 40.9723 97.2614 40.9417 97.1186 40.9294C97.5665 40.8864 97.8965 40.7571 98.1142 40.5295C98.3319 40.3079 98.4443 40.0497 98.4503 39.7604C98.4563 39.5329 98.4003 39.33 98.276 39.1454C98.1517 38.9672 97.9649 38.8191 97.7158 38.7085C97.4606 38.5979 97.1496 38.5426 96.7821 38.5426H95.5373V38.5856C95.6491 38.5856 95.749 38.6103 95.8299 38.6596C95.9108 38.7149 95.9542 38.8013 95.9542 38.9242L95.9537 38.9237ZM100.117 42.5228C100.285 42.6398 100.484 42.7133 100.708 42.7504C100.932 42.7933 101.138 42.8121 101.318 42.8056C101.66 42.8121 101.952 42.7257 102.202 42.5534C102.451 42.3875 102.588 42.1106 102.612 41.735C102.612 41.3721 102.488 41.0829 102.245 40.8677C101.996 40.6584 101.716 40.4802 101.405 40.3326C101.163 40.2096 100.957 40.0803 100.777 39.9451C100.596 39.8098 100.496 39.6434 100.478 39.447C100.471 39.2071 100.553 39.0101 100.727 38.8684C100.895 38.7268 101.113 38.6591 101.374 38.6656C101.604 38.672 101.798 38.7455 101.965 38.8872C102.133 39.0289 102.246 39.2811 102.308 39.6439L102.482 39.638L102.37 38.7949C102.19 38.6409 101.959 38.5426 101.68 38.512C101.4 38.4814 101.139 38.4874 100.908 38.5426C100.504 38.6473 100.249 38.8625 100.13 39.1888C100.012 39.5146 100.093 39.835 100.367 40.1425C100.566 40.3271 100.821 40.4994 101.127 40.6529C101.438 40.8069 101.705 40.9851 101.935 41.188C102.166 41.3909 102.253 41.6496 102.197 41.9694C102.147 42.1787 102.035 42.3387 101.861 42.4557C101.686 42.5727 101.494 42.6279 101.275 42.6344C101.02 42.6403 100.79 42.5544 100.585 42.388C100.373 42.2222 100.236 41.9571 100.168 41.5943H99.9936L100.118 42.5233L100.117 42.5228Z" fill="#383E42"/>
<path d="M48.3368 40.4558H46.0555L45.9316 40.6493H48.213L48.3368 40.4558Z" fill="#383E42"/>
</svg>
