<svg width="120" height="45" viewBox="0 0 120 45" fill="none" xmlns="http://www.w3.org/2000/svg">
<path d="M40.1567 0.913621V0.605957H33.1528L21.3755 31.124L8.50882 0.605957H1.4528V0.913621C2.23107 0.965156 3.00934 1.17027 3.78761 1.52895C4.51375 1.93917 4.87708 2.60603 4.87708 3.478L3.68387 32.8679C3.52801 33.7399 3.11307 34.4068 2.43854 34.7654C1.7124 35.1246 0.882002 35.3298 0 35.3808V35.6884H8.56043V35.3808C7.78216 35.3298 7.05602 35.1241 6.32936 34.7139C5.55109 34.3547 5.18776 33.7394 5.18776 32.8674L6.32936 4.19589L19.611 35.6884H21.2191L33.3592 4.19589C33.5151 7.52969 33.6704 11.4278 33.8263 15.7877C33.9821 20.1475 34.1375 24.0456 34.2933 27.3794C34.4487 30.7132 34.5008 32.5597 34.5008 32.8674C34.5008 33.7394 34.1375 34.3547 33.4113 34.7139C32.633 35.1241 31.8548 35.3292 31.0765 35.3808V35.6884H41.6084V35.3808C40.7264 35.3298 39.8965 35.1241 39.1699 34.7654C38.4437 34.4062 38.0283 33.7394 37.9251 32.8679C37.7692 29.5341 37.6139 25.636 37.458 21.2246C37.3027 16.8137 37.1468 12.8641 36.9909 9.37619C36.8351 5.93983 36.7313 3.93924 36.7313 3.478C36.7313 2.60603 37.0947 1.93917 37.8729 1.52895C38.5991 1.16975 39.3773 0.964641 40.1556 0.913621H40.1567Z" fill="#C6C7C7"/>
<path d="M43.3614 0.768903V0.461239H36.3575L24.5802 30.9793L11.7135 0.461239H4.65751V0.768903C5.43578 0.820438 6.21405 1.02555 6.99232 1.38423C7.71846 1.79445 8.08179 2.46131 8.08179 3.33329L6.88858 32.7232C6.73272 33.5952 6.31778 34.262 5.64325 34.6207C4.91711 34.9799 4.08671 35.185 3.20471 35.2361V35.5437H11.7651V35.2361C10.9869 35.185 10.2607 34.9794 9.53407 34.5692C8.7558 34.21 8.39247 33.5947 8.39247 32.7227L9.53407 4.05117L22.8157 35.5437H24.4239L36.5639 4.05117C36.7198 7.38497 36.8751 11.2831 37.031 15.6429C37.1868 20.0028 37.3422 23.9009 37.498 27.2347C37.6534 30.5685 37.7055 32.415 37.7055 32.7227C37.7055 33.5947 37.3422 34.21 36.616 34.5692C35.8378 34.9794 35.0595 35.1845 34.2812 35.2361V35.5437H44.8131V35.2361C43.9311 35.185 43.1012 34.9794 42.3746 34.6207C41.6484 34.2615 41.233 33.5947 41.1298 32.7232C40.9739 29.3894 40.8186 25.4913 40.6627 21.0799C40.5074 16.669 40.3515 12.7194 40.1956 9.23147C40.0398 5.79512 39.9361 3.79453 39.9361 3.33329C39.9361 2.46131 40.2994 1.79445 41.0776 1.38423C41.8038 1.02503 42.5821 0.819923 43.3603 0.768903H43.3614ZM71.8826 19.0288C71.7267 22.4652 70.9484 25.3377 69.444 27.6455C67.9396 29.9537 66.0719 31.6977 63.7892 32.7747C61.0395 34.0569 57.9269 34.4161 54.5543 33.8008C51.1821 33.2365 48.1728 31.6977 45.5268 29.1848C42.8807 26.6714 41.3242 23.2351 40.8577 18.8752C40.5981 15.2338 41.2726 11.8484 42.9329 8.77075C44.541 5.74461 47.2392 3.64147 50.9225 2.46183C54.9176 1.43628 58.4972 1.53884 61.6619 2.76949C64.8266 4.05169 67.3688 6.1033 69.2366 8.97586C71.0527 11.8484 71.9342 15.1822 71.8826 19.0288ZM57.304 0C52.479 0 48.3286 1.28219 44.8527 3.89811C41.3769 6.51403 39.0421 9.79681 37.9526 13.7975C36.8631 17.7981 37.3302 22.0555 39.457 26.5179C41.1173 29.6981 43.4521 32.1084 46.4093 33.6988C49.3665 35.2886 52.5312 36.058 56.0071 35.9555C60.4687 35.8019 64.1525 34.6733 67.0576 32.6217C69.9111 30.6211 72.0384 28.0567 73.3354 24.9796C74.6323 21.9019 75.0994 18.7222 74.7882 15.4909C74.3211 10.7208 72.5055 6.97681 69.3408 4.15527C66.1761 1.38578 62.1295 0.00051535 57.3045 0.00051535L57.304 0ZM77.0573 1.89752H80.8444C84.424 2.0511 87.07 2.82051 88.7303 4.30833C90.3906 5.79563 91.1688 7.84724 91.0651 10.4632C91.0135 13.0275 90.2352 15.1307 88.6787 16.7721C87.1221 18.4645 84.5283 19.3365 80.8444 19.439H77.0573V1.89752ZM73.6852 3.58993V32.364C73.6852 33.3901 73.3218 34.108 72.6473 34.5182C71.9728 34.9799 71.1429 35.185 70.2087 35.2361V35.5437H80.4811V35.2361C79.5991 35.185 78.7692 34.9794 78.0946 34.5182C77.4201 34.108 77.0573 33.3896 77.0573 32.415V20.9258H80.3257C81.6748 20.9258 82.8159 21.285 83.8016 22.0544C84.7352 22.8238 85.5656 23.7984 86.2917 24.978C86.9663 26.1576 87.6408 27.4398 88.2632 28.722C88.7303 29.6966 89.2489 30.6195 89.716 31.4915C90.7018 33.1839 91.7391 34.3641 92.8291 34.9794C93.9186 35.5947 95.3192 35.8514 96.9795 35.7999C98.0174 35.7999 99.1584 35.6973 100.404 35.5432V35.2355C99.2622 35.2355 98.1727 34.9279 97.1354 34.3636C96.0975 33.7993 95.216 33.0814 94.4894 32.2094C93.2962 30.7221 92.3104 29.0807 91.48 27.3368C90.8055 25.952 90.0793 24.7208 89.3011 23.5922C88.5228 22.4636 87.5892 21.6432 86.4476 21.1304C85.5656 20.6686 84.5799 20.4125 83.3867 20.31C87.1221 19.9508 89.8719 18.8737 91.6875 16.9762C93.5031 15.1297 94.4372 12.9755 94.4888 10.5647C94.5404 8.66716 94.0739 6.97424 93.036 5.4354C91.9982 3.9481 90.4422 2.71693 88.367 1.79394C86.2396 0.870942 83.6457 0.409188 80.5848 0.409188H70.2087V0.768388C71.1424 0.768388 71.9728 0.973497 72.6473 1.38372C73.3218 1.84547 73.6852 2.56335 73.6852 3.58942V3.58993ZM101.169 1.89752H112.79C113.776 1.89752 114.606 2.20518 115.281 2.87205C115.955 3.53891 116.474 4.35935 116.941 5.23132C117.356 6.15483 117.667 7.0268 117.927 7.84724L118.238 7.79622C117.927 6.56505 117.563 5.23132 117.2 3.74402C116.837 2.25672 116.577 1.07708 116.318 0.153574C115.436 0.358684 114.502 0.461239 113.517 0.410219H94.3205V0.769418C95.2541 0.769418 96.0845 0.974528 96.759 1.38475C97.4335 1.8465 97.7447 2.56438 97.7447 3.59045V32.3645C97.7447 33.3906 97.4335 34.1085 96.759 34.5187C96.0845 34.9804 95.2546 35.1856 94.3205 35.2366V35.5442H114.295C115.228 35.5442 116.11 35.6468 116.889 35.8009C117.2 34.6212 117.511 33.4926 117.771 32.3645L119.016 27.4403L118.705 27.3893C118.134 29.4925 117.304 31.0823 116.111 32.262C114.918 33.4416 113.206 34.0569 110.923 34.0569H101.169V18.7211H108.795C109.574 18.7211 110.144 19.0288 110.507 19.5931C110.871 20.1574 111.13 20.8243 111.285 21.5937C111.441 22.3631 111.493 23.03 111.493 23.5938H111.804V12.3612H111.493C111.493 12.9765 111.441 13.6434 111.285 14.3618C111.13 15.1312 110.871 15.7981 110.507 16.3619C110.092 16.9262 109.469 17.2338 108.692 17.2338H101.169V1.89804V1.89752Z" fill="#383E42"/>
<path fill-rule="evenodd" clip-rule="evenodd" d="M72.0283 18.196C72.3651 13.9083 71.3032 12.4726 69.1681 8.84965C69.0946 8.72493 68.9799 8.61104 68.9043 8.47705C69.8166 11.4341 70.7627 12.438 69.8457 15.5724C69.6591 16.2104 69.3797 16.8268 69.0081 17.421L69.0065 17.4199C68.8605 17.6163 68.7323 17.8059 68.6171 17.9915C67.6074 19.3494 66.0936 20.5842 64.0867 21.687C63.2928 21.3459 61.1889 20.7058 59.3514 22.4668C58.9156 22.8842 57.9841 23.684 56.8936 23.3568C56.8936 23.3568 60.9491 26.4571 64.267 22.0452C65.7641 21.2237 66.9964 20.328 67.9603 19.3613C67.7513 19.9694 67.6501 20.546 67.5464 21.1392C67.5427 21.1619 67.5386 21.1851 67.5349 21.2078C62.883 24.1133 65.6547 28.334 65.6547 28.334C65.4144 27.2327 66.2974 26.3803 66.754 25.9856C68.7041 24.2993 68.1959 22.1421 67.9191 21.3551C67.928 21.3057 67.9363 21.2562 67.9452 21.2072C68.1151 20.2332 68.2788 19.3056 68.9591 18.2064C69.5497 17.4076 69.9766 16.5665 70.2346 15.6842C70.7079 14.0655 70.5291 12.605 70.2054 11.5078C71.6489 13.9882 71.8396 16.3124 71.6369 18.0744C70.9618 18.5511 69.2645 20.0322 69.8843 22.5363C70.0287 23.1187 70.256 24.3179 69.4193 25.0827C69.4193 25.0827 74.1317 23.2068 72.0289 18.1971L72.0283 18.196Z" fill="#C6C7C7"/>
<path fill-rule="evenodd" clip-rule="evenodd" d="M60.8592 4.24949C61.2835 4.6865 61.6484 5.18639 61.9538 5.74812L61.9523 5.74864C62.043 5.95323 62.1368 6.14082 62.2327 6.31656C62.8593 7.72913 63.1559 9.48029 63.122 11.5572C62.4855 12.023 61.0093 13.3789 61.5801 15.6243C61.7156 16.1567 61.9304 17.2528 61.1688 17.9573C61.1688 17.9573 65.51 16.1984 63.4911 11.5788C63.5177 10.0302 63.3639 8.65419 63.0298 7.45703C63.4218 7.89868 63.8377 8.24191 64.2657 8.5944C64.2824 8.6078 64.2991 8.62172 64.3152 8.63512C64.5159 13.6098 69.1683 13.3696 69.1683 13.3696C68.1758 13.0542 67.8964 11.972 67.7885 11.434C67.3293 9.13398 65.3667 8.54493 64.6087 8.40166C64.5733 8.37229 64.5378 8.34291 64.5024 8.31354C63.7997 7.73428 63.1309 7.18183 62.5606 6.14598C62.1905 5.31729 61.7114 4.59786 61.1219 3.99181C60.0402 2.87968 58.7876 2.35145 57.7596 2.10305C60.4088 2.10717 62.3599 3.02141 63.6798 3.98666C63.7533 4.7334 64.1635 6.7412 66.4551 7.40188C66.9878 7.55546 68.0533 7.926 68.2837 8.93144C68.2837 8.93144 68.9358 4.38038 63.9571 3.73568C60.3963 1.09193 57.7195 1.45268 53.7119 1.91907C56.2683 2.1685 58.8903 2.22107 60.8586 4.24949H60.8592Z" fill="#C6C7C7"/>
<path fill-rule="evenodd" clip-rule="evenodd" d="M70.5884 25.3698C70.5738 25.3997 69.0871 28.3578 65.6722 29.1421C64.993 29.2983 64.2871 29.3596 63.5542 29.3282L63.5547 29.3261C63.3004 29.2947 63.0616 29.2766 62.8328 29.2668C61.0776 29.0499 59.1797 28.3196 57.1529 27.0812C57.0633 26.1974 56.5842 23.9891 54.0404 23.2357C53.4373 23.0574 52.2326 22.6276 51.9803 21.4861C51.9803 21.4861 51.1942 26.687 56.9152 27.4245C58.4269 28.3495 59.8719 28.9989 61.2465 29.3725C60.5835 29.4931 60.0038 29.6946 59.408 29.9023C59.3856 29.91 59.3621 29.9182 59.3392 29.926C54.3213 27.2322 51.8578 31.8518 51.8578 31.8518C52.745 31.0788 53.9731 31.438 54.5658 31.6472C57.0987 32.5393 58.8179 30.9912 59.3986 30.345C59.4481 30.328 59.4976 30.3104 59.5472 30.2934C60.5246 29.9528 61.4561 29.6297 62.8051 29.6817C63.1435 29.7229 63.4766 29.7461 63.8055 29.7508C64.4805 29.76 65.1347 29.692 65.7671 29.5467C67.4904 29.1509 68.7378 28.2516 69.5786 27.4054C68.0372 29.9543 66.0048 31.302 64.2877 32.0131C63.5089 31.6498 61.2929 30.8804 59.3121 32.7037C58.8513 33.1278 57.8681 33.9385 56.7437 33.5767C56.7437 33.5767 60.8384 36.9538 64.3632 32.5337C67.0843 31.3628 70.8125 27.6724 70.9115 24.5761L70.5884 25.3708V25.3698Z" fill="#C6C7C7"/>
<path d="M13.7096 40.2834V40.2447H12.8322L11.3575 44.0666L9.74628 40.2447H8.86271V40.2834C8.96019 40.2901 9.05767 40.3153 9.15515 40.3607C9.24585 40.4122 9.29172 40.4957 9.29172 40.605L9.14212 44.2851C9.12283 44.3943 9.0707 44.4778 8.98626 44.5227C8.89555 44.5675 8.7913 44.5933 8.68079 44.6V44.6386H9.75253V44.6C9.65505 44.5933 9.56435 44.568 9.47313 44.5165C9.37565 44.4716 9.3303 44.3943 9.3303 44.2851L9.47313 40.6946L11.1365 44.6381H11.3377L12.8578 40.6946C12.8771 41.1121 12.8969 41.6001 12.9162 42.1464C12.9355 42.6921 12.9553 43.1807 12.9746 43.5981C12.9938 44.0156 13.0006 44.2469 13.0006 44.2856C13.0006 44.3948 12.9553 44.4716 12.864 44.517C12.7666 44.5685 12.6691 44.5943 12.5716 44.6005V44.6391H13.8904V44.6005C13.7799 44.5938 13.6762 44.5685 13.585 44.5232C13.4937 44.4783 13.4421 44.3948 13.4291 44.2856C13.4098 43.8682 13.39 43.3801 13.3707 42.8277C13.3514 42.2752 13.3316 41.7805 13.3123 41.344C13.2931 40.9137 13.28 40.6632 13.28 40.6055C13.28 40.4962 13.3254 40.4127 13.4229 40.3612C13.5136 40.3164 13.611 40.2906 13.7085 40.2839L13.7096 40.2834ZM18.9072 42.57C18.8879 43.0003 18.7905 43.36 18.6017 43.6491C18.4136 43.9382 18.1795 44.1568 17.8939 44.2913C17.5493 44.4521 17.1599 44.4969 16.7377 44.4196C16.3154 44.349 15.9385 44.1562 15.607 43.8414C15.2755 43.5265 15.081 43.0962 15.0221 42.5504C14.9898 42.0943 15.0743 41.6702 15.2823 41.2852C15.4835 40.9064 15.8213 40.6431 16.2826 40.4952C16.783 40.3669 17.2313 40.3798 17.6275 40.5338C18.0237 40.6946 18.3422 40.9513 18.5762 41.311C18.8035 41.6707 18.914 42.0881 18.9077 42.57H18.9072ZM17.0817 40.187C16.4775 40.187 15.9578 40.3478 15.5226 40.6751C15.0873 41.0028 14.7949 41.4135 14.6583 41.9145C14.5217 42.4154 14.5801 42.9488 14.8465 43.5074C15.0545 43.9058 15.3469 44.2073 15.717 44.4067C16.0871 44.6056 16.4838 44.702 16.9191 44.6891C17.4779 44.67 17.9392 44.5283 18.3031 44.2717C18.6607 44.0212 18.9265 43.7002 19.0891 43.3147C19.2518 42.9292 19.3102 42.5313 19.2711 42.1263C19.2127 41.529 18.9854 41.06 18.5887 40.707C18.1925 40.3602 17.6859 40.187 17.0817 40.187ZM21.181 40.4246H21.6554C22.1037 40.4437 22.4352 40.54 22.6432 40.7266C22.8512 40.9126 22.9487 41.1698 22.9357 41.497C22.9294 41.8181 22.8319 42.0814 22.637 42.2871C22.442 42.4989 22.1172 42.6081 21.6559 42.621H21.1816V40.4246H21.181ZM20.7588 40.6364V44.2397C20.7588 44.3681 20.7134 44.4582 20.629 44.5093C20.5446 44.567 20.4408 44.5927 20.3235 44.5989V44.6376H21.61V44.5989C21.4995 44.5922 21.3958 44.567 21.3114 44.5093C21.2269 44.4577 21.1816 44.3681 21.1816 44.2459V42.8071H21.5908C21.7597 42.8071 21.9025 42.8519 22.026 42.9483C22.1428 43.0446 22.247 43.1668 22.3377 43.3142C22.4222 43.4621 22.5066 43.6223 22.5848 43.7831C22.6432 43.9053 22.7084 44.0207 22.7668 44.13C22.8903 44.3418 23.0201 44.4897 23.1567 44.5665C23.2933 44.6438 23.4684 44.6757 23.6764 44.6695C23.8062 44.6695 23.949 44.6566 24.1049 44.6376V44.5989C23.9621 44.5989 23.8255 44.5603 23.6957 44.4897C23.5659 44.4191 23.4554 44.3289 23.3647 44.2201C23.2151 44.0341 23.092 43.8285 22.9878 43.61C22.9033 43.4368 22.8126 43.2827 22.7152 43.141C22.6177 42.9998 22.5009 42.8967 22.3581 42.8328C22.2476 42.7751 22.124 42.7431 21.9749 42.7303C22.4425 42.6854 22.7871 42.5504 23.0144 42.3128C23.2416 42.0814 23.3589 41.8119 23.3652 41.5099C23.3714 41.2723 23.3131 41.0605 23.1833 40.8678C23.0535 40.6817 22.8585 40.5271 22.5984 40.4117C22.332 40.2963 22.0073 40.2385 21.6236 40.2385H20.3241V40.2834C20.4408 40.2834 20.5451 40.3091 20.6295 40.3607C20.714 40.4184 20.7593 40.5086 20.7593 40.6369L20.7588 40.6364ZM25.8261 40.4246H27.2815C27.4051 40.4246 27.5088 40.4632 27.5933 40.5467C27.6777 40.6302 27.7429 40.7328 27.8013 40.842C27.8534 40.9575 27.892 41.0667 27.9248 41.1698L27.9639 41.1631C27.9248 41.009 27.8795 40.842 27.8341 40.6555C27.7888 40.4694 27.7559 40.3215 27.7236 40.2056C27.6131 40.2313 27.4963 40.2442 27.3728 40.2375H24.9692V40.2824C25.0859 40.2824 25.1902 40.3081 25.2746 40.3597C25.3591 40.4174 25.3982 40.5076 25.3982 40.6359V44.2392C25.3982 44.3675 25.3591 44.4577 25.2746 44.5087C25.1902 44.5665 25.0864 44.5922 24.9692 44.5984V44.6371H27.4702C27.587 44.6371 27.6975 44.6499 27.795 44.669C27.8341 44.5211 27.8732 44.3799 27.9055 44.2387L28.0614 43.6218L28.0223 43.6156C27.9509 43.879 27.8471 44.0779 27.6975 44.2258C27.5479 44.3737 27.3337 44.4505 27.048 44.4505H25.8267V42.5303H26.7816C26.8791 42.5303 26.9505 42.569 26.9959 42.6396C27.0412 42.7102 27.0741 42.7937 27.0934 42.89C27.1127 42.9864 27.1194 43.0699 27.1194 43.1405H27.1585V41.7341H27.1194C27.1194 41.8114 27.1127 41.8949 27.0934 41.9846C27.0741 42.0809 27.0412 42.1644 26.9959 42.235C26.9438 42.3056 26.8661 42.3443 26.7686 42.3443H25.8267V40.4241L25.8261 40.4246Z" fill="#383E42"/>
<path d="M30.7468 44.5994V44.6381H33.2025C33.3323 44.6319 33.4559 44.6448 33.5726 44.67L33.8328 43.6229L33.7937 43.6167C33.7223 43.88 33.6185 44.0789 33.4689 44.2268C33.3193 44.3748 33.1051 44.4515 32.8194 44.4515H31.6043V40.6297C31.6043 40.5076 31.6497 40.4179 31.7341 40.3602C31.8185 40.3086 31.9228 40.2829 32.0328 40.2829V40.238H30.7463V40.2829C30.863 40.2829 30.9673 40.3086 31.0517 40.3602C31.1362 40.4179 31.1753 40.5081 31.1753 40.6364V44.2397C31.1753 44.3681 31.1362 44.4582 31.0517 44.5093C30.9673 44.567 30.8636 44.5927 30.7463 44.5989L30.7468 44.5994ZM38.9715 42.57C38.9522 43.0003 38.8548 43.36 38.6661 43.6491C38.4779 43.9382 38.2438 44.1568 37.9582 44.2913C37.6136 44.4521 37.2242 44.4969 36.802 44.4196C36.3797 44.349 36.0028 44.1562 35.6713 43.8414C35.3398 43.5265 35.1453 43.0962 35.0864 42.5504C35.0541 42.0943 35.1386 41.6702 35.3466 41.2852C35.5478 40.9064 35.8856 40.6431 36.3469 40.4952C36.8473 40.3669 37.2956 40.3798 37.6918 40.5338C38.088 40.6946 38.4065 40.9513 38.6405 41.311C38.8678 41.6707 38.9783 42.0881 38.972 42.57H38.9715ZM37.146 40.187C36.5418 40.187 36.0221 40.3478 35.5869 40.6751C35.1516 41.0028 34.8592 41.4135 34.7226 41.9145C34.586 42.4154 34.6444 42.9488 34.9108 43.5074C35.1188 43.9058 35.4112 44.2073 35.7813 44.4067C36.1514 44.6056 36.5481 44.702 36.9834 44.6891C37.5422 44.67 38.0035 44.5283 38.3674 44.2717C38.725 44.0212 38.9908 43.7002 39.1534 43.3147C39.3161 42.9292 39.3745 42.5313 39.3354 42.1263C39.277 41.529 39.0497 41.06 38.653 40.707C38.2569 40.3602 37.7502 40.187 37.146 40.187ZM40.466 40.6689L42.0643 44.6381H42.2785C42.4542 44.2078 42.6231 43.7708 42.792 43.3343C43.1496 42.4417 43.4999 41.5553 43.8507 40.6622C43.896 40.54 43.9805 40.4504 44.091 40.3859C44.2015 40.3282 44.3183 40.2896 44.4486 40.2829V40.2442H43.1819V40.2829C43.247 40.2829 43.3247 40.2957 43.4092 40.3215C43.4936 40.3473 43.5588 40.3859 43.6109 40.437C43.663 40.4947 43.6761 40.5591 43.65 40.6426L42.3051 44.0465L40.9279 40.6426C40.9018 40.5591 40.9148 40.4947 40.967 40.437C41.0123 40.3854 41.0775 40.3473 41.1619 40.3215C41.2464 40.2957 41.3178 40.2829 41.3892 40.2829V40.2442H39.8561L39.8499 40.2829C39.9865 40.2896 40.11 40.3277 40.22 40.3921C40.3305 40.4565 40.4149 40.5462 40.4671 40.6684L40.466 40.6689ZM46.3002 40.4246H47.7556C47.8791 40.4246 47.9829 40.4632 48.0673 40.5467C48.1517 40.6302 48.2169 40.7328 48.2753 40.842C48.3274 40.9575 48.366 41.0667 48.3988 41.1698L48.4379 41.1631C48.3988 41.009 48.3535 40.842 48.3081 40.6555C48.2628 40.4694 48.2299 40.3215 48.1976 40.2056C48.0871 40.2313 47.9703 40.2442 47.8468 40.2375H45.4432V40.2824C45.56 40.2824 45.6642 40.3081 45.7487 40.3597C45.8331 40.4174 45.8722 40.5076 45.8722 40.6359V44.2392C45.8722 44.3675 45.8331 44.4577 45.7487 44.5087C45.6642 44.5665 45.5605 44.5922 45.4432 44.5984V44.6371H47.9443C48.061 44.6371 48.1716 44.6499 48.269 44.669C48.3081 44.5211 48.3472 44.3799 48.3796 44.2387L48.5354 43.6218L48.4963 43.6156C48.4249 43.879 48.3212 44.0779 48.1716 44.2258C48.022 44.3737 47.8077 44.4505 47.522 44.4505H46.3007V42.5303H47.2557C47.3532 42.5303 47.4246 42.569 47.4699 42.6396C47.5153 42.7102 47.5481 42.7937 47.5674 42.89C47.5867 42.9864 47.5935 43.0699 47.5935 43.1405H47.6326V41.7341H47.5935C47.5935 41.8114 47.5867 41.8949 47.5674 41.9846C47.5481 42.0809 47.5153 42.1644 47.4699 42.235C47.4178 42.3056 47.3401 42.3443 47.2426 42.3443H46.3007V40.4241L46.3002 40.4246Z" fill="#383E42"/>
<path d="M61.3176 40.2834V40.2447H60.4403L58.9656 44.0666L57.3543 40.2447H56.4708V40.2834C56.5682 40.2901 56.6657 40.3153 56.7632 40.3607C56.8539 40.4122 56.8998 40.4957 56.8998 40.605L56.7502 44.2851C56.7309 44.3943 56.6787 44.4778 56.5943 44.5227C56.5036 44.5675 56.3993 44.5933 56.2888 44.6V44.6386H57.3606V44.6C57.2631 44.5933 57.1724 44.568 57.0812 44.5165C56.9837 44.4716 56.9383 44.3943 56.9383 44.2851L57.0812 40.6946L58.7446 44.6381H58.9458L60.4658 40.6946C60.4851 41.1121 60.5049 41.6001 60.5242 42.1464C60.5435 42.6921 60.5633 43.1807 60.5826 43.5981C60.6019 44.0156 60.6086 44.2469 60.6086 44.2856C60.6086 44.3948 60.5633 44.4716 60.4721 44.517C60.3746 44.5685 60.2771 44.5943 60.1796 44.6005V44.6391H61.4985V44.6005C61.388 44.5938 61.2842 44.5685 61.193 44.5232C61.1018 44.4783 61.0502 44.3948 61.0371 44.2856C61.0179 43.8682 60.998 43.3801 60.9788 42.8277C60.9595 42.2752 60.9397 41.7805 60.9204 41.344C60.9011 40.9137 60.8881 40.6632 60.8881 40.6055C60.8881 40.4962 60.9334 40.4127 61.0309 40.3612C61.1216 40.3164 61.2191 40.2906 61.3165 40.2839L61.3176 40.2834ZM66.5153 42.57C66.496 43.0003 66.3985 43.36 66.2098 43.6491C66.0216 43.9382 65.7876 44.1568 65.5019 44.2913C65.1573 44.4521 64.7679 44.4969 64.3457 44.4196C63.9235 44.349 63.5466 44.1562 63.215 43.8414C62.8835 43.5265 62.6891 43.0962 62.6302 42.5504C62.5978 42.0943 62.6823 41.6702 62.8903 41.2852C63.0915 40.9064 63.4293 40.6431 63.8906 40.4952C64.391 40.3669 64.8393 40.3798 65.2355 40.5338C65.6317 40.6946 65.9502 40.9513 66.1842 41.311C66.4115 41.6707 66.522 42.0881 66.5158 42.57H66.5153ZM64.6897 40.187C64.0856 40.187 63.5659 40.3478 63.1306 40.6751C62.6953 41.0028 62.4029 41.4135 62.2663 41.9145C62.1297 42.4154 62.1881 42.9488 62.4545 43.5074C62.6625 43.9058 62.9549 44.2073 63.325 44.4067C63.6951 44.6056 64.0918 44.702 64.5271 44.6891C65.0859 44.67 65.5472 44.5283 65.9111 44.2717C66.2687 44.0212 66.5345 43.7002 66.6972 43.3147C66.8598 42.9292 66.9182 42.5313 66.8791 42.1263C66.8207 41.529 66.5934 41.06 66.1968 40.707C65.8006 40.3602 65.2939 40.187 64.6897 40.187ZM68.7891 40.4246H69.2634C69.7117 40.4437 70.0433 40.54 70.2513 40.7266C70.4592 40.9126 70.5567 41.1698 70.5437 41.497C70.5374 41.8181 70.44 42.0814 70.245 42.2871C70.05 42.4989 69.7253 42.6081 69.264 42.621H68.7896V40.4246H68.7891ZM68.3668 40.6364V44.2397C68.3668 44.3681 68.3215 44.4582 68.237 44.5093C68.1526 44.567 68.0489 44.5927 67.9316 44.5989V44.6376H69.2181V44.5989C69.1076 44.5922 69.0038 44.567 68.9194 44.5093C68.8349 44.4577 68.7896 44.3681 68.7896 44.2459V42.8071H69.1988C69.3677 42.8071 69.5105 42.8519 69.6341 42.9483C69.7508 43.0446 69.8551 43.1668 69.9458 43.3142C70.0302 43.4621 70.1147 43.6223 70.1929 43.7831C70.2513 43.9053 70.3164 44.0207 70.3748 44.13C70.4983 44.3418 70.6281 44.4897 70.7647 44.5665C70.9013 44.6438 71.0764 44.6757 71.2844 44.6695C71.4142 44.6695 71.5571 44.6566 71.7129 44.6376V44.5989C71.5701 44.5989 71.4335 44.5603 71.3037 44.4897C71.1739 44.4191 71.0634 44.3289 70.9727 44.2201C70.8231 44.0341 70.7001 43.8285 70.5958 43.61C70.5114 43.4368 70.4207 43.2827 70.3232 43.141C70.2257 42.9998 70.1089 42.8967 69.9661 42.8328C69.8556 42.7751 69.7321 42.7431 69.583 42.7303C70.0506 42.6854 70.3951 42.5504 70.6224 42.3128C70.8497 42.0814 70.967 41.8119 70.9732 41.5099C70.9795 41.2723 70.9211 41.0605 70.7913 40.8678C70.6615 40.6817 70.4665 40.5271 70.2064 40.4117C69.9401 40.2963 69.6153 40.2385 69.2316 40.2385H67.9321V40.2834C68.0489 40.2834 68.1531 40.3091 68.2376 40.3607C68.322 40.4184 68.3674 40.5086 68.3674 40.6369L68.3668 40.6364ZM73.4342 40.4246H74.8896C75.0131 40.4246 75.1169 40.4632 75.2013 40.5467C75.2858 40.6302 75.3509 40.7328 75.4093 40.842C75.4614 40.9575 75.5 41.0667 75.5328 41.1698L75.5719 41.1631C75.5328 41.009 75.4875 40.842 75.4421 40.6555C75.3968 40.4694 75.3639 40.3215 75.3316 40.2056C75.2211 40.2313 75.1044 40.2442 74.9808 40.2375H72.5772V40.2824C72.694 40.2824 72.7982 40.3081 72.8827 40.3597C72.9671 40.4174 73.0062 40.5076 73.0062 40.6359V44.2392C73.0062 44.3675 72.9671 44.4577 72.8827 44.5087C72.7982 44.5665 72.6945 44.5922 72.5772 44.5984V44.6371H75.0783C75.1951 44.6371 75.3056 44.6499 75.403 44.669C75.4421 44.5211 75.4812 44.3799 75.5136 44.2387L75.6694 43.6218L75.6303 43.6156C75.5589 43.879 75.4552 44.0779 75.3056 44.2258C75.156 44.3737 74.9417 44.4505 74.6561 44.4505H73.4347V42.5303H74.3897C74.4872 42.5303 74.5586 42.569 74.6039 42.6396C74.6493 42.7102 74.6821 42.7937 74.7014 42.89C74.7207 42.9864 74.7275 43.0699 74.7275 43.1405H74.7666V41.7341H74.7275C74.7275 41.8114 74.7207 41.8949 74.7014 41.9846C74.6821 42.0809 74.6493 42.1644 74.6039 42.235C74.5518 42.3056 74.4741 42.3443 74.3767 42.3443H73.4347V40.4241L73.4342 40.4246Z" fill="#383E42"/>
<path d="M78.3553 44.5994V44.6381H79.6418V44.5994C79.5313 44.5927 79.4276 44.5675 79.3431 44.516C79.2587 44.4644 79.2133 44.3748 79.2133 44.2526V42.5762H80.0317C80.1292 42.5762 80.2006 42.6148 80.2527 42.6854C80.2981 42.756 80.3309 42.8395 80.3502 42.9359C80.3695 43.0323 80.3763 43.1157 80.3763 43.1864H80.4154V41.7794H80.3763C80.3763 41.8567 80.37 41.9402 80.3502 42.0299C80.3309 42.1263 80.2918 42.2098 80.2465 42.2804C80.2011 42.351 80.1229 42.3896 80.0255 42.3896H79.2133V40.4308H80.4284C80.7141 40.4308 80.9288 40.5014 81.0779 40.6493C81.2275 40.7972 81.3313 41.0028 81.4027 41.2595L81.4418 41.2528L81.1817 40.2061C81.0649 40.2318 80.9413 40.2447 80.8115 40.2447C80.2465 40.2385 79.6877 40.2385 79.1226 40.2447H78.3558V40.2834C78.4726 40.2901 78.5768 40.3153 78.6613 40.3669C78.7457 40.4246 78.7848 40.5148 78.7848 40.6364V44.2397C78.7848 44.3681 78.7457 44.4582 78.6613 44.5093C78.5768 44.567 78.4731 44.5927 78.3558 44.5989L78.3553 44.5994ZM82.4353 44.5994V44.6381H84.8911C85.0209 44.6319 85.1444 44.6448 85.2612 44.67L85.5213 43.6229L85.4822 43.6167C85.4108 43.88 85.307 44.0789 85.1574 44.2268C85.0078 44.3748 84.7936 44.4515 84.5079 44.4515H83.2928V40.6297C83.2928 40.5076 83.3382 40.4179 83.4226 40.3602C83.5071 40.3086 83.6113 40.2829 83.7213 40.2829V40.238H82.4348V40.2829C82.5516 40.2829 82.6558 40.3086 82.7403 40.3602C82.8247 40.4179 82.8638 40.5081 82.8638 40.6364V44.2397C82.8638 44.3681 82.8247 44.4582 82.7403 44.5093C82.6558 44.567 82.5521 44.5927 82.4348 44.5989L82.4353 44.5994ZM90.6601 42.57C90.6408 43.0003 90.5433 43.36 90.3546 43.6491C90.1664 43.9382 89.9323 44.1568 89.6467 44.2913C89.3021 44.4521 88.9127 44.4969 88.4905 44.4196C88.0683 44.349 87.6914 44.1562 87.3598 43.8414C87.0283 43.5265 86.8339 43.0962 86.775 42.5504C86.7427 42.0943 86.8271 41.6702 87.0351 41.2852C87.2363 40.9064 87.5741 40.6431 88.0354 40.4952C88.5358 40.3669 88.9841 40.3798 89.3803 40.5338C89.7765 40.6946 90.095 40.9513 90.329 41.311C90.5563 41.6707 90.6668 42.0881 90.6606 42.57H90.6601ZM88.8345 40.187C88.2304 40.187 87.7107 40.3478 87.2754 40.6751C86.8401 41.0028 86.5477 41.4135 86.4111 41.9145C86.2745 42.4154 86.3329 42.9488 86.5993 43.5074C86.8073 43.9058 87.0997 44.2073 87.4698 44.4067C87.8399 44.6056 88.2366 44.702 88.6719 44.6891C89.2307 44.67 89.692 44.5283 90.0559 44.2717C90.4135 44.0212 90.6793 43.7002 90.842 43.3147C91.0046 42.9292 91.063 42.5313 91.0239 42.1263C90.9655 41.529 90.7382 41.06 90.3415 40.707C89.9454 40.3602 89.4387 40.187 88.8345 40.187ZM92.031 40.6302L93.6746 44.6448H93.8826L94.0192 44.2851L94.6301 42.7179L95.4162 44.6448H95.6242L97.1771 40.6302C97.2094 40.5467 97.2876 40.4694 97.4044 40.3988C97.5149 40.3344 97.6514 40.2958 97.8005 40.2834V40.2447H96.4947V40.2834C96.5661 40.2834 96.6375 40.2963 96.722 40.3153C96.8002 40.3411 96.8648 40.3798 96.9232 40.4246C96.9753 40.4761 96.9946 40.54 96.9753 40.6173L95.6565 44.0341L94.8642 42.1005L95.436 40.6297C95.4683 40.5462 95.5465 40.4689 95.6633 40.3983C95.7738 40.3339 95.9104 40.2952 96.0595 40.2829V40.2442H94.9872V40.2829C95.1952 40.2767 95.2796 40.3921 95.2343 40.6168L94.7599 41.8433L94.2595 40.6168C94.2334 40.5014 94.2527 40.4174 94.3116 40.3597C94.37 40.3081 94.4544 40.2824 94.5519 40.2824V40.2437H93.3498V40.2824C93.5578 40.2952 93.7007 40.4107 93.7721 40.6292L94.5191 42.4597L93.9149 44.0331L92.5179 40.6163C92.4986 40.539 92.5179 40.4751 92.57 40.4236C92.6221 40.3787 92.6868 40.3401 92.7712 40.3143C92.8557 40.2952 92.9271 40.2824 92.9923 40.2824V40.2437H91.4133V40.2824C91.5301 40.289 91.6474 40.321 91.7709 40.3787C91.8944 40.4364 91.9789 40.5199 92.031 40.6292V40.6302ZM99.6516 40.4246H101.107C101.231 40.4246 101.334 40.4632 101.419 40.5467C101.503 40.6302 101.568 40.7328 101.627 40.842C101.679 40.9575 101.717 41.0667 101.75 41.1698L101.789 41.1631C101.75 41.009 101.705 40.842 101.66 40.6555C101.614 40.4694 101.581 40.3215 101.549 40.2056C101.439 40.2313 101.322 40.2442 101.198 40.2375H98.7946V40.2824C98.9114 40.2824 99.0156 40.3081 99.1001 40.3597C99.1845 40.4174 99.2236 40.5076 99.2236 40.6359V44.2392C99.2236 44.3675 99.1845 44.4577 99.1001 44.5087C99.0156 44.5665 98.9119 44.5922 98.7946 44.5984V44.6371H101.296C101.412 44.6371 101.523 44.6499 101.62 44.669C101.66 44.5211 101.699 44.3799 101.731 44.2387L101.887 43.6218L101.848 43.6156C101.776 43.879 101.673 44.0779 101.523 44.2258C101.373 44.3737 101.159 44.4505 100.873 44.4505H99.6521V42.5303H100.607C100.705 42.5303 100.776 42.569 100.821 42.6396C100.867 42.7102 100.9 42.7937 100.919 42.89C100.938 42.9864 100.945 43.0699 100.945 43.1405H100.984V41.7341H100.945C100.945 41.8114 100.938 41.8949 100.919 41.9846C100.9 42.0809 100.867 42.1644 100.821 42.235C100.769 42.3056 100.692 42.3443 100.594 42.3443H99.6521V40.4241L99.6516 40.4246ZM103.803 40.4246H104.277C104.726 40.4437 105.057 40.54 105.265 40.7266C105.473 40.9126 105.571 41.1698 105.558 41.497C105.551 41.8181 105.454 42.0814 105.259 42.2871C105.064 42.4989 104.739 42.6081 104.278 42.621H103.804V40.4246H103.803ZM103.381 40.6364V44.2397C103.381 44.3681 103.335 44.4582 103.251 44.5093C103.167 44.567 103.063 44.5927 102.946 44.5989V44.6376H104.232V44.5989C104.122 44.5922 104.018 44.567 103.933 44.5093C103.849 44.4577 103.804 44.3681 103.804 44.2459V42.8071H104.213C104.382 42.8071 104.524 42.8519 104.648 42.9483C104.765 43.0446 104.869 43.1668 104.96 43.3142C105.044 43.4621 105.129 43.6223 105.207 43.7831C105.265 43.9053 105.33 44.0207 105.389 44.13C105.512 44.3418 105.642 44.4897 105.779 44.5665C105.915 44.6438 106.09 44.6757 106.298 44.6695C106.428 44.6695 106.571 44.6566 106.727 44.6376V44.5989C106.584 44.5989 106.447 44.5603 106.318 44.4897C106.188 44.4191 106.077 44.3289 105.987 44.2201C105.837 44.0341 105.714 43.8285 105.61 43.61C105.525 43.4368 105.435 43.2827 105.337 43.141C105.24 42.9998 105.123 42.8967 104.98 42.8328C104.87 42.7751 104.746 42.7431 104.597 42.7303C105.065 42.6854 105.409 42.5504 105.636 42.3128C105.864 42.0814 105.981 41.8119 105.987 41.5099C105.993 41.2723 105.935 41.0605 105.805 40.8678C105.675 40.6817 105.481 40.5271 105.22 40.4117C104.954 40.2963 104.629 40.2385 104.246 40.2385H102.946V40.2834C103.063 40.2834 103.167 40.3091 103.252 40.3607C103.336 40.4184 103.381 40.5086 103.381 40.6369L103.381 40.6364ZM107.727 44.3938C107.903 44.516 108.11 44.5927 108.344 44.6314C108.578 44.6762 108.793 44.6958 108.981 44.6891C109.338 44.6958 109.643 44.6056 109.904 44.4258C110.164 44.2526 110.307 43.9635 110.332 43.5713C110.332 43.1925 110.202 42.8905 109.949 42.6658C109.689 42.4473 109.397 42.2613 109.072 42.1072C108.819 41.9789 108.605 41.8439 108.416 41.7027C108.228 41.5615 108.123 41.3878 108.104 41.1827C108.097 40.9322 108.182 40.7266 108.364 40.5787C108.539 40.4308 108.767 40.3602 109.04 40.3669C109.28 40.3736 109.482 40.4504 109.657 40.5983C109.832 40.7462 109.949 41.0095 110.015 41.3883L110.197 41.3821L110.08 40.5019C109.892 40.3411 109.651 40.2385 109.359 40.2066C109.066 40.1746 108.794 40.1808 108.553 40.2385C108.131 40.3478 107.865 40.5725 107.741 40.9131C107.618 41.2533 107.702 41.5877 107.988 41.9088C108.196 42.1015 108.463 42.2814 108.781 42.4417C109.106 42.6025 109.385 42.7885 109.626 43.0003C109.866 43.2121 109.957 43.4822 109.898 43.8161C109.846 44.0346 109.729 44.2016 109.548 44.3237C109.366 44.4459 109.164 44.5036 108.937 44.5103C108.67 44.5165 108.43 44.4268 108.216 44.2531C107.995 44.08 107.852 43.8032 107.78 43.4244H107.598L107.728 44.3943L107.727 44.3938Z" fill="#383E42"/>
<path d="M53.6684 42.2361H51.2867L51.1574 42.4381H53.5391L53.6684 42.2361Z" fill="#383E42"/>
</svg>
