<svg width="120" height="45" fill="none" xmlns="http://www.w3.org/2000/svg"><path d="M40.157.914V.606h-7.004L21.376 31.124 8.508.606H1.453v.308a6.595 6.595 0 012.335.615c.726.41 1.09 1.077 1.09 1.949l-1.194 29.39c-.156.872-.57 1.539-1.245 1.897-.727.36-1.557.565-2.439.616v.307h8.56v-.307a5.102 5.102 0 01-2.23-.667c-.779-.36-1.142-.975-1.142-1.847L6.329 4.196l13.282 31.492h1.608L33.36 4.196c.156 3.334.311 7.232.467 11.592.156 4.36.312 8.258.467 11.591.156 3.334.208 5.18.208 5.488 0 .872-.363 1.488-1.09 1.847a5.76 5.76 0 01-2.335.667v.307h10.532v-.307c-.882-.051-1.711-.257-2.438-.616-.726-.359-1.142-1.026-1.245-1.897-.156-3.334-.311-7.232-.467-11.643-.155-4.411-.311-8.36-.467-11.849-.156-3.436-.26-5.437-.26-5.898 0-.872.364-1.539 1.142-1.95a6.046 6.046 0 012.283-.614z" fill="#C6C7C7"/><path d="M43.361.769V.46h-7.003L24.58 30.98 11.714.461H4.657V.77a6.595 6.595 0 012.334.615c.726.41 1.09 1.077 1.09 1.95l-1.193 29.39c-.156.871-.571 1.538-1.246 1.897-.726.359-1.556.564-2.438.615v.308h8.56v-.308a5.103 5.103 0 01-2.23-.667c-.78-.359-1.143-.974-1.143-1.846L9.534 4.05l13.282 31.493h1.608L36.564 4.05c.156 3.334.311 7.232.467 11.592.156 4.36.311 8.258.467 11.592.155 3.334.208 5.18.208 5.488 0 .872-.364 1.487-1.09 1.846a5.759 5.759 0 01-2.335.667v.308h10.532v-.308c-.882-.051-1.712-.257-2.438-.615-.727-.36-1.142-1.026-1.245-1.898-.156-3.334-.311-7.232-.467-11.643-.156-4.411-.311-8.36-.467-11.849-.156-3.436-.26-5.436-.26-5.898 0-.872.363-1.539 1.142-1.949A6.047 6.047 0 0143.36.77h.001zm28.522 18.26c-.156 3.436-.935 6.309-2.439 8.616-1.504 2.309-3.372 4.053-5.655 5.13-2.75 1.282-5.862 1.641-9.235 1.026-3.372-.565-6.381-2.103-9.027-4.616-2.646-2.514-4.203-5.95-4.67-10.31-.259-3.641.416-7.027 2.076-10.104 1.608-3.026 4.306-5.13 7.99-6.31 3.995-1.025 7.574-.922 10.739.308 3.165 1.283 5.707 3.334 7.575 6.207 1.816 2.872 2.697 6.206 2.646 10.053zM57.304 0c-4.825 0-8.975 1.282-12.451 3.898-3.476 2.616-5.81 5.899-6.9 9.9-1.09 4-.623 8.257 1.504 12.72 1.66 3.18 3.995 5.59 6.952 7.18 2.958 1.59 6.122 2.36 9.598 2.258 4.462-.154 8.146-1.283 11.05-3.334 2.854-2 4.981-4.565 6.278-7.642a19.346 19.346 0 001.453-9.49c-.467-4.77-2.282-8.513-5.447-11.335C66.176 1.385 62.13.001 57.305.001L57.303 0zm19.753 1.898h3.787c3.58.153 6.226.923 7.886 2.41 1.66 1.488 2.439 3.54 2.335 6.155-.052 2.565-.83 4.668-2.386 6.31-1.557 1.692-4.15 2.564-7.835 2.666h-3.787V1.898zM73.685 3.59v28.774c0 1.026-.363 1.744-1.038 2.154-.674.462-1.504.667-2.438.718v.308H80.48v-.308c-.882-.051-1.712-.257-2.386-.718-.675-.41-1.038-1.128-1.038-2.103v-11.49h3.269c1.349 0 2.49.36 3.476 1.13.933.769 1.764 1.743 2.49 2.923a63.505 63.505 0 011.971 3.744c.467.975.986 1.897 1.453 2.77.986 1.692 2.023 2.872 3.113 3.487 1.09.616 2.49.872 4.15.82 1.038 0 2.18-.102 3.425-.256v-.307c-1.142 0-2.231-.308-3.269-.872a8.998 8.998 0 01-2.646-2.155c-1.193-1.487-2.179-3.128-3.009-4.872a28.653 28.653 0 00-2.179-3.745c-.778-1.128-1.712-1.949-2.853-2.462-.882-.461-1.868-.717-3.061-.82 3.735-.36 6.485-1.436 8.3-3.334 1.816-1.846 2.75-4 2.802-6.411.051-1.898-.415-3.59-1.453-5.13-1.038-1.487-2.594-2.718-4.669-3.641C86.24.87 83.646.409 80.585.409H70.209v.36c.933 0 1.764.204 2.438.615.675.461 1.038 1.18 1.038 2.205zm27.484-1.692h11.621c.986 0 1.816.307 2.491.974.674.667 1.193 1.487 1.66 2.36.415.923.726 1.795.986 2.615l.311-.05c-.311-1.232-.675-2.566-1.038-4.053s-.623-2.667-.882-3.59c-.882.205-1.816.307-2.801.256H94.32v.36c.934 0 1.765.205 2.439.615.674.462.986 1.18.986 2.205v28.774c0 1.027-.312 1.745-.986 2.155-.674.461-1.504.667-2.439.718v.307h19.975c.933 0 1.815.103 2.594.257.311-1.18.622-2.308.882-3.437l1.245-4.924-.311-.05c-.571 2.102-1.401 3.692-2.594 4.872-1.193 1.18-2.905 1.795-5.188 1.795h-9.754V18.72h7.626c.779 0 1.349.308 1.712.872.364.564.623 1.231.778 2 .156.77.208 1.437.208 2h.311v-11.23h-.311c0 .615-.052 1.282-.208 2-.155.77-.414 1.437-.778 2-.415.565-1.038.873-1.815.873h-7.523V1.898z" fill="#383E42"/><path fill-rule="evenodd" clip-rule="evenodd" d="M72.028 18.196c.337-4.288-.725-5.723-2.86-9.346-.073-.125-.188-.239-.264-.373.913 2.957 1.859 3.961.942 7.095a7.392 7.392 0 01-.838 1.849l-.001-.001a8.227 8.227 0 00-.39.571c-1.01 1.358-2.523 2.593-4.53 3.696-.794-.341-2.898-.981-4.736.78-.435.417-1.367 1.217-2.457.89 0 0 4.055 3.1 7.373-1.312 1.497-.821 2.73-1.717 3.693-2.684-.209.608-.31 1.185-.414 1.778l-.011.069c-4.652 2.905-1.88 7.126-1.88 7.126-.24-1.101.642-1.954 1.099-2.348 1.95-1.687 1.442-3.844 1.165-4.63l.026-.149c.17-.974.334-1.901 1.014-3a8.02 8.02 0 001.276-2.523c.473-1.618.294-3.079-.03-4.176 1.444 2.48 1.635 4.804 1.432 6.566-.675.477-2.373 1.958-1.753 4.462.145.583.372 1.782-.465 2.547 0 0 4.713-1.876 2.61-6.886v-.001z" fill="#C6C7C7"/><path fill-rule="evenodd" clip-rule="evenodd" d="M60.86 4.25a6.8 6.8 0 011.094 1.498h-.002c.091.205.185.393.28.569.627 1.412.924 3.163.89 5.24-.636.466-2.113 1.822-1.542 4.067.136.533.35 1.629-.411 2.333 0 0 4.341-1.759 2.322-6.378.027-1.549-.127-2.925-.461-4.122.392.442.808.785 1.236 1.137l.05.041c.2 4.975 4.852 4.735 4.852 4.735-.992-.316-1.272-1.398-1.38-1.936-.459-2.3-2.421-2.89-3.18-3.032-.035-.03-.07-.06-.106-.088-.702-.58-1.371-1.132-1.941-2.168a7.362 7.362 0 00-1.44-2.154c-1.08-1.112-2.333-1.64-3.361-1.889 2.649.004 4.6.918 5.92 1.884.073.746.483 2.754 2.775 3.415.533.153 1.598.524 1.829 1.53 0 0 .652-4.552-4.327-5.196-3.56-2.644-6.238-2.283-10.245-1.817 2.556.25 5.178.302 7.147 2.33zm9.728 21.12c-.014.03-1.5 2.988-4.916 3.772a7.9 7.9 0 01-2.118.186v-.002a8.993 8.993 0 00-.721-.06c-1.755-.216-3.653-.946-5.68-2.185-.09-.884-.569-3.092-3.113-3.845-.603-.179-1.807-.608-2.06-1.75 0 0-.786 5.201 4.935 5.938 1.512.925 2.957 1.575 4.331 1.948-.663.121-1.242.323-1.838.53l-.069.024c-5.018-2.694-7.481 1.926-7.481 1.926.887-.773 2.115-.414 2.708-.205 2.533.892 4.252-.656 4.833-1.302l.148-.052c.978-.34 1.91-.663 3.258-.611a9.38 9.38 0 001 .069 8.23 8.23 0 001.962-.204c1.723-.396 2.97-1.295 3.812-2.142-1.542 2.55-3.574 3.897-5.291 4.608-.78-.363-2.995-1.133-4.976.69-.46.425-1.444 1.235-2.568.874 0 0 4.094 3.377 7.62-1.043 2.72-1.171 6.448-4.862 6.547-7.958l-.323.795v-.001z" fill="#C6C7C7"/><path d="M13.71 40.283v-.038h-.878l-1.475 3.822-1.61-3.822h-.884v.038a.822.822 0 01.292.078c.09.051.137.135.137.244l-.15 3.68c-.02.11-.071.193-.156.238a.8.8 0 01-.305.077v.039h1.072V44.6a.642.642 0 01-.28-.084c-.097-.044-.143-.122-.143-.23l.143-3.591 1.663 3.943h.202l1.52-3.943c.02.417.039.905.058 1.451.02.546.04 1.035.059 1.452.019.418.026.649.026.688 0 .109-.046.186-.137.231a.715.715 0 01-.292.083v.04h1.318v-.04a.792.792 0 01-.305-.077.286.286 0 01-.156-.237c-.02-.418-.039-.906-.058-1.458-.02-.553-.04-1.047-.059-1.484-.019-.43-.032-.68-.032-.739 0-.109.045-.192.143-.244a.764.764 0 01.286-.077zm5.197 2.287c-.02.43-.116.79-.305 1.08a1.723 1.723 0 01-.708.641 1.884 1.884 0 01-1.156.129 2.125 2.125 0 01-1.131-.579c-.332-.315-.526-.745-.585-1.29a2.28 2.28 0 01.26-1.266c.201-.379.54-.642 1-.79.501-.128.95-.115 1.346.039.396.16.714.417.948.777.227.36.338.777.332 1.259zm-1.825-2.383c-.605 0-1.124.16-1.56.488-.435.328-.727.739-.864 1.24-.136.5-.078 1.034.189 1.592.208.399.5.7.87.9.37.199.767.295 1.202.282.559-.019 1.02-.16 1.384-.417.358-.25.623-.572.786-.957.163-.386.221-.784.182-1.189-.058-.597-.286-1.066-.682-1.419-.396-.347-.903-.52-1.507-.52zm4.099.238h.474c.449.019.78.115.988.302.208.186.306.443.293.77-.007.321-.104.584-.299.79-.195.212-.52.321-.981.334h-.474v-2.196h-.001zm-.422.211v3.604c0 .128-.046.218-.13.27a.586.586 0 01-.306.089v.039h1.287v-.04a.585.585 0 01-.299-.089c-.084-.051-.13-.14-.13-.263v-1.439h.41a.68.68 0 01.435.141c.117.097.221.219.312.366.084.148.169.308.247.47.058.121.123.237.182.346.123.212.253.36.39.436.136.078.311.11.52.103.13 0 .272-.012.428-.031v-.04a.849.849 0 01-.41-.108c-.13-.07-.24-.161-.33-.27a3.088 3.088 0 01-.377-.61 3.637 3.637 0 00-.273-.469.858.858 0 00-.357-.308.99.99 0 00-.383-.103c.467-.045.812-.18 1.04-.417.227-.232.344-.501.35-.803a1.064 1.064 0 00-.182-.642 1.37 1.37 0 00-.585-.456c-.266-.116-.59-.173-.974-.173h-1.3v.044a.58.58 0 01.305.078c.085.057.13.148.13.276zm5.067-.211h1.456a.42.42 0 01.311.122c.085.083.15.186.208.295.052.116.091.225.124.328l.039-.007c-.04-.154-.084-.321-.13-.507-.045-.187-.078-.334-.11-.45-.11.025-.228.038-.351.031h-2.404v.045a.58.58 0 01.306.078c.084.057.123.148.123.276v3.603c0 .129-.039.219-.123.27a.585.585 0 01-.306.09v.038h2.501a1.7 1.7 0 01.325.032c.04-.148.078-.29.11-.43l.156-.617-.039-.006c-.071.263-.175.462-.324.61-.15.148-.364.224-.65.224h-1.221v-1.92h.955c.097 0 .169.039.214.11.045.07.078.154.097.25.02.096.026.18.026.25h.04v-1.406h-.04c0 .077-.006.16-.026.25a.722.722 0 01-.097.251.27.27 0 01-.227.11h-.942v-1.92zm4.921 4.175v.038h2.456c.13-.006.253.007.37.032l.26-1.047-.04-.006c-.07.263-.175.462-.324.61-.15.148-.364.225-.65.225h-1.215V40.63c0-.122.046-.212.13-.27a.573.573 0 01.299-.077v-.045h-1.287v.045a.58.58 0 01.306.077c.084.058.123.148.123.276v3.604c0 .128-.039.218-.123.27a.586.586 0 01-.306.089zm8.224-2.03c-.019.43-.116.79-.305 1.08a1.723 1.723 0 01-.708.641 1.883 1.883 0 01-1.156.129 2.122 2.122 0 01-1.13-.579c-.332-.315-.527-.745-.586-1.29-.032-.457.053-.88.26-1.266.202-.379.54-.642 1-.79.501-.128.95-.115 1.346.039.396.16.715.417.949.777.227.36.337.777.331 1.259zm-1.825-2.383c-.604 0-1.124.16-1.56.488-.434.328-.727.739-.863 1.24-.137.5-.079 1.034.188 1.592.208.399.5.7.87.9.37.199.767.295 1.202.282.56-.019 1.02-.16 1.384-.417a2.2 2.2 0 00.786-.957c.163-.386.221-.784.182-1.189-.058-.597-.285-1.066-.682-1.419-.396-.347-.903-.52-1.507-.52zm3.32.482l1.598 3.97h.215c.175-.431.344-.868.513-1.305.358-.892.708-1.779 1.059-2.672a.53.53 0 01.24-.276.857.857 0 01.358-.103v-.039h-1.267v.039a.82.82 0 01.227.038.48.48 0 01.202.116c.052.058.065.122.039.206l-1.345 3.404-1.377-3.404c-.026-.084-.013-.148.039-.206a.412.412 0 01.195-.115.764.764 0 01.227-.04v-.038h-1.533l-.006.039a.8.8 0 01.37.11c.11.063.195.153.247.275h-.001zm5.834-.244h1.456a.42.42 0 01.311.122c.085.083.15.186.208.295.052.116.091.225.124.328l.039-.007c-.04-.154-.085-.321-.13-.507-.045-.187-.078-.334-.11-.45-.11.025-.228.038-.351.031h-2.404v.045a.58.58 0 01.306.078c.084.057.123.148.123.276v3.603c0 .129-.039.219-.123.27a.585.585 0 01-.306.09v.038h2.501a1.7 1.7 0 01.325.032c.04-.148.078-.29.11-.43l.156-.617-.039-.006c-.071.263-.175.462-.324.61-.15.148-.364.224-.65.224h-1.221v-1.92h.955c.097 0 .169.039.214.11a.72.72 0 01.097.25c.02.096.026.18.026.25h.04v-1.406h-.04c0 .077-.006.16-.026.25a.72.72 0 01-.097.251.27.27 0 01-.227.11H46.3v-1.92zm15.018-.142v-.038h-.878l-1.474 3.822-1.612-3.822h-.883v.038a.822.822 0 01.292.078c.09.051.137.135.137.244l-.15 3.68c-.02.11-.071.193-.156.238a.8.8 0 01-.305.077v.039h1.072V44.6a.642.642 0 01-.28-.084c-.097-.044-.143-.122-.143-.23l.143-3.591 1.664 3.943h.2l1.52-3.943c.02.417.04.905.06 1.451.019.546.038 1.035.058 1.452.019.418.026.649.026.688 0 .109-.046.186-.137.231a.716.716 0 01-.292.083v.04h1.319v-.04a.793.793 0 01-.306-.077.286.286 0 01-.156-.237c-.02-.418-.039-.906-.058-1.458-.02-.553-.04-1.047-.059-1.484-.019-.43-.032-.68-.032-.739 0-.109.045-.192.143-.244a.765.765 0 01.285-.077h.002zm5.197 2.287c-.019.43-.117.79-.305 1.08a1.723 1.723 0 01-.708.641 1.884 1.884 0 01-1.156.129 2.125 2.125 0 01-1.131-.579c-.332-.315-.526-.745-.585-1.29a2.28 2.28 0 01.26-1.266c.202-.379.54-.642 1-.79.501-.128.95-.115 1.346.039.396.16.714.417.948.777.228.36.338.777.332 1.259zm-1.825-2.383c-.604 0-1.124.16-1.56.488-.435.328-.727.739-.864 1.24-.136.5-.078 1.034.189 1.592.208.399.5.7.87.9.37.199.767.295 1.202.282.559-.019 1.02-.16 1.384-.417.358-.25.623-.572.786-.957a2.42 2.42 0 00.182-1.189c-.058-.597-.286-1.066-.682-1.419-.396-.347-.903-.52-1.507-.52zm4.1.238h.473c.449.019.78.115.988.302.208.186.306.443.293.77-.007.321-.104.584-.299.79-.195.212-.52.321-.981.334h-.474v-2.196zm-.423.211v3.604c0 .128-.046.218-.13.27a.586.586 0 01-.305.089v.039h1.286v-.04a.586.586 0 01-.299-.089c-.084-.051-.13-.14-.13-.263v-1.439h.41a.68.68 0 01.435.141c.117.097.221.219.312.366.084.148.169.308.247.47.058.121.123.237.182.346.123.212.253.36.39.436.136.078.311.11.52.103.13 0 .272-.012.428-.031v-.04a.849.849 0 01-.41-.108c-.13-.07-.24-.161-.33-.27a3.092 3.092 0 01-.377-.61 3.614 3.614 0 00-.273-.469.858.858 0 00-.357-.308.99.99 0 00-.383-.103c.468-.045.812-.18 1.04-.417.227-.232.344-.501.35-.803a1.064 1.064 0 00-.182-.642 1.37 1.37 0 00-.585-.456c-.266-.116-.59-.173-.974-.173h-1.3v.044a.58.58 0 01.306.078c.084.057.13.148.13.276h-.001zm5.067-.211h1.456a.42.42 0 01.311.122c.085.083.15.186.208.295.052.116.091.225.124.328l.039-.007c-.04-.154-.085-.321-.13-.507-.045-.187-.078-.334-.11-.45-.11.025-.228.038-.351.031h-2.404v.045a.58.58 0 01.306.078c.084.057.123.148.123.276v3.603c0 .129-.039.219-.123.27a.585.585 0 01-.306.09v.038h2.501c.117 0 .228.013.325.032.04-.148.078-.29.11-.43l.156-.617-.039-.006c-.071.263-.175.462-.324.61-.15.148-.364.224-.65.224h-1.221v-1.92h.955c.097 0 .169.039.214.11a.72.72 0 01.097.25c.02.096.027.18.027.25h.039v-1.406h-.04c0 .077-.006.16-.026.25a.72.72 0 01-.097.251.27.27 0 01-.227.11h-.942v-1.92zm4.921 4.175v.038h1.287V44.6a.648.648 0 01-.299-.083c-.084-.052-.13-.141-.13-.263v-1.677h.819c.097 0 .169.039.22.11a.72.72 0 01.098.25c.02.096.026.18.026.25h.04V41.78h-.04c0 .078-.006.161-.026.25a.728.728 0 01-.103.251.252.252 0 01-.222.11h-.812v-1.96h1.215c.286 0 .5.071.65.22.15.147.253.353.325.61l.039-.007-.26-1.047a1.72 1.72 0 01-.37.039 76.68 76.68 0 00-1.69 0h-.766v.038a.654.654 0 01.305.084c.085.058.124.148.124.27v3.603c0 .128-.04.218-.124.27a.586.586 0 01-.305.089zm4.08 0v.038h2.456c.13-.006.253.007.37.032l.26-1.047-.039-.006c-.071.263-.175.462-.325.61-.15.148-.363.225-.65.225h-1.214V40.63c0-.122.045-.212.13-.27a.573.573 0 01.298-.077v-.045h-1.286v.045c.117 0 .22.026.305.077.085.058.124.148.124.276v3.604c0 .128-.04.218-.124.27a.586.586 0 01-.305.089zm8.225-2.03c-.02.43-.117.79-.305 1.08a1.735 1.735 0 01-.708.641 1.887 1.887 0 01-1.157.129 2.125 2.125 0 01-1.13-.579c-.332-.315-.526-.745-.585-1.29a2.28 2.28 0 01.26-1.266c.201-.379.54-.642 1-.79.5-.128.95-.115 1.345.039.397.16.715.417.949.777.227.36.338.777.332 1.259zm-1.825-2.383c-.605 0-1.124.16-1.56.488-.435.328-.727.739-.864 1.24-.136.5-.078 1.034.188 1.592.208.399.5.7.87.9.37.199.768.295 1.203.282.559-.019 1.02-.16 1.384-.417.358-.25.623-.572.786-.957a2.42 2.42 0 00.182-1.189c-.058-.597-.286-1.066-.683-1.419-.396-.347-.902-.52-1.506-.52zm3.196.443l1.644 4.015h.208l.136-.36.611-1.567.786 1.927h.208l1.553-4.015c.032-.083.11-.16.227-.231a.944.944 0 01.397-.116v-.038h-1.306v.038c.071 0 .142.013.227.032a.673.673 0 01.201.11.19.19 0 01.052.192l-1.319 3.417-.792-1.934.572-1.47c.032-.084.11-.161.227-.232a.943.943 0 01.397-.115v-.039h-1.073v.039c.208-.006.293.11.247.334l-.474 1.226-.5-1.226c-.027-.116-.007-.2.052-.257a.358.358 0 01.24-.078v-.038H93.35v.038c.208.013.35.129.422.347l.747 1.83-.604 1.574-1.397-3.417a.19.19 0 01.052-.192.547.547 0 01.201-.11 1.04 1.04 0 01.221-.032v-.038h-1.579v.038a.968.968 0 01.358.097.517.517 0 01.26.25v.001zm7.62-.205h1.456c.124 0 .227.038.312.122.084.083.149.186.208.295.052.116.09.225.123.328l.039-.007c-.039-.154-.084-.321-.129-.507-.046-.187-.079-.334-.111-.45a1.24 1.24 0 01-.351.031h-2.403v.045c.116 0 .22.026.305.078.085.057.124.148.124.276v3.603c0 .129-.04.219-.124.27a.585.585 0 01-.305.09v.038h2.501c.116 0 .227.013.324.032.04-.148.079-.29.111-.43l.156-.617-.039-.006c-.072.263-.175.462-.325.61-.15.148-.364.224-.65.224h-1.22v-1.92h.954c.098 0 .169.039.214.11a.7.7 0 01.098.25c.019.096.026.18.026.25h.039v-1.406h-.039a1.2 1.2 0 01-.026.25.704.704 0 01-.098.251.269.269 0 01-.227.11h-.942v-1.92zm4.152 0h.474c.449.019.78.115.988.302.208.186.306.443.293.77-.007.321-.104.584-.299.79-.195.212-.52.321-.981.334h-.474v-2.196h-.001zm-.422.211v3.604c0 .128-.046.218-.13.27a.584.584 0 01-.305.089v.039h1.286v-.04a.59.59 0 01-.299-.089c-.084-.051-.129-.14-.129-.263v-1.439h.409a.68.68 0 01.435.141c.117.097.221.219.312.366.084.148.169.308.247.47.058.121.123.237.182.346.123.212.253.36.39.436.136.078.311.11.519.103.13 0 .273-.012.429-.031v-.04a.845.845 0 01-.409-.108 1.106 1.106 0 01-.331-.27 3.06 3.06 0 01-.377-.61 3.627 3.627 0 00-.273-.469.853.853 0 00-.357-.308.988.988 0 00-.383-.103c.468-.045.812-.18 1.039-.417.228-.232.345-.501.351-.803a1.064 1.064 0 00-.182-.642 1.366 1.366 0 00-.585-.456c-.266-.116-.591-.173-.974-.173h-1.3v.044a.58.58 0 01.306.078c.084.057.129.148.129.276zm4.346 3.758c.176.122.383.199.617.237.234.045.449.065.637.058a1.53 1.53 0 00.923-.263c.26-.173.403-.462.428-.855 0-.378-.13-.68-.383-.905a4.054 4.054 0 00-.877-.559 4.44 4.44 0 01-.656-.404c-.188-.142-.293-.315-.312-.52a.713.713 0 01.26-.604c.175-.148.403-.219.676-.212.24.007.442.083.617.231.175.148.292.412.358.79l.182-.006-.117-.88a1.302 1.302 0 00-.721-.295 2.378 2.378 0 00-.806.032c-.422.109-.688.334-.812.674-.123.34-.039.675.247.996.208.193.475.372.793.533.325.16.604.346.845.558.24.212.331.482.272.816a.818.818 0 01-.35.508 1.124 1.124 0 01-1.332-.07c-.221-.174-.364-.45-.436-.83h-.182l.13.97h-.001zm-54.059-2.158h-2.381l-.13.202h2.382l.13-.202z" fill="#383E42"/></svg>