<svg width="111" height="43" fill="none" xmlns="http://www.w3.org/2000/svg"><path d="M38.464.736V.442h-6.708L20.474 29.674 8.15.442H1.392v.294c.745.05 1.49.246 2.236.59.696.393 1.044 1.032 1.044 1.867L3.529 31.344c-.15.835-.547 1.474-1.193 1.818-.696.344-1.491.54-2.336.589v.295h8.2v-.295a4.886 4.886 0 01-2.137-.639c-.746-.344-1.094-.933-1.094-1.768L6.063 3.88l12.722 30.166h1.54L31.953 3.88c.15 3.194.298 6.928.448 11.104.149 4.176.298 7.91.447 11.103.149 3.193.199 4.962.199 5.257 0 .835-.348 1.424-1.044 1.768-.745.393-1.49.59-2.236.639v.295h10.088v-.295c-.845-.049-1.64-.246-2.336-.59-.695-.343-1.093-.982-1.192-1.817-.15-3.193-.298-6.927-.448-11.152-.148-4.226-.298-8.009-.447-11.35-.15-3.291-.249-5.207-.249-5.65 0-.834.348-1.473 1.094-1.866a5.791 5.791 0 012.186-.59h.001zm27.32 17.49c-.15 3.292-.895 6.044-2.336 8.254-1.441 2.211-3.23 3.882-5.417 4.913-2.634 1.229-5.615 1.573-8.846.983-3.23-.54-6.112-2.014-8.647-4.421-2.534-2.408-4.025-5.7-4.472-9.875-.249-3.488.398-6.73 1.988-9.679 1.54-2.898 4.125-4.913 7.653-6.043 3.826-.982 7.255-.884 10.286.295 3.032 1.228 5.467 3.193 7.256 5.945 1.74 2.751 2.584 5.944 2.534 9.629zM51.818 0c-4.621 0-8.597 1.228-11.926 3.734-3.33 2.505-5.566 5.65-6.61 9.482-1.043 3.832-.596 7.91 1.441 12.184 1.59 3.047 3.827 5.355 6.66 6.879 2.832 1.522 5.864 2.26 9.193 2.161 4.274-.147 7.802-1.228 10.585-3.193 2.733-1.916 4.77-4.373 6.013-7.32a18.53 18.53 0 001.392-9.089c-.448-4.569-2.187-8.155-5.218-10.858C60.318 1.327 56.44 0 51.819 0zM70.74 1.818h3.628c3.428.147 5.963.884 7.553 2.309 1.59 1.424 2.336 3.39 2.236 5.895-.049 2.457-.794 4.471-2.285 6.043-1.491 1.621-3.976 2.456-7.504 2.555H70.74V1.818zm-3.23 1.62V31c0 .983-.348 1.67-.994 2.063-.646.443-1.441.64-2.336.688v.295h9.84v-.295c-.845-.049-1.64-.246-2.286-.688-.646-.393-.994-1.08-.994-2.014V20.044h3.13c1.293 0 2.386.344 3.33 1.08.894.738 1.69 1.671 2.385 2.801a60.912 60.912 0 011.889 3.587c.447.933.944 1.817 1.391 2.652.945 1.621 1.938 2.752 2.982 3.341 1.044.59 2.385.835 3.976.786.994 0 2.087-.098 3.28-.246v-.294c-1.094 0-2.137-.295-3.131-.836a8.618 8.618 0 01-2.534-2.063c-1.144-1.425-2.088-2.997-2.883-4.667a27.445 27.445 0 00-2.087-3.587c-.746-1.081-1.64-1.867-2.733-2.358-.845-.442-1.79-.688-2.932-.786 3.578-.344 6.212-1.376 7.95-3.193 1.74-1.769 2.635-3.832 2.684-6.142.05-1.817-.397-3.439-1.392-4.913-.994-1.424-2.484-2.604-4.472-3.488C79.535.834 77.051.392 74.12.392h-9.94v.344c.894 0 1.69.196 2.336.59.646.442.994 1.13.994 2.112zm26.326-1.62h11.131c.944 0 1.739.294 2.385.933.647.639 1.143 1.425 1.591 2.26.397.884.695 1.72.944 2.506l.298-.05c-.298-1.179-.646-2.456-.994-3.88-.348-1.425-.596-2.555-.845-3.44a9.594 9.594 0 01-2.683.246H87.276v.344c.894 0 1.69.196 2.336.59.646.442.944 1.13.944 2.112V31c0 .983-.298 1.671-.944 2.064-.647.442-1.442.639-2.336.688v.294h19.132c.894 0 1.739.099 2.485.246.298-1.13.596-2.21.845-3.292l1.192-4.716-.298-.049c-.546 2.015-1.341 3.537-2.484 4.667s-2.783 1.72-4.97 1.72h-9.342v-14.69h7.304c.746 0 1.293.295 1.64.835.348.54.596 1.18.746 1.917a9.69 9.69 0 01.198 1.915h.299V11.84h-.299c0 .59-.05 1.228-.198 1.917-.15.736-.398 1.375-.746 1.915-.397.54-.994.835-1.739.835h-7.205V1.819z" fill="#383E42"/><path fill-rule="evenodd" clip-rule="evenodd" d="M65.923 17.43c.323-4.108-.694-5.483-2.74-8.953-.07-.12-.18-.229-.252-.357.874 2.832 1.78 3.794.902 6.796a7.082 7.082 0 01-.803 1.771l-.001-.001c-.14.188-.263.37-.373.547-.967 1.301-2.417 2.484-4.34 3.54-.76-.326-2.775-.94-4.535.747-.418.4-1.31 1.166-2.355.853 0 0 3.885 2.97 7.063-1.257 1.434-.787 2.614-1.645 3.538-2.57-.2.582-.297 1.134-.397 1.703l-.01.065c-4.457 2.783-1.802 6.826-1.802 6.826-.23-1.055.616-1.871 1.053-2.25 1.868-1.614 1.381-3.68 1.116-4.435l.025-.141c.163-.933.32-1.822.971-2.875a7.685 7.685 0 001.222-2.416c.453-1.55.282-2.949-.028-4 1.383 2.376 1.565 4.602 1.371 6.29-.646.457-2.272 1.875-1.678 4.274.138.558.355 1.706-.446 2.439 0 0 4.514-1.797 2.5-6.596z" fill="#383E42"/><path fill-rule="evenodd" clip-rule="evenodd" d="M55.224 4.07c.407.419.756.898 1.049 1.436h-.002c.087.196.177.376.27.544.6 1.353.883 3.03.85 5.02-.609.446-2.023 1.745-1.476 3.896.13.51.336 1.56-.394 2.234 0 0 4.158-1.684 2.224-6.11.026-1.483-.121-2.8-.441-3.947.375.423.773.751 1.183 1.09l.048.038c.192 4.765 4.648 4.535 4.648 4.535-.95-.302-1.218-1.339-1.321-1.854-.44-2.203-2.32-2.767-3.046-2.904l-.102-.085c-.673-.555-1.314-1.084-1.86-2.076a7.051 7.051 0 00-1.378-2.063c-1.036-1.066-2.236-1.572-3.22-1.81 2.537.004 4.406.88 5.67 1.805.07.715.464 2.638 2.658 3.27.51.148 1.531.503 1.752 1.466 0 0 .625-4.36-4.144-4.977-3.41-2.532-5.975-2.187-9.814-1.74 2.449.239 4.96.29 6.846 2.232zm9.32 20.23c-.014.03-1.438 2.863-4.71 3.614-.65.15-1.326.208-2.028.178v-.002a8.609 8.609 0 00-.691-.057c-1.681-.207-3.5-.907-5.44-2.093-.086-.847-.545-2.962-2.982-3.684-.578-.17-1.731-.582-1.973-1.675 0 0-.753 4.981 4.727 5.688 1.448.886 2.832 1.508 4.149 1.866-.635.115-1.19.308-1.761.507l-.066.023c-4.807-2.58-7.166 1.845-7.166 1.845.85-.741 2.026-.397 2.593-.197 2.427.855 4.073-.628 4.63-1.247l.142-.05c.936-.326 1.828-.635 3.12-.585.325.04.644.061.959.066a7.872 7.872 0 001.879-.196 7.482 7.482 0 003.65-2.05c-1.476 2.44-3.423 3.732-5.067 4.413-.746-.348-2.869-1.085-4.766.661-.442.407-1.383 1.183-2.46.837 0 0 3.922 3.234 7.298-1 2.606-1.121 6.177-4.656 6.272-7.622l-.31.762V24.3z" fill="#383E42"/><path d="M10.062 38.586v-.037h-.84l-1.413 3.66-1.543-3.66h-.847v.037c.094.006.187.03.28.074.087.05.131.13.131.234l-.143 3.525c-.018.105-.068.184-.15.227a.764.764 0 01-.292.075v.037h1.027v-.038a.614.614 0 01-.268-.08c-.093-.042-.137-.117-.137-.221l.137-3.44 1.593 3.778h.193l1.456-3.777c.019.4.038.867.056 1.39.018.523.037.991.056 1.39.018.4.025.622.025.66 0 .104-.044.178-.13.221a.683.683 0 01-.281.08v.037h1.263v-.037a.757.757 0 01-.292-.074c-.088-.043-.137-.123-.15-.228-.018-.4-.037-.867-.056-1.396-.018-.53-.037-1.003-.056-1.421-.018-.412-.03-.652-.03-.708 0-.104.043-.184.136-.234a.732.732 0 01.274-.074zm4.979 2.19c-.019.412-.112.757-.293 1.034-.18.277-.404.486-.678.615-.33.154-.703.197-1.108.123a2.036 2.036 0 01-1.083-.554c-.317-.302-.503-.714-.56-1.237-.03-.436.05-.843.25-1.212.192-.362.516-.615.957-.756.48-.123.91-.11 1.289.037.38.154.684.4.909.744.217.345.323.745.317 1.206zm-1.749-2.283c-.579 0-1.076.154-1.493.468-.417.314-.697.707-.828 1.187-.131.48-.075.99.18 1.526.2.382.48.67.834.861.354.19.734.283 1.151.27.536-.017.977-.153 1.326-.399.342-.24.597-.547.753-.917.156-.369.212-.75.174-1.138-.056-.572-.273-1.021-.653-1.36-.38-.332-.865-.498-1.444-.498zm3.926.228h.455c.43.018.747.11.946.29.2.178.293.424.28.737-.006.308-.1.56-.286.757-.187.203-.498.308-.94.32h-.454V38.72zm-.404.203v3.451c0 .123-.043.21-.124.259a.56.56 0 01-.293.085v.038h1.233v-.038a.56.56 0 01-.287-.085c-.08-.05-.124-.136-.124-.253v-1.378h.392c.162 0 .299.043.417.135a1.4 1.4 0 01.299.35c.08.143.161.296.236.45.056.117.119.228.174.332.119.203.243.345.374.418.13.075.299.105.498.1.124 0 .26-.013.41-.031v-.038a.813.813 0 01-.392-.104 1.085 1.085 0 01-.317-.258 2.963 2.963 0 01-.36-.585 3.467 3.467 0 00-.262-.449.822.822 0 00-.342-.295.95.95 0 00-.367-.098c.448-.043.778-.173.996-.4.217-.222.33-.48.336-.77a1.02 1.02 0 00-.175-.614 1.313 1.313 0 00-.56-.437c-.255-.11-.566-.166-.934-.166h-1.244v.043a.56.56 0 01.292.074c.081.055.125.142.125.265v-.001zm4.854-.203h1.394c.118 0 .218.037.298.117.081.08.144.178.2.283.05.11.087.215.118.314l.037-.007c-.037-.147-.08-.307-.124-.486-.043-.178-.075-.32-.106-.43a1.188 1.188 0 01-.336.03h-2.302v.043c.112 0 .212.024.293.074.08.055.118.142.118.264v3.452c0 .123-.037.21-.118.258a.56.56 0 01-.293.086v.037h2.396c.112 0 .217.012.31.03.038-.141.076-.276.107-.412l.149-.59-.038-.006c-.068.252-.167.442-.31.584-.144.142-.35.215-.623.215h-1.17v-1.839h.915c.094 0 .162.037.205.105a.69.69 0 01.094.24c.018.092.025.172.025.24h.037v-1.348h-.037c0 .075-.007.154-.025.24a.69.69 0 01-.094.24.259.259 0 01-.217.105h-.903v-1.84.001zm4.713 3.999v.037h2.353c.124-.006.242.006.354.03l.25-1.003-.038-.005c-.069.252-.168.442-.311.584-.144.142-.349.215-.622.215h-1.164v-3.66c0-.118.043-.203.124-.259a.54.54 0 01.286-.074v-.043h-1.232v.043c.112 0 .212.025.293.074.08.056.118.142.118.265v3.451c0 .123-.038.21-.119.258a.56.56 0 01-.292.086zm7.879-1.944c-.019.412-.112.757-.293 1.034-.18.276-.405.486-.678.615-.33.154-.703.197-1.108.123a2.035 2.035 0 01-1.083-.554c-.317-.302-.503-.714-.56-1.237a2.18 2.18 0 01.25-1.212c.192-.363.515-.615.957-.756.48-.123.91-.111 1.289.037.38.154.684.4.908.744.218.345.324.744.318 1.206zm-1.75-2.283c-.578 0-1.076.154-1.493.468-.416.314-.697.707-.827 1.187-.131.48-.075.99.18 1.526.2.381.48.67.834.861.354.19.734.283 1.151.27.535-.017.977-.153 1.326-.4.342-.239.597-.547.753-.916.156-.369.211-.75.174-1.138-.056-.572-.274-1.021-.654-1.36-.38-.332-.864-.498-1.443-.498zm3.181.462l1.53 3.802h.206c.168-.412.33-.83.492-1.249.342-.855.678-1.704 1.014-2.56a.507.507 0 01.23-.264.822.822 0 01.343-.099v-.037h-1.214v.037c.063 0 .137.013.218.037a.46.46 0 01.193.11c.05.056.063.118.038.198l-1.288 3.26-1.32-3.26c-.025-.08-.012-.142.038-.197a.396.396 0 01.187-.11.735.735 0 01.217-.038v-.037h-1.468l-.006.037a.77.77 0 01.354.105.55.55 0 01.237.265h-.001zm5.588-.234h1.394c.119 0 .218.037.299.117.08.08.143.178.2.283.049.11.086.215.117.314l.038-.007c-.038-.147-.081-.307-.124-.486-.044-.178-.075-.32-.106-.43a1.187 1.187 0 01-.336.03h-2.303v.043c.112 0 .212.024.293.074.08.055.118.141.118.264v3.452c0 .123-.037.21-.118.258a.56.56 0 01-.293.086v.037h2.396c.112 0 .218.012.311.03.038-.141.075-.276.106-.412l.15-.59-.038-.006c-.069.252-.168.442-.311.584-.144.142-.349.215-.622.215h-1.17v-1.839h.914a.23.23 0 01.206.105.692.692 0 01.093.24c.018.092.025.172.025.24h.038v-1.348h-.038c0 .074-.007.154-.025.24a.692.692 0 01-.093.24.259.259 0 01-.218.105h-.902v-1.84.001zm14.384-.135v-.037h-.84l-1.412 3.66-1.544-3.66h-.846v.037c.093.006.187.03.28.074.087.05.13.13.13.234l-.142 3.525c-.019.104-.069.184-.15.227a.764.764 0 01-.292.074v.037h1.026v-.037a.614.614 0 01-.267-.08c-.094-.043-.137-.117-.137-.221l.137-3.44 1.593 3.778h.193l1.456-3.777c.018.4.037.867.056 1.39.018.523.037.99.055 1.39.019.4.025.622.025.66 0 .104-.043.177-.13.22a.685.685 0 01-.28.08v.038h1.263v-.037a.759.759 0 01-.293-.074c-.087-.043-.137-.123-.15-.228a127.5 127.5 0 01-.055-1.396c-.018-.53-.038-1.003-.056-1.421-.018-.413-.03-.652-.03-.708 0-.104.042-.184.136-.234a.73.73 0 01.273-.074h.002zm4.98 2.19c-.02.412-.113.757-.294 1.034-.18.276-.404.486-.677.615-.33.154-.704.197-1.108.123a2.035 2.035 0 01-1.083-.554c-.318-.302-.504-.714-.56-1.237a2.18 2.18 0 01.249-1.212c.193-.363.516-.615.958-.756.48-.123.909-.111 1.288.037.38.154.685.4.91.744.217.345.323.744.317 1.206zm-1.75-2.283c-.578 0-1.076.154-1.493.468-.417.314-.697.707-.828 1.187-.13.48-.075.99.18 1.526.2.381.48.67.834.861.355.19.735.283 1.152.27.535-.017.977-.153 1.325-.4a2.1 2.1 0 00.753-.916c.156-.369.212-.75.175-1.138-.056-.572-.274-1.021-.654-1.36-.38-.332-.865-.498-1.444-.498zm3.927.228h.455c.429.018.746.11.946.29.199.177.292.424.28.737-.006.308-.1.56-.286.757-.187.203-.498.307-.94.32h-.454V38.72zm-.404.203v3.451c0 .123-.044.21-.125.258a.56.56 0 01-.292.086v.037h1.232v-.037a.56.56 0 01-.286-.086c-.081-.049-.124-.135-.124-.252v-1.378h.392c.161 0 .298.043.416.135.112.093.212.21.3.35.08.142.16.296.236.45.056.117.118.227.174.332.118.203.243.345.374.418.13.074.298.105.497.099.125 0 .261-.012.41-.03v-.038a.812.812 0 01-.391-.104 1.082 1.082 0 01-.317-.258 2.963 2.963 0 01-.361-.585 3.483 3.483 0 00-.261-.45.82.82 0 00-.343-.294.948.948 0 00-.366-.099c.447-.043.778-.172.995-.4a1.1 1.1 0 00.336-.768 1.02 1.02 0 00-.174-.616 1.314 1.314 0 00-.56-.436c-.255-.11-.566-.166-.934-.166h-1.245v.043c.112 0 .212.024.293.074.08.055.124.141.124.264zm4.853-.203h1.394a.41.41 0 01.3.117c.08.08.142.178.198.283.05.11.087.215.119.314l.037-.007c-.037-.147-.08-.307-.124-.486-.044-.178-.075-.32-.106-.43a1.187 1.187 0 01-.336.03h-2.302v.043c.111 0 .211.024.292.074.081.055.118.141.118.264v3.452c0 .123-.037.21-.118.258a.56.56 0 01-.292.086v.037h2.395c.112 0 .218.012.311.03.038-.141.075-.276.106-.412l.15-.59-.038-.006c-.068.252-.168.442-.311.584-.143.142-.349.215-.622.215h-1.17v-1.839h.915c.093 0 .162.037.205.105a.692.692 0 01.093.24c.019.092.025.172.025.24h.038v-1.348h-.038a1.1 1.1 0 01-.025.24.692.692 0 01-.093.24.259.259 0 01-.218.105h-.902v-1.84.001zm4.714 3.999v.037h1.232v-.037a.621.621 0 01-.286-.08c-.08-.05-.124-.136-.124-.252v-1.606h.784c.093 0 .162.037.211.104a.692.692 0 01.094.24c.018.093.025.173.025.24h.037V40.02h-.037a1.1 1.1 0 01-.025.24.698.698 0 01-.1.24c-.043.067-.118.104-.211.104h-.778v-1.876h1.164c.273 0 .479.067.622.21.143.14.243.338.31.584l.038-.007-.249-1.002c-.112.024-.23.037-.354.037a72.704 72.704 0 00-1.618 0h-.735v.037c.112.006.212.03.293.08.08.055.118.141.118.258v3.451c0 .123-.037.21-.118.258a.561.561 0 01-.293.086zm3.908 0v.037h2.352a1.37 1.37 0 01.355.03l.249-1.003-.037-.006c-.069.253-.168.443-.312.585-.143.142-.348.215-.622.215h-1.164v-3.66c0-.118.044-.204.125-.259a.55.55 0 01.286-.074v-.043H75.89v.043c.112 0 .212.025.293.074.081.055.118.142.118.265v3.451c0 .123-.037.21-.118.258a.562.562 0 01-.293.086h.001zm7.878-1.944c-.018.412-.112.757-.293 1.033a1.65 1.65 0 01-.678.616c-.33.154-.703.197-1.107.123a2.035 2.035 0 01-1.083-.554c-.318-.302-.504-.714-.56-1.237a2.18 2.18 0 01.249-1.212c.193-.363.516-.615.958-.757.48-.122.909-.11 1.288.038.38.154.685.4.909.744.218.344.324.744.318 1.206zm-1.749-2.283c-.578 0-1.076.154-1.493.468-.417.314-.697.707-.828 1.187-.13.48-.075.99.18 1.526.2.381.48.67.834.861.355.19.735.283 1.152.27.535-.018.977-.153 1.325-.4.343-.24.598-.547.753-.916.156-.37.212-.75.175-1.138-.056-.572-.274-1.021-.654-1.36-.38-.332-.865-.498-1.444-.498zm3.062.425l1.575 3.845h.199l.13-.344.586-1.502.753 1.846h.199l1.487-3.845c.031-.08.106-.154.218-.222a.903.903 0 01.38-.11v-.037h-1.251v.037c.068 0 .137.012.218.03a.644.644 0 01.192.105c.05.05.069.11.05.185l-1.263 3.272-.759-1.852.548-1.409c.03-.08.106-.154.218-.221a.903.903 0 01.379-.11v-.038h-1.027v.037c.2-.006.28.105.236.32l-.454 1.175-.48-1.175c-.024-.11-.006-.191.05-.246a.343.343 0 01.23-.074v-.037h-1.15v.037c.199.012.336.123.404.332l.716 1.753-.58 1.507-1.337-3.273a.182.182 0 01.05-.184.523.523 0 01.192-.105.99.99 0 01.212-.03v-.037h-1.512v.037a.928.928 0 01.342.092c.118.055.2.135.25.24zm7.3-.197h1.394c.118 0 .217.037.298.117.081.08.144.178.2.283.05.11.086.215.118.314l.037-.007c-.037-.147-.08-.307-.124-.486-.043-.178-.075-.32-.106-.43a1.192 1.192 0 01-.336.03h-2.302v.043c.112 0 .211.024.292.074.081.055.119.141.119.264v3.452c0 .123-.038.209-.119.258a.561.561 0 01-.292.086v.037h2.395c.112 0 .218.012.312.03.037-.141.075-.276.105-.412l.15-.59-.038-.007c-.068.253-.168.443-.31.585-.144.142-.35.215-.623.215h-1.17v-1.84h.915a.23.23 0 01.205.105.69.69 0 01.094.24c.018.093.025.173.025.24h.037v-1.347h-.037c0 .074-.007.154-.025.24a.69.69 0 01-.094.24.259.259 0 01-.218.105h-.902v-1.84zm3.976 0h.454c.43.018.748.11.947.29.199.177.292.424.28.737-.006.308-.1.56-.286.757-.187.203-.498.307-.94.32h-.454V38.72zm-.404.203v3.451c0 .123-.044.21-.125.258a.562.562 0 01-.292.086v.037h1.232v-.037a.561.561 0 01-.286-.086c-.08-.049-.124-.135-.124-.252v-1.378h.392c.161 0 .298.043.416.135a1.4 1.4 0 01.3.35c.08.142.16.296.236.45.056.117.118.227.174.332.118.203.243.345.374.418.13.074.298.105.497.099.125 0 .261-.012.41-.03v-.038a.814.814 0 01-.391-.104 1.08 1.08 0 01-.317-.259 2.958 2.958 0 01-.361-.584 3.465 3.465 0 00-.261-.45.82.82 0 00-.342-.294.949.949 0 00-.367-.099c.448-.043.778-.172.995-.4.218-.221.33-.48.336-.769a1.02 1.02 0 00-.174-.615 1.313 1.313 0 00-.56-.437c-.255-.11-.566-.165-.934-.165h-1.245v.043c.112 0 .212.024.293.074.08.055.124.141.124.264zm4.163 3.599c.168.117.367.19.591.227.224.043.43.062.61.056.342.006.634-.08.884-.253.249-.165.386-.442.41-.818 0-.363-.124-.652-.367-.867a3.89 3.89 0 00-.84-.535 4.226 4.226 0 01-.628-.388.688.688 0 01-.299-.498.683.683 0 01.249-.579c.168-.141.386-.209.647-.202a.92.92 0 01.591.221c.168.142.281.394.343.757l.174-.006-.112-.843a1.248 1.248 0 00-.69-.283 2.282 2.282 0 00-.772.03c-.404.105-.659.32-.778.647-.118.326-.037.646.237.953.199.185.454.357.76.51.311.155.578.333.808.536.231.203.318.462.262.781a.783.783 0 01-.336.487 1.078 1.078 0 01-.586.178 1.033 1.033 0 01-.69-.246c-.212-.166-.349-.43-.417-.794h-.174l.124.93-.001-.001zm-51.78-2.067h-2.282l-.123.193h2.281l.124-.193z" fill="#383E42"/></svg>