<svg width="45" height="45" viewBox="0 0 45 45" fill="none" xmlns="http://www.w3.org/2000/svg">
<path d="M32.0458 14.7441C31.6478 14.3423 31.0027 14.3424 30.6049 14.7441C30.2069 15.1458 30.2069 15.797 30.6049 16.1987C32.7699 18.384 33.9622 21.2893 33.9622 24.3796C33.9622 27.4699 32.7699 30.3754 30.6049 32.5606C26.1357 37.0717 18.8641 37.0717 14.3951 32.5606C12.2301 30.3754 11.038 27.4701 11.038 24.3796C11.038 21.2892 12.2303 18.3839 14.3951 16.1987C16.0702 14.5078 18.1733 13.408 20.4569 12.9954L18.9083 15.287C18.5912 15.7563 18.711 16.3961 19.1759 16.7162C19.3517 16.8372 19.5514 16.8952 19.7491 16.8952C20.0746 16.8952 20.3946 16.738 20.5918 16.4462L23.3518 12.3617C23.3519 12.3614 23.3522 12.3611 23.3523 12.361C23.6694 11.8917 23.5496 11.2519 23.0847 10.9318L19.0861 8.17898C18.6208 7.85877 17.9872 7.97986 17.6702 8.44913C17.3531 8.9184 17.473 9.55827 17.9379 9.87834L19.6491 11.0565C17.1312 11.6002 14.8179 12.8628 12.9541 14.7441C10.4043 17.3178 9 20.7397 9 24.3796C9 28.0196 10.4042 31.4415 12.9541 34.0152C15.5862 36.672 19.0425 38.0004 22.4999 38C25.9565 37.9997 29.4142 36.6713 32.0458 34.0152C34.5957 31.4415 36 28.0194 36 24.3796C36 20.7398 34.5957 17.318 32.0458 14.7441Z" fill="#C94F6E"/>
<path d="M21.4759 22.5085C21.4759 20.648 19.9765 19.1345 18.1333 19.1345C16.2903 19.1345 14.7908 20.6481 14.7908 22.5085C14.7908 23.0765 15.247 23.537 15.8097 23.537C16.3725 23.537 16.8287 23.0765 16.8287 22.5085C16.8287 21.7822 17.4139 21.1915 18.1333 21.1915C18.8527 21.1915 19.4381 21.7824 19.4381 22.5085C19.4381 22.8601 19.3023 23.1909 19.0559 23.4395C19.0438 23.4517 19.032 23.4642 19.0206 23.4771L15.0538 27.9062C14.7838 28.2078 14.715 28.6416 14.8784 29.0133C15.0419 29.3849 15.4069 29.6243 15.8096 29.6243H20.4569C21.0196 29.6243 21.4758 29.1638 21.4758 28.5958C21.4758 28.0278 21.0196 27.5673 20.4569 27.5673H18.1044L20.5165 24.8739C21.1355 24.2391 21.4759 23.4003 21.4759 22.5085Z" fill="#C94F6E"/>
<path fill-rule="evenodd" clip-rule="evenodd" d="M23.4403 27.465C23.0556 27.465 22.7035 27.2461 22.5303 26.8993C22.3573 26.5525 22.3924 26.1367 22.6214 25.8246L27.2213 19.5511C27.4828 19.1943 27.9419 19.0473 28.3594 19.1862C28.777 19.3253 29.0592 19.7191 29.0592 20.163V25.408H29.1903C29.753 25.408 30.2092 25.8685 30.2092 26.4365C30.2092 27.0045 29.753 27.465 29.1903 27.465H29.0592V28.596C29.0592 29.1641 28.603 29.6245 28.0403 29.6245C27.4775 29.6245 27.0213 29.1641 27.0213 28.596V27.465H23.4403ZM27.0216 25.408V23.2814L25.4622 25.408H27.0216Z" fill="#C94F6E"/>
</svg>
