<svg width="11" height="7" viewBox="0 0 11 7" fill="none" xmlns="http://www.w3.org/2000/svg">
<path d="M0.497428 3.36246L3.41915 0.605696C3.59741 0.40422 3.88652 0.40422 4.06478 0.605696C4.24308 0.807214 4.24308 1.13389 4.06478 1.3354L1.92239 3.21134L9.72536 3.21134C9.97747 3.21134 10.1819 3.44237 10.1819 3.72731C10.1819 4.01221 9.97747 4.24328 9.72536 4.24328L1.92239 4.24328L4.06471 6.11922C4.243 6.32074 4.243 6.64741 4.06471 6.84893C3.97559 6.9496 3.85872 7.00004 3.74189 7.00004C3.62506 7.00004 3.50823 6.9496 3.41908 6.84893L0.497428 4.09216C0.31913 3.89065 0.31913 3.56397 0.497428 3.36246Z" fill="#C94F6E"/>
</svg>
