<svg width="45" height="45" viewBox="0 0 45 45" fill="none" xmlns="http://www.w3.org/2000/svg">
<rect opacity="0.01" width="45" height="45" fill="#EFEFEF"/>
<mask id="path-2-outside-1_70_1276" maskUnits="userSpaceOnUse" x="6" y="6" width="33" height="33" fill="black">
<rect fill="white" x="6" y="6" width="33" height="33"/>
<path d="M38 27.9795C38 23.4609 34.9554 19.5131 30.662 18.3234C30.3921 12.0339 25.1917 7 18.8369 7C12.3099 7 7 12.3099 7 18.8369C7 20.9641 7.56621 23.0352 8.64139 24.8535L7.04352 30.6301L12.8203 29.0324C14.4917 30.0208 16.3772 30.5776 18.3232 30.6615C19.5126 34.9552 23.4607 38 27.9795 38C29.7831 38 31.5371 37.5196 33.0782 36.6069L37.9562 37.9562L36.6069 33.0782C37.5196 31.5371 38 29.7831 38 27.9795V27.9795ZM13.107 27.0685L9.64869 28.0251L10.6054 24.5669L10.3873 24.2258C9.35967 22.618 8.81641 20.7545 8.81641 18.8369C8.81641 13.3115 13.3115 8.81641 18.8369 8.81641C24.3623 8.81641 28.8574 13.3115 28.8574 18.8369C28.8574 24.3623 24.3623 28.8574 18.8369 28.8574C16.9193 28.8574 15.056 28.3142 13.448 27.2865L13.107 27.0685ZM35.3513 35.3513L32.7852 34.6413L32.4425 34.8643C31.114 35.7274 29.5705 36.1836 27.9795 36.1836C24.428 36.1836 21.3073 33.8873 20.2016 30.5946C25.6399 29.9676 29.9676 25.6399 30.5948 20.2013C33.8873 21.3073 36.1836 24.428 36.1836 27.9795C36.1836 29.5705 35.7274 31.114 34.8643 32.4425L34.6413 32.7852L35.3513 35.3513Z"/>
</mask>
<path d="M38 27.9795C38 23.4609 34.9554 19.5131 30.662 18.3234C30.3921 12.0339 25.1917 7 18.8369 7C12.3099 7 7 12.3099 7 18.8369C7 20.9641 7.56621 23.0352 8.64139 24.8535L7.04352 30.6301L12.8203 29.0324C14.4917 30.0208 16.3772 30.5776 18.3232 30.6615C19.5126 34.9552 23.4607 38 27.9795 38C29.7831 38 31.5371 37.5196 33.0782 36.6069L37.9562 37.9562L36.6069 33.0782C37.5196 31.5371 38 29.7831 38 27.9795V27.9795ZM13.107 27.0685L9.64869 28.0251L10.6054 24.5669L10.3873 24.2258C9.35967 22.618 8.81641 20.7545 8.81641 18.8369C8.81641 13.3115 13.3115 8.81641 18.8369 8.81641C24.3623 8.81641 28.8574 13.3115 28.8574 18.8369C28.8574 24.3623 24.3623 28.8574 18.8369 28.8574C16.9193 28.8574 15.056 28.3142 13.448 27.2865L13.107 27.0685ZM35.3513 35.3513L32.7852 34.6413L32.4425 34.8643C31.114 35.7274 29.5705 36.1836 27.9795 36.1836C24.428 36.1836 21.3073 33.8873 20.2016 30.5946C25.6399 29.9676 29.9676 25.6399 30.5948 20.2013C33.8873 21.3073 36.1836 24.428 36.1836 27.9795C36.1836 29.5705 35.7274 31.114 34.8643 32.4425L34.6413 32.7852L35.3513 35.3513Z" fill="#C94F6E"/>
<path d="M38 27.9795C38 23.4609 34.9554 19.5131 30.662 18.3234C30.3921 12.0339 25.1917 7 18.8369 7C12.3099 7 7 12.3099 7 18.8369C7 20.9641 7.56621 23.0352 8.64139 24.8535L7.04352 30.6301L12.8203 29.0324C14.4917 30.0208 16.3772 30.5776 18.3232 30.6615C19.5126 34.9552 23.4607 38 27.9795 38C29.7831 38 31.5371 37.5196 33.0782 36.6069L37.9562 37.9562L36.6069 33.0782C37.5196 31.5371 38 29.7831 38 27.9795V27.9795ZM13.107 27.0685L9.64869 28.0251L10.6054 24.5669L10.3873 24.2258C9.35967 22.618 8.81641 20.7545 8.81641 18.8369C8.81641 13.3115 13.3115 8.81641 18.8369 8.81641C24.3623 8.81641 28.8574 13.3115 28.8574 18.8369C28.8574 24.3623 24.3623 28.8574 18.8369 28.8574C16.9193 28.8574 15.056 28.3142 13.448 27.2865L13.107 27.0685ZM35.3513 35.3513L32.7852 34.6413L32.4425 34.8643C31.114 35.7274 29.5705 36.1836 27.9795 36.1836C24.428 36.1836 21.3073 33.8873 20.2016 30.5946C25.6399 29.9676 29.9676 25.6399 30.5948 20.2013C33.8873 21.3073 36.1836 24.428 36.1836 27.9795C36.1836 29.5705 35.7274 31.114 34.8643 32.4425L34.6413 32.7852L35.3513 35.3513Z" stroke="#C94F6E" stroke-width="0.4" mask="url(#path-2-outside-1_70_1276)"/>
<mask id="path-3-outside-2_70_1276" maskUnits="userSpaceOnUse" x="16.9287" y="22.4082" width="4" height="4" fill="black">
<rect fill="white" x="16.9287" y="22.4082" width="4" height="4"/>
<path d="M17.9287 23.4082H19.7451V25.2246H17.9287V23.4082Z"/>
</mask>
<path d="M17.9287 23.4082H19.7451V25.2246H17.9287V23.4082Z" fill="#C94F6E"/>
<path d="M17.9287 23.4082H19.7451V25.2246H17.9287V23.4082Z" stroke="#C94F6E" stroke-width="0.4" mask="url(#path-3-outside-2_70_1276)"/>
<mask id="path-4-outside-3_70_1276" maskUnits="userSpaceOnUse" x="14.2041" y="11.4492" width="9" height="11" fill="black">
<rect fill="white" x="14.2041" y="11.4492" width="9" height="11"/>
<path d="M20.6533 16.082C20.6533 16.5979 20.4433 17.074 20.062 17.4228L17.9287 19.3755V21.5918H19.7451V20.1753L21.2884 18.7629C22.039 18.0758 22.4697 17.0988 22.4697 16.082C22.4697 14.0788 20.8402 12.4492 18.8369 12.4492C16.8337 12.4492 15.2041 14.0788 15.2041 16.082H17.0205C17.0205 15.0804 17.8353 14.2656 18.8369 14.2656C19.8385 14.2656 20.6533 15.0804 20.6533 16.082Z"/>
</mask>
<path d="M20.6533 16.082C20.6533 16.5979 20.4433 17.074 20.062 17.4228L17.9287 19.3755V21.5918H19.7451V20.1753L21.2884 18.7629C22.039 18.0758 22.4697 17.0988 22.4697 16.082C22.4697 14.0788 20.8402 12.4492 18.8369 12.4492C16.8337 12.4492 15.2041 14.0788 15.2041 16.082H17.0205C17.0205 15.0804 17.8353 14.2656 18.8369 14.2656C19.8385 14.2656 20.6533 15.0804 20.6533 16.082Z" fill="#C94F6E"/>
<path d="M20.6533 16.082C20.6533 16.5979 20.4433 17.074 20.062 17.4228L17.9287 19.3755V21.5918H19.7451V20.1753L21.2884 18.7629C22.039 18.0758 22.4697 17.0988 22.4697 16.082C22.4697 14.0788 20.8402 12.4492 18.8369 12.4492C16.8337 12.4492 15.2041 14.0788 15.2041 16.082H17.0205C17.0205 15.0804 17.8353 14.2656 18.8369 14.2656C19.8385 14.2656 20.6533 15.0804 20.6533 16.082Z" stroke="#C94F6E" stroke-width="0.4" mask="url(#path-4-outside-3_70_1276)"/>
</svg>
