<svg width="20" height="24" viewBox="0 0 20 24" fill="none" xmlns="http://www.w3.org/2000/svg">
<mask id="path-1-outside-1_70_1374" maskUnits="userSpaceOnUse" x="1" y="0" width="19" height="24" fill="black">
<rect fill="white" x="1" width="19" height="24"/>
<path fill-rule="evenodd" clip-rule="evenodd" d="M10.373 2C8.42016 2.00113 6.54744 2.77652 5.16536 4.15618C3.78329 5.53585 3.00463 7.40722 3.00009 9.36006C2.99482 10.395 3.2142 11.4188 3.64308 12.3607C5.38002 15.7809 7.53504 18.9722 10.0587 21.8612C10.0978 21.9048 10.1457 21.9398 10.1992 21.9637C10.2528 21.9876 10.3108 22 10.3694 22C10.4281 22 10.4861 21.9876 10.5396 21.9637C10.5932 21.9398 10.6411 21.9048 10.6802 21.8612C13.2028 18.9743 15.3574 15.7855 17.0944 12.3678C17.5229 11.4258 17.7422 10.4021 17.7374 9.3672C17.7347 7.41461 16.9581 5.5427 15.5776 4.16173C14.1972 2.78077 12.3256 2.0034 10.373 2ZM10.373 13.1837C9.61633 13.1831 8.87679 12.9582 8.24791 12.5374C7.61902 12.1166 7.12901 11.5188 6.83984 10.8196C6.55066 10.1203 6.47529 9.35102 6.62326 8.60894C6.77122 7.86686 7.13589 7.18531 7.67114 6.65046C8.2064 6.1156 8.88822 5.75144 9.63041 5.60403C10.3726 5.45662 11.1418 5.53256 11.8409 5.82226C12.5399 6.11196 13.1373 6.60241 13.5577 7.23162C13.978 7.86082 14.2024 8.60051 14.2024 9.3572C14.2008 10.3721 13.7968 11.3449 13.0789 12.0623C12.361 12.7796 11.3879 13.1829 10.373 13.1837Z"/>
</mask>
<path fill-rule="evenodd" clip-rule="evenodd" d="M10.373 2C8.42016 2.00113 6.54744 2.77652 5.16536 4.15618C3.78329 5.53585 3.00463 7.40722 3.00009 9.36006C2.99482 10.395 3.2142 11.4188 3.64308 12.3607C5.38002 15.7809 7.53504 18.9722 10.0587 21.8612C10.0978 21.9048 10.1457 21.9398 10.1992 21.9637C10.2528 21.9876 10.3108 22 10.3694 22C10.4281 22 10.4861 21.9876 10.5396 21.9637C10.5932 21.9398 10.6411 21.9048 10.6802 21.8612C13.2028 18.9743 15.3574 15.7855 17.0944 12.3678C17.5229 11.4258 17.7422 10.4021 17.7374 9.3672C17.7347 7.41461 16.9581 5.5427 15.5776 4.16173C14.1972 2.78077 12.3256 2.0034 10.373 2ZM10.373 13.1837C9.61633 13.1831 8.87679 12.9582 8.24791 12.5374C7.61902 12.1166 7.12901 11.5188 6.83984 10.8196C6.55066 10.1203 6.47529 9.35102 6.62326 8.60894C6.77122 7.86686 7.13589 7.18531 7.67114 6.65046C8.2064 6.1156 8.88822 5.75144 9.63041 5.60403C10.3726 5.45662 11.1418 5.53256 11.8409 5.82226C12.5399 6.11196 13.1373 6.60241 13.5577 7.23162C13.978 7.86082 14.2024 8.60051 14.2024 9.3572C14.2008 10.3721 13.7968 11.3449 13.0789 12.0623C12.361 12.7796 11.3879 13.1829 10.373 13.1837Z" stroke="#C94F6E" stroke-width="4" mask="url(#path-1-outside-1_70_1374)"/>
</svg>
