<svg width="8" height="19" viewBox="0 0 8 19" fill="none" xmlns="http://www.w3.org/2000/svg">
<path fill-rule="evenodd" clip-rule="evenodd" d="M0.679164 4.25399C0.440308 4.02598 0.44025 3.65632 0.679164 3.42825L3.56747 0.67104C3.80633 0.443024 4.19356 0.442968 4.43253 0.670984L7.32084 3.4282C7.55969 3.65621 7.55975 4.02587 7.32084 4.25394C7.08192 4.48201 6.69469 4.48195 6.45583 4.25394L4.61164 2.49345L4.61182 9.49278C4.61182 9.49595 4.61179 9.49911 4.61173 9.50227L4.61164 16.5065L6.45572 14.7461C6.69463 14.5181 7.08186 14.5181 7.32072 14.7461C7.55958 14.9741 7.55958 15.3439 7.32072 15.5719L4.43253 18.329C4.19362 18.557 3.80638 18.557 3.56753 18.329L0.679222 15.5718C0.440365 15.3437 0.440308 14.9741 0.679222 14.746C0.918136 14.5179 1.30537 14.518 1.54423 14.746L3.3883 16.5064L3.38847 9.49289L3.3883 2.49356L1.54417 4.25399C1.30525 4.48206 0.91802 4.48201 0.679164 4.25399Z" fill="white"/>
</svg>
