<svg width="20" height="20" viewBox="0 0 20 20" fill="none" xmlns="http://www.w3.org/2000/svg">
<g clip-path="url(#clip0_70_1347)">
<path d="M10.0031 5.07043C7.28066 5.07043 5.07666 7.27684 5.07666 9.99684C5.07666 12.7192 7.28306 14.9232 10.0031 14.9232C12.7255 14.9232 14.9295 12.7168 14.9295 9.99684C14.9295 7.27444 12.7231 5.07043 10.0031 5.07043ZM10.0031 13.1944C8.23586 13.1944 6.80546 11.7632 6.80546 9.99684C6.80546 8.23044 8.23666 6.79924 10.0031 6.79924C11.7695 6.79924 13.2007 8.23044 13.2007 9.99684C13.2015 11.7632 11.7703 13.1944 10.0031 13.1944Z" fill="#C94F6E"/>
<path d="M13.9582 0.460822C12.1918 0.378422 7.81664 0.382422 6.04864 0.460822C4.49504 0.533622 3.12464 0.908822 2.01984 2.01362C0.17344 3.86002 0.40944 6.34802 0.40944 9.99682C0.40944 13.7312 0.20144 16.1616 2.01984 17.98C3.87344 19.8328 6.39744 19.5904 10.003 19.5904C13.7022 19.5904 14.979 19.5928 16.287 19.0864C18.0654 18.396 19.4078 16.8064 19.539 13.9512C19.6222 12.184 19.6174 7.80962 19.539 6.04162C19.3806 2.67122 17.5718 0.627222 13.9582 0.460822ZM16.7542 16.7584C15.5438 17.9688 13.8646 17.8608 9.97984 17.8608C5.97984 17.8608 4.37584 17.92 3.20544 16.7464C1.85744 15.4048 2.10144 13.2504 2.10144 9.98402C2.10144 5.56402 1.64784 2.38082 6.08384 2.15362C7.10304 2.11762 7.40304 2.10562 9.96864 2.10562L10.0046 2.12962C14.2678 2.12962 17.6126 1.68322 17.8134 6.11842C17.859 7.13042 17.8694 7.43442 17.8694 9.99602C17.8686 13.9496 17.9438 15.5632 16.7542 16.7584Z" fill="#C94F6E"/>
<path d="M15.1246 6.02725C15.7604 6.02725 16.2758 5.51184 16.2758 4.87605C16.2758 4.24026 15.7604 3.72485 15.1246 3.72485C14.4888 3.72485 13.9734 4.24026 13.9734 4.87605C13.9734 5.51184 14.4888 6.02725 15.1246 6.02725Z" fill="#C94F6E"/>
</g>
<defs>
<clipPath id="clip0_70_1347">
<rect width="19.2" height="19.2" fill="white" transform="translate(0.399902 0.400024)"/>
</clipPath>
</defs>
</svg>
