<svg width="21" height="19" viewBox="0 0 21 19" fill="none" xmlns="http://www.w3.org/2000/svg">
<path d="M18.5693 13.4334V15.9334C18.5702 16.1655 18.5222 16.3952 18.4281 16.6079C18.3341 16.8205 18.1961 17.0114 18.0231 17.1683C17.8502 17.3252 17.6459 17.4446 17.4236 17.519C17.2012 17.5934 16.9655 17.621 16.7317 17.6001C14.1379 17.3214 11.6464 16.4452 9.45735 15.0417C7.42071 13.7623 5.694 12.0552 4.39984 10.0417C2.97529 7.86775 2.08876 5.39258 1.81208 2.81675C1.79101 2.5863 1.81872 2.35405 1.89342 2.13477C1.96812 1.91549 2.08819 1.71399 2.24598 1.5431C2.40377 1.37221 2.59583 1.23567 2.80992 1.14218C3.02401 1.04869 3.25544 1.0003 3.48949 1.00008H6.01824C6.42731 0.9961 6.8239 1.13931 7.13406 1.40302C7.44423 1.66674 7.64682 2.03295 7.70408 2.43341C7.81081 3.23347 8.00875 4.01902 8.29412 4.77508C8.40753 5.07335 8.43207 5.39751 8.36485 5.70915C8.29762 6.02079 8.14144 6.30684 7.91481 6.53341L6.8443 7.59175C8.04424 9.67803 9.79153 11.4055 11.9018 12.5917L12.9723 11.5334C13.2015 11.3094 13.4908 11.155 13.8061 11.0885C14.1213 11.022 14.4492 11.0463 14.7509 11.1584C15.5156 11.4405 16.3102 11.6362 17.1195 11.7417C17.5289 11.7989 17.9029 12.0028 18.1702 12.3147C18.4375 12.6266 18.5796 13.0247 18.5693 13.4334Z" stroke="#C94F6E" stroke-width="2" stroke-linecap="round" stroke-linejoin="round"/>
</svg>
