<svg width="22" height="19" viewBox="0 0 22 19" fill="none" xmlns="http://www.w3.org/2000/svg">
<path d="M2.0569 9.90931L2.05799 9.90964L2.10358 9.8188L2.07636 9.91502L2.07673 9.91512C2.07685 9.91516 2.07698 9.91519 2.0771 9.91523L5.5786 10.9059L7.48229 16.2877L7.57657 16.2543L7.4823 16.2877C7.75562 17.0603 8.37638 17.5546 9.11104 17.5546C9.57168 17.5546 10.0195 17.3635 10.4063 17.0116L10.4063 17.0116L12.5404 15.0689L15.6596 17.5519C15.6612 17.5532 15.6626 17.5543 15.6639 17.5553L15.6918 17.5775L15.6918 17.5775L15.6931 17.5786L15.6971 17.5816L15.7016 17.5851L15.7017 17.5852C16.0701 17.8677 16.4776 18.0209 16.8811 18.021H16.8811H16.8813C17.6764 18.021 18.2973 17.4374 18.4759 16.5655L21.2817 2.86867C21.3987 2.29762 21.3032 1.77235 20.9947 1.39951C20.7266 1.07538 20.327 0.9 19.8754 0.9C19.6305 0.9 19.3737 0.95092 19.1126 1.04957C19.1126 1.04957 19.1126 1.04958 19.1126 1.04958L1.98833 7.5121C1.51988 7.68884 1.24355 7.91394 1.08614 8.14038C0.92845 8.36722 0.89596 8.58698 0.900381 8.74209C0.904802 8.89722 0.949824 9.11481 1.12022 9.33245C1.29033 9.5497 1.57909 9.759 2.0569 9.90931ZM17.0245 4.70037L17.0245 4.70033C16.8219 4.43368 16.4556 4.35028 16.1562 4.50158C16.1561 4.50158 16.1561 4.50159 16.1561 4.50159L6.04168 9.61003L2.77091 8.68489L19.606 2.3315L19.606 2.33149C19.7404 2.28073 19.8294 2.27187 19.8754 2.27187C19.8906 2.27187 19.9084 2.27285 19.9228 2.27573C19.9241 2.27599 19.9253 2.27625 19.9264 2.2765C19.9307 2.2868 19.9379 2.30827 19.9421 2.3451C19.9485 2.40027 19.9472 2.48266 19.924 2.59587L17.1182 16.2927C17.1055 16.3547 17.0797 16.4517 17.0348 16.5307C16.9888 16.6115 16.9382 16.649 16.8811 16.649C16.8034 16.649 16.6875 16.6049 16.5544 16.5038L12.9459 13.6313C12.9438 13.6296 12.9416 13.6279 12.9393 13.6262L10.8794 11.9863L16.9748 5.5831C17.2062 5.34012 17.2272 4.96747 17.0245 4.70037ZM6.96752 10.6824L13.2256 7.52177L9.35736 11.5853C9.27559 11.6711 9.2175 11.7764 9.18889 11.8911C9.18889 11.8911 9.18889 11.8911 9.18888 11.8912L8.44659 14.8637L6.96752 10.6824ZM9.62503 15.8592L10.2732 13.264L11.4483 14.1995L9.62503 15.8592Z" fill="#C94F6E" stroke="#C94F6E" stroke-width="0.2"/>
</svg>
