<svg width="18" height="12" viewBox="0 0 18 12" fill="none" xmlns="http://www.w3.org/2000/svg">
<path d="M0.245162 6.66891L5.60166 11.723C5.92847 12.0923 6.4585 12.0923 6.78531 11.723C7.11219 11.3535 7.11219 10.7546 6.78531 10.3852L2.85759 6.94596L17.163 6.94596C17.6252 6.94596 18 6.5224 18 6.00001C18 5.47769 17.6252 5.05406 17.163 5.05406L2.85759 5.05406L6.78517 1.61485C7.11205 1.2454 7.11205 0.646498 6.78517 0.277048C6.6218 0.092475 6.40754 -8.93904e-07 6.19335 -8.75178e-07C5.97915 -8.56453e-07 5.76496 0.0924751 5.60152 0.277048L0.245162 5.33111C-0.0817171 5.70056 -0.081717 6.29946 0.245162 6.66891Z" fill="#383E42"/>
</svg>
