<svg width="18" height="12" viewBox="0 0 18 12" fill="none" xmlns="http://www.w3.org/2000/svg">
<path d="M17.7548 5.33109L12.3983 0.277028C12.0715 -0.0923455 11.5415 -0.0923454 11.2147 0.277028C10.8878 0.646477 10.8878 1.24538 11.2147 1.61482L15.1424 5.05404L0.836953 5.05404C0.374755 5.05404 9.57734e-07 5.4776 1.04907e-06 5.99999C1.1404e-06 6.52231 0.374755 6.94594 0.836954 6.94594L15.1424 6.94594L11.2148 10.3852C10.8879 10.7546 10.8879 11.3535 11.2148 11.723C11.3782 11.9075 11.5925 12 11.8067 12C12.0208 12 12.235 11.9075 12.3985 11.723L17.7548 6.66889C18.0817 6.29944 18.0817 5.70054 17.7548 5.33109Z" fill="white"/>
</svg>
