<svg width="20" height="20" viewBox="0 0 20 20" fill="none" xmlns="http://www.w3.org/2000/svg">
<g clip-path="url(#clip0_70_1353)">
<path d="M19.4981 14.4159C19.4749 14.3658 19.4532 14.3242 19.4331 14.291C19.0999 13.691 18.4634 12.9546 17.5237 12.0815L17.5038 12.0615L17.4939 12.0517L17.4839 12.0417H17.4738C17.0473 11.6351 16.7772 11.3618 16.6642 11.2218C16.4572 10.9552 16.4109 10.6854 16.524 10.412C16.6039 10.2054 16.904 9.76912 17.4237 9.10256C17.697 8.74931 17.9135 8.46619 18.0734 8.25289C19.2264 6.71999 19.7263 5.74045 19.5729 5.31388L19.5134 5.21419C19.4734 5.15418 19.3701 5.09928 19.2037 5.04921C19.0368 4.99924 18.8237 4.99098 18.5637 5.02428L15.6847 5.04417C15.6381 5.02764 15.5715 5.02918 15.4847 5.04921C15.3981 5.06924 15.3547 5.07929 15.3547 5.07929L15.3046 5.10432L15.2648 5.1344C15.2315 5.15428 15.1948 5.18926 15.1548 5.23926C15.115 5.28909 15.0817 5.34756 15.0551 5.41419C14.7417 6.22059 14.3853 6.97034 13.9853 7.6634C13.7387 8.07666 13.5123 8.43482 13.3054 8.73807C13.0989 9.04122 12.9256 9.26457 12.7858 9.40774C12.6457 9.55105 12.5193 9.66586 12.4058 9.75259C12.2925 9.83935 12.2059 9.87601 12.146 9.8626C12.086 9.84919 12.0294 9.83589 11.9759 9.82258C11.8827 9.76257 11.8077 9.68095 11.7511 9.57766C11.6943 9.47437 11.6561 9.34437 11.6361 9.18775C11.6162 9.03103 11.6044 8.89623 11.6011 8.78289C11.598 8.66969 11.5994 8.50957 11.6062 8.30299C11.6131 8.0963 11.6162 7.95646 11.6162 7.88314C11.6162 7.62985 11.6211 7.35496 11.631 7.0584C11.6411 6.76183 11.6493 6.52685 11.6561 6.35375C11.6629 6.18046 11.6661 5.99713 11.6661 5.80386C11.6661 5.61058 11.6543 5.45901 11.631 5.349C11.6081 5.23912 11.5728 5.13247 11.5264 5.02908C11.4796 4.92579 11.4112 4.84588 11.3214 4.78916C11.2315 4.73251 11.1196 4.68755 10.9866 4.65415C10.6333 4.57421 10.1835 4.53097 9.63688 4.52425C8.39736 4.51094 7.60091 4.59099 7.24769 4.76427C7.10774 4.83748 6.9811 4.93752 6.86786 5.06405C6.74787 5.21073 6.73114 5.29077 6.81776 5.30393C7.21769 5.36384 7.50081 5.50715 7.66744 5.73373L7.72748 5.85379C7.77419 5.94041 7.82083 6.09377 7.8675 6.31366C7.91411 6.53354 7.94418 6.77678 7.95742 7.04323C7.99068 7.52982 7.99068 7.94634 7.95742 8.29284C7.92405 8.63947 7.89254 8.90932 7.86246 9.1026C7.83238 9.29587 7.78743 9.45249 7.72748 9.57241C7.66744 9.69237 7.62748 9.76568 7.60746 9.79229C7.58746 9.8189 7.5708 9.83568 7.55756 9.84226C7.47094 9.87545 7.38085 9.89236 7.28761 9.89236C7.19423 9.89236 7.08099 9.84566 6.94773 9.75231C6.8145 9.65896 6.67623 9.53074 6.53292 9.36744C6.38961 9.2041 6.22799 8.97585 6.04799 8.68264C5.86812 8.38944 5.6815 8.04291 5.48822 7.64305L5.32832 7.35307C5.22835 7.16652 5.0918 6.89488 4.91852 6.53841C4.74513 6.18179 4.59187 5.83684 4.45865 5.50362C4.40539 5.36367 4.32538 5.25712 4.21877 5.1838L4.16873 5.15372C4.13547 5.12711 4.08208 5.09886 4.00883 5.06875C3.93547 5.03867 3.85893 5.0171 3.77889 5.00383L1.03981 5.02372C0.759912 5.02372 0.569999 5.08713 0.47 5.21377L0.429979 5.27368C0.409986 5.30705 0.399902 5.36034 0.399902 5.43369C0.399902 5.50701 0.419895 5.597 0.459916 5.70354C0.859771 6.64331 1.29461 7.54964 1.76442 8.42267C2.23423 9.2957 2.64249 9.99894 2.98895 10.5318C3.33548 11.065 3.6887 11.5683 4.0486 12.0413C4.40851 12.5145 4.64674 12.8178 4.7633 12.951C4.88 13.0845 4.97167 13.1842 5.0383 13.2509L5.28826 13.4907C5.4482 13.6507 5.68307 13.8423 5.99298 14.0655C6.30295 14.2889 6.64612 14.5088 7.02266 14.7255C7.39927 14.942 7.83739 15.1186 8.33728 15.2552C8.8371 15.3919 9.32358 15.4468 9.79679 15.4203H10.9464C11.1796 15.4001 11.3562 15.3268 11.4763 15.2003L11.5161 15.1502C11.5428 15.1104 11.5678 15.0486 11.591 14.9655C11.6143 14.8822 11.626 14.7904 11.626 14.6906C11.6191 14.404 11.641 14.1458 11.6908 13.9159C11.7406 13.6861 11.7974 13.5128 11.8609 13.3961C11.9244 13.2795 11.9961 13.1811 12.0758 13.1014C12.1557 13.0214 12.2126 12.973 12.246 12.9563C12.2792 12.9396 12.3057 12.9282 12.3257 12.9214C12.4857 12.8681 12.6739 12.9197 12.8907 13.0764C13.1073 13.233 13.3105 13.4264 13.5006 13.6563C13.6905 13.8863 13.9187 14.1444 14.1853 14.4309C14.452 14.7175 14.6851 14.9306 14.885 15.0707L15.0849 15.1907C15.2183 15.2707 15.3916 15.3441 15.6049 15.4107C15.8178 15.4773 16.0044 15.4939 16.1646 15.4607L18.7236 15.4207C18.9767 15.4207 19.1737 15.3788 19.3134 15.2957C19.4534 15.2124 19.5365 15.1206 19.5633 15.0208C19.5901 14.9208 19.5915 14.8075 19.5684 14.6807C19.5447 14.5543 19.5214 14.4659 19.4981 14.4159Z" fill="#C94F6E"/>
</g>
<defs>
<clipPath id="clip0_70_1353">
<rect width="19.2" height="19.2" fill="white" transform="translate(0.399902 0.400024)"/>
</clipPath>
</defs>
</svg>
