<svg width="21" height="20" viewBox="0 0 21 20" fill="none" xmlns="http://www.w3.org/2000/svg">
<path fill-rule="evenodd" clip-rule="evenodd" d="M1.81946 15.0306L0.402649 20L5.59206 18.6808C7.09557 19.5139 8.79514 19.9527 10.5308 19.9527C16.1012 19.9527 20.6329 15.4773 20.6329 9.97634C20.6329 4.47537 16.1012 0 10.5308 0C4.96048 0 0.428671 4.47537 0.428671 9.97634C0.428671 11.7629 0.908369 13.5021 1.81946 15.0306ZM6.16648 17.0518L5.85726 16.8654L2.85911 17.6275L3.67501 14.7658L3.46676 14.4455C2.60029 13.1131 2.14223 11.5675 2.14223 9.97589C2.14223 5.40809 5.9053 1.69189 10.5307 1.69189C15.1562 1.69189 18.9192 5.40809 18.9192 9.97589C18.9192 14.5437 15.1562 18.2599 10.5307 18.2599C8.98653 18.2599 7.47737 17.8421 6.16648 17.0518Z" fill="#C94F6E"/>
<path d="M7.56364 5.75156L6.88656 5.71602C6.67388 5.70485 6.46528 5.77328 6.30453 5.90774C5.97628 6.1822 5.45142 6.71283 5.29021 7.4043C5.04981 8.43533 5.42133 9.69783 6.38287 10.9603C7.34442 12.2228 9.13632 14.2428 12.305 15.1056C13.326 15.3836 14.1293 15.1961 14.749 14.8144C15.2398 14.5121 15.5782 14.0269 15.7001 13.4783L15.8082 12.9921C15.8426 12.8376 15.7611 12.6808 15.612 12.6146L13.3237 11.599C13.1751 11.5331 12.999 11.5748 12.899 11.6995L12.0007 12.8208C11.9328 12.9055 11.8167 12.9391 11.7118 12.9036C11.0966 12.6954 9.03582 11.8644 7.90507 9.76714C7.85603 9.67617 7.86823 9.56577 7.93778 9.48819L8.79634 8.53184C8.88405 8.43419 8.90621 8.29689 8.8535 8.17822L7.86711 5.95615C7.8146 5.83786 7.69692 5.75857 7.56364 5.75156Z" fill="#C94F6E"/>
</svg>
