<svg width="18" height="7" viewBox="0 0 18 7" fill="none" xmlns="http://www.w3.org/2000/svg">
<path fill-rule="evenodd" clip-rule="evenodd" d="M3.75399 6.82084C3.52598 7.05969 3.15632 7.05975 2.92825 6.82084L0.17104 3.93253C-0.0569763 3.69367 -0.0570316 3.30644 0.170984 3.06747L2.9282 0.179164C3.15621 -0.0596924 3.52587 -0.0597501 3.75394 0.179164C3.98201 0.418078 3.98195 0.805312 3.75394 1.04417L1.99345 2.88836L8.99278 2.88818C8.99595 2.88818 8.99911 2.88821 9.00227 2.88827L16.0065 2.88836L14.2461 1.04428C14.0181 0.805369 14.0181 0.418136 14.2461 0.179279C14.4741 -0.0595775 14.8439 -0.0595775 15.0719 0.179279L17.829 3.06747C18.057 3.30638 18.057 3.69362 17.829 3.93247L15.0718 6.82078C14.8437 7.05963 14.4741 7.05969 14.246 6.82078C14.0179 6.58186 14.018 6.19463 14.246 5.95577L16.0064 4.1117L8.99289 4.11153L1.99356 4.1117L3.75399 5.95583C3.98206 6.19475 3.98201 6.58198 3.75399 6.82084Z" fill="white"/>
</svg>
