<svg width="36" height="40" viewBox="0 0 36 40" fill="none" xmlns="http://www.w3.org/2000/svg">
<path d="M30.7277 8.99214C30.1971 8.4564 29.3369 8.45659 28.8065 8.99214C28.2759 9.52769 28.2759 10.396 28.8065 10.9316C31.6932 13.8454 33.2829 17.7191 33.2829 21.8395C33.2829 25.9599 31.6932 29.8338 28.8065 32.7475C22.8476 38.7623 13.1522 38.7623 7.19352 32.7475C4.30684 29.8338 2.71731 25.9601 2.71731 21.8395C2.71731 17.7189 4.30702 13.8452 7.19352 10.9316C9.427 8.6771 12.2311 7.21068 15.2759 6.6605L13.2111 9.71602C12.7883 10.3417 12.948 11.1949 13.5679 11.6216C13.8023 11.7829 14.0686 11.8602 14.3321 11.8602C14.7662 11.8602 15.1928 11.6507 15.4558 11.2616L19.1357 5.81558C19.1359 5.81521 19.1362 5.81485 19.1364 5.81467C19.5592 5.18897 19.3994 4.33582 18.7795 3.90906L13.4482 0.238641C12.8278 -0.1883 11.9829 -0.0268487 11.5603 0.598845C11.1375 1.22454 11.2973 2.07769 11.9172 2.50445L14.1988 4.07527C10.8415 4.80025 7.75723 6.48369 5.27214 8.99214C1.87247 12.4238 0 16.9863 0 21.8395C0 26.6928 1.87228 31.2553 5.27214 34.6869C8.78159 38.2293 13.39 40.0005 17.9999 40C22.6087 39.9996 27.219 38.2284 30.7277 34.6869C34.1275 31.2553 36 26.6926 36 21.8395C36 16.9865 34.1275 12.4239 30.7277 8.99214Z" fill="#C94F6E"/>
<path d="M16.6344 19.3447C16.6344 16.864 14.6351 14.8459 12.1776 14.8459C9.72022 14.8459 7.72095 16.8642 7.72095 19.3447C7.72095 20.102 8.32923 20.716 9.07952 20.716C9.82981 20.716 10.4381 20.102 10.4381 19.3447C10.4381 18.3763 11.2184 17.5886 12.1776 17.5886C13.1367 17.5886 13.9173 18.3765 13.9173 19.3447C13.9173 19.8135 13.7363 20.2545 13.4077 20.586C13.3916 20.6023 13.3758 20.6189 13.3606 20.6361L8.07165 26.5416C7.71153 26.9437 7.61988 27.5222 7.83779 28.0177C8.0557 28.5132 8.54243 28.8325 9.07934 28.8325H15.2757C16.026 28.8325 16.6342 28.2185 16.6342 27.4611C16.6342 26.7038 16.026 26.0898 15.2757 26.0898H12.139L15.3552 22.4985C16.1805 21.6521 16.6344 20.5337 16.6344 19.3447Z" fill="#C94F6E"/>
<path fill-rule="evenodd" clip-rule="evenodd" d="M19.2536 25.9533C18.7406 25.9533 18.2713 25.6615 18.0403 25.1991C17.8096 24.7366 17.8565 24.1823 18.1617 23.7661L24.295 15.4015C24.6437 14.9258 25.2558 14.7297 25.8124 14.915C26.3693 15.1004 26.7455 15.6255 26.7455 16.2174V23.2106H26.9203C27.6706 23.2106 28.2789 23.8246 28.2789 24.582C28.2789 25.3393 27.6706 25.9533 26.9203 25.9533H26.7455V27.4614C26.7455 28.2187 26.1372 28.8327 25.3869 28.8327C24.6366 28.8327 24.0284 28.2187 24.0284 27.4614V25.9533H19.2536ZM24.0287 23.2106V20.3752L21.9495 23.2106H24.0287Z" fill="#C94F6E"/>
</svg>
