<svg width="39" height="42" viewBox="0 0 39 42" fill="none" xmlns="http://www.w3.org/2000/svg">
<mask id="path-1-outside-1_68_771" maskUnits="userSpaceOnUse" x="12.3218" y="0" width="9" height="12" fill="black">
<rect fill="white" x="12.3218" width="9" height="12"/>
<path d="M19.1931 1.06352C19.0094 1.14373 14.8816 3.12102 13.6324 6.0934C13.2361 6.99486 13.2182 8.01762 13.5832 8.93243C13.9479 9.84725 14.6647 10.5773 15.5725 10.9586C16.4805 11.34 17.5035 11.3409 18.4121 10.9613C19.3207 10.5814 20.039 9.85268 20.4055 8.9387C21.6546 5.96632 20.1717 1.63125 20.1082 1.44758C20.0459 1.26897 19.9105 1.12523 19.736 1.05218C19.5616 0.978826 19.3642 0.983001 19.193 1.06351L19.1931 1.06352ZM19.1931 8.4109C18.8698 9.18411 18.1583 9.72618 17.3273 9.83267C16.4959 9.93912 15.6709 9.59412 15.163 8.9277C14.6552 8.26095 14.5413 7.3741 14.8648 6.60097C15.6395 4.75759 17.9141 3.28453 19.0696 2.62674C19.4134 3.92919 19.9511 6.57417 19.1764 8.42113L19.1931 8.4109Z"/>
</mask>
<path d="M19.1931 1.06352C19.0094 1.14373 14.8816 3.12102 13.6324 6.0934C13.2361 6.99486 13.2182 8.01762 13.5832 8.93243C13.9479 9.84725 14.6647 10.5773 15.5725 10.9586C16.4805 11.34 17.5035 11.3409 18.4121 10.9613C19.3207 10.5814 20.039 9.85268 20.4055 8.9387C21.6546 5.96632 20.1717 1.63125 20.1082 1.44758C20.0459 1.26897 19.9105 1.12523 19.736 1.05218C19.5616 0.978826 19.3642 0.983001 19.193 1.06351L19.1931 1.06352ZM19.1931 8.4109C18.8698 9.18411 18.1583 9.72618 17.3273 9.83267C16.4959 9.93912 15.6709 9.59412 15.163 8.9277C14.6552 8.26095 14.5413 7.3741 14.8648 6.60097C15.6395 4.75759 17.9141 3.28453 19.0696 2.62674C19.4134 3.92919 19.9511 6.57417 19.1764 8.42113L19.1931 8.4109Z" fill="#C94F6E"/>
<path d="M19.1931 1.06352C19.0094 1.14373 14.8816 3.12102 13.6324 6.0934C13.2361 6.99486 13.2182 8.01762 13.5832 8.93243C13.9479 9.84725 14.6647 10.5773 15.5725 10.9586C16.4805 11.34 17.5035 11.3409 18.4121 10.9613C19.3207 10.5814 20.039 9.85268 20.4055 8.9387C21.6546 5.96632 20.1717 1.63125 20.1082 1.44758C20.0459 1.26897 19.9105 1.12523 19.736 1.05218C19.5616 0.978826 19.3642 0.983001 19.193 1.06351L19.1931 1.06352ZM19.1931 8.4109C18.8698 9.18411 18.1583 9.72618 17.3273 9.83267C16.4959 9.93912 15.6709 9.59412 15.163 8.9277C14.6552 8.26095 14.5413 7.3741 14.8648 6.60097C15.6395 4.75759 17.9141 3.28453 19.0696 2.62674C19.4134 3.92919 19.9511 6.57417 19.1764 8.42113L19.1931 8.4109Z" stroke="#C94F6E" stroke-width="0.6" mask="url(#path-1-outside-1_68_771)"/>
<mask id="path-2-outside-2_68_771" maskUnits="userSpaceOnUse" x="20.9946" y="1.91702" width="14" height="14" fill="black">
<rect fill="white" x="20.9946" y="1.91702" width="14" height="14"/>
<path d="M31.3664 5.5053C31.2161 5.35174 30.9456 5.08456 29.3858 5.25483C28.1802 2.91702 27.9831 2.91702 27.5791 2.91702C27.3089 2.93551 27.0725 3.10488 26.9681 3.35477C26.0932 5.54226 24.186 6.53403 23.1006 7.61617C21.5375 9.17931 21.6446 11.8275 23.3377 13.5209C25.0308 15.2141 27.6793 15.3244 29.2424 13.758C30.2142 12.7862 31.3196 10.7523 33.5038 9.8905C33.7528 9.78762 33.9213 9.55176 33.938 9.2828C33.958 8.86861 33.9648 8.68493 31.6202 7.47606C31.8006 5.93292 31.5102 5.65231 31.3664 5.50536L31.3664 5.5053ZM31.9574 9.17899C30.1006 10.3043 29.0384 12.0744 28.2837 12.816C27.2419 13.8579 25.4417 13.7512 24.276 12.579C23.1104 11.4068 22.9968 9.60659 24.039 8.57132C24.8638 7.74978 26.5637 6.74787 27.6793 4.89763C27.9065 5.30853 28.1737 5.80946 28.4039 6.26367H28.4042C28.5327 6.51861 28.8091 6.66354 29.0921 6.62418C29.5036 6.56514 29.9187 6.53174 30.3343 6.52399C30.3278 6.9346 30.292 7.3443 30.2276 7.74988C30.1832 8.03524 30.3275 8.31703 30.5848 8.44793C31.0324 8.69155 31.5435 8.95873 31.9542 9.18923L31.9574 9.17899Z"/>
</mask>
<path d="M31.3664 5.5053C31.2161 5.35174 30.9456 5.08456 29.3858 5.25483C28.1802 2.91702 27.9831 2.91702 27.5791 2.91702C27.3089 2.93551 27.0725 3.10488 26.9681 3.35477C26.0932 5.54226 24.186 6.53403 23.1006 7.61617C21.5375 9.17931 21.6446 11.8275 23.3377 13.5209C25.0308 15.2141 27.6793 15.3244 29.2424 13.758C30.2142 12.7862 31.3196 10.7523 33.5038 9.8905C33.7528 9.78762 33.9213 9.55176 33.938 9.2828C33.958 8.86861 33.9648 8.68493 31.6202 7.47606C31.8006 5.93292 31.5102 5.65231 31.3664 5.50536L31.3664 5.5053ZM31.9574 9.17899C30.1006 10.3043 29.0384 12.0744 28.2837 12.816C27.2419 13.8579 25.4417 13.7512 24.276 12.579C23.1104 11.4068 22.9968 9.60659 24.039 8.57132C24.8638 7.74978 26.5637 6.74787 27.6793 4.89763C27.9065 5.30853 28.1737 5.80946 28.4039 6.26367H28.4042C28.5327 6.51861 28.8091 6.66354 29.0921 6.62418C29.5036 6.56514 29.9187 6.53174 30.3343 6.52399C30.3278 6.9346 30.292 7.3443 30.2276 7.74988C30.1832 8.03524 30.3275 8.31703 30.5848 8.44793C31.0324 8.69155 31.5435 8.95873 31.9542 9.18923L31.9574 9.17899Z" fill="#C94F6E"/>
<path d="M31.3664 5.5053C31.2161 5.35174 30.9456 5.08456 29.3858 5.25483C28.1802 2.91702 27.9831 2.91702 27.5791 2.91702C27.3089 2.93551 27.0725 3.10488 26.9681 3.35477C26.0932 5.54226 24.186 6.53403 23.1006 7.61617C21.5375 9.17931 21.6446 11.8275 23.3377 13.5209C25.0308 15.2141 27.6793 15.3244 29.2424 13.758C30.2142 12.7862 31.3196 10.7523 33.5038 9.8905C33.7528 9.78762 33.9213 9.55176 33.938 9.2828C33.958 8.86861 33.9648 8.68493 31.6202 7.47606C31.8006 5.93292 31.5102 5.65231 31.3664 5.50536L31.3664 5.5053ZM31.9574 9.17899C30.1006 10.3043 29.0384 12.0744 28.2837 12.816C27.2419 13.8579 25.4417 13.7512 24.276 12.579C23.1104 11.4068 22.9968 9.60659 24.039 8.57132C24.8638 7.74978 26.5637 6.74787 27.6793 4.89763C27.9065 5.30853 28.1737 5.80946 28.4039 6.26367H28.4042C28.5327 6.51861 28.8091 6.66354 29.0921 6.62418C29.5036 6.56514 29.9187 6.53174 30.3343 6.52399C30.3278 6.9346 30.292 7.3443 30.2276 7.74988C30.1832 8.03524 30.3275 8.31703 30.5848 8.44793C31.0324 8.69155 31.5435 8.95873 31.9542 9.18923L31.9574 9.17899Z" stroke="#C94F6E" stroke-width="0.6" mask="url(#path-2-outside-2_68_771)"/>
<mask id="path-3-outside-3_68_771" maskUnits="userSpaceOnUse" x="30.156" y="21.8266" width="9" height="7" fill="black">
<rect fill="white" x="30.156" y="21.8266" width="9" height="7"/>
<path d="M33.0092 22.9655C32.1334 23.241 31.4628 23.9507 31.2373 24.8408C31.0116 25.7309 31.263 26.6741 31.9017 27.3339C32.5401 27.9935 33.4749 28.2753 34.3719 28.0785C36.506 27.5042 38.2125 24.909 38.2826 24.799C38.3855 24.6401 38.4165 24.4454 38.3673 24.2626C38.3184 24.0798 38.194 23.9265 38.0255 23.8403C37.9185 23.7804 35.1432 22.3912 33.0091 22.9655L33.0092 22.9655ZM34.038 26.7862C33.7019 26.876 33.3438 26.8292 33.042 26.6559C32.7405 26.4827 32.5196 26.1967 32.4283 25.8609C32.2178 25.0761 32.6755 24.1609 34.1381 24.1609V24.1612C35.0207 24.1967 35.8909 24.3843 36.7097 24.7156C36.0785 25.4805 35.0599 26.5121 34.038 26.7862L34.038 26.7862Z"/>
</mask>
<path d="M33.0092 22.9655C32.1334 23.241 31.4628 23.9507 31.2373 24.8408C31.0116 25.7309 31.263 26.6741 31.9017 27.3339C32.5401 27.9935 33.4749 28.2753 34.3719 28.0785C36.506 27.5042 38.2125 24.909 38.2826 24.799C38.3855 24.6401 38.4165 24.4454 38.3673 24.2626C38.3184 24.0798 38.194 23.9265 38.0255 23.8403C37.9185 23.7804 35.1432 22.3912 33.0091 22.9655L33.0092 22.9655ZM34.038 26.7862C33.7019 26.876 33.3438 26.8292 33.042 26.6559C32.7405 26.4827 32.5196 26.1967 32.4283 25.8609C32.2178 25.0761 32.6755 24.1609 34.1381 24.1609V24.1612C35.0207 24.1967 35.8909 24.3843 36.7097 24.7156C36.0785 25.4805 35.0599 26.5121 34.038 26.7862L34.038 26.7862Z" fill="#C94F6E"/>
<path d="M33.0092 22.9655C32.1334 23.241 31.4628 23.9507 31.2373 24.8408C31.0116 25.7309 31.263 26.6741 31.9017 27.3339C32.5401 27.9935 33.4749 28.2753 34.3719 28.0785C36.506 27.5042 38.2125 24.909 38.2826 24.799C38.3855 24.6401 38.4165 24.4454 38.3673 24.2626C38.3184 24.0798 38.194 23.9265 38.0255 23.8403C37.9185 23.7804 35.1432 22.3912 33.0091 22.9655L33.0092 22.9655ZM34.038 26.7862C33.7019 26.876 33.3438 26.8292 33.042 26.6559C32.7405 26.4827 32.5196 26.1967 32.4283 25.8609C32.2178 25.0761 32.6755 24.1609 34.1381 24.1609V24.1612C35.0207 24.1967 35.8909 24.3843 36.7097 24.7156C36.0785 25.4805 35.0599 26.5121 34.038 26.7862L34.038 26.7862Z" stroke="#C94F6E" stroke-width="0.6" mask="url(#path-3-outside-3_68_771)"/>
<mask id="path-4-outside-4_68_771" maskUnits="userSpaceOnUse" x="0" y="7.26871" width="36" height="35" fill="black">
<rect fill="white" y="7.26871" width="36" height="35"/>
<path d="M14.6678 39.6641C14.2989 39.6641 13.9998 39.9632 13.9998 40.332C13.9998 40.7009 14.2989 41 14.6678 41C17.0957 41 18.3415 38.4887 17.2695 36.361C16.6886 35.2592 15.6921 34.4344 14.5008 34.07L30.5543 29.2841C30.7872 29.2158 30.9646 29.0271 31.018 28.7903C31.0714 28.5538 30.9923 28.3069 30.8116 28.1453L27.0813 24.8056H27.081C27.5584 24.757 28.0209 24.6115 28.4405 24.3783C29.3923 23.8573 31.0353 22.4079 31.8938 22.0738C32.9586 21.7858 34.0378 21.5529 35.1265 21.3758C35.3999 21.3266 35.6146 21.1131 35.665 20.8396C35.7154 20.5665 35.5914 20.2904 35.3537 20.1467L32.0808 18.1827L32.8054 14.4357C32.8579 14.1614 32.7338 13.8834 32.495 13.7388C32.2558 13.5942 31.952 13.6139 31.7334 13.7877C30.9017 14.4667 30.0358 15.1022 29.1386 15.6914C28.3004 16.119 26.0795 16.3895 25.0372 16.7536C24.2488 17.0523 23.5776 17.5968 23.1223 18.3065C22.6672 19.0162 22.4522 19.8533 22.5092 20.6944L19.9108 18.3566C21.21 16.1125 20.5486 12.5521 20.5185 12.3985C20.4806 12.2163 20.3679 12.058 20.2081 11.9622C20.0482 11.8665 19.8559 11.8418 19.677 11.8942C19.5434 11.9378 16.6444 12.8359 15.0915 14.663C13.913 12.7459 12.8664 10.7507 11.959 8.6914C11.8549 8.4278 11.5961 8.25872 11.3128 8.26916C11.0299 8.2796 10.7841 8.46776 10.6998 8.73821L4.74849 27.5574L1.59244 29.7649C1.42874 29.8821 1.32496 30.0652 1.30856 30.2659L1.01127 34.434C0.974589 35.025 1.01127 35.3993 1.3685 35.5964L6.92259 38.0177C7.73755 38.3517 8.13832 38.425 8.42222 38.168C8.51227 38.0878 10.2623 36.3377 10.2623 36.3377C10.4218 36.8482 10.7946 37.265 11.2845 37.4801C11.7745 37.6953 12.3332 37.6879 12.8172 37.4598C13.1419 37.2827 13.2615 36.8759 13.0844 36.5515C12.9073 36.2268 12.5005 36.1072 12.1761 36.2843C11.9122 36.4281 11.1241 36.1039 11.7151 34.9753C12.627 34.9753 15.1616 35.1289 16.0735 36.9559C16.6714 38.1579 16.1304 39.6641 14.6675 39.6641L14.6678 39.6641ZM25.4816 18.009C26.4835 17.675 28.6677 17.4245 29.743 16.8768C30.235 16.5842 30.708 16.2607 31.1591 15.9082L30.6981 18.3832C30.6453 18.6578 30.7691 18.9363 31.0088 19.0809L33.1797 20.3834C32.5854 20.4922 31.9985 20.6383 31.4227 20.8211C30.3174 21.2553 28.7042 22.7147 27.8158 23.2025C26.4567 23.9506 24.7367 23.1458 24.112 21.7395C23.4876 20.3333 24.0187 18.5233 25.4815 18.0089L25.4816 18.009ZM19.3129 13.447C19.4131 14.4489 19.4766 16.1957 18.8853 17.4546L17.7865 16.4527H17.7868C17.6544 16.3331 17.4796 16.2714 17.3013 16.2815C17.123 16.2914 16.9563 16.3725 16.8382 16.5061L16.4708 16.9235L15.8262 15.8948C16.6044 14.6793 18.3211 13.8444 19.3129 13.447H19.3129ZM11.4411 10.7752C12.6741 13.2439 14.0455 15.6413 15.5489 17.9555L6.46184 28.2121L6.07121 27.8012L11.4411 10.7752ZM2.6212 30.6769L5.22618 28.8534L5.56016 29.2175L2.47418 32.7072L2.6212 30.6769ZM7.79452 36.9189C6.98284 36.6183 4.72198 35.6396 2.53448 34.658L6.49535 30.1894L10.396 34.3205C9.45759 35.2556 8.29521 36.4213 7.79429 36.9189H7.79452ZM11.5317 33.5792L7.38361 29.1875L17.4028 17.8988L29.028 28.3417L11.5317 33.5792Z"/>
</mask>
<path d="M14.6678 39.6641C14.2989 39.6641 13.9998 39.9632 13.9998 40.332C13.9998 40.7009 14.2989 41 14.6678 41C17.0957 41 18.3415 38.4887 17.2695 36.361C16.6886 35.2592 15.6921 34.4344 14.5008 34.07L30.5543 29.2841C30.7872 29.2158 30.9646 29.0271 31.018 28.7903C31.0714 28.5538 30.9923 28.3069 30.8116 28.1453L27.0813 24.8056H27.081C27.5584 24.757 28.0209 24.6115 28.4405 24.3783C29.3923 23.8573 31.0353 22.4079 31.8938 22.0738C32.9586 21.7858 34.0378 21.5529 35.1265 21.3758C35.3999 21.3266 35.6146 21.1131 35.665 20.8396C35.7154 20.5665 35.5914 20.2904 35.3537 20.1467L32.0808 18.1827L32.8054 14.4357C32.8579 14.1614 32.7338 13.8834 32.495 13.7388C32.2558 13.5942 31.952 13.6139 31.7334 13.7877C30.9017 14.4667 30.0358 15.1022 29.1386 15.6914C28.3004 16.119 26.0795 16.3895 25.0372 16.7536C24.2488 17.0523 23.5776 17.5968 23.1223 18.3065C22.6672 19.0162 22.4522 19.8533 22.5092 20.6944L19.9108 18.3566C21.21 16.1125 20.5486 12.5521 20.5185 12.3985C20.4806 12.2163 20.3679 12.058 20.2081 11.9622C20.0482 11.8665 19.8559 11.8418 19.677 11.8942C19.5434 11.9378 16.6444 12.8359 15.0915 14.663C13.913 12.7459 12.8664 10.7507 11.959 8.6914C11.8549 8.4278 11.5961 8.25872 11.3128 8.26916C11.0299 8.2796 10.7841 8.46776 10.6998 8.73821L4.74849 27.5574L1.59244 29.7649C1.42874 29.8821 1.32496 30.0652 1.30856 30.2659L1.01127 34.434C0.974589 35.025 1.01127 35.3993 1.3685 35.5964L6.92259 38.0177C7.73755 38.3517 8.13832 38.425 8.42222 38.168C8.51227 38.0878 10.2623 36.3377 10.2623 36.3377C10.4218 36.8482 10.7946 37.265 11.2845 37.4801C11.7745 37.6953 12.3332 37.6879 12.8172 37.4598C13.1419 37.2827 13.2615 36.8759 13.0844 36.5515C12.9073 36.2268 12.5005 36.1072 12.1761 36.2843C11.9122 36.4281 11.1241 36.1039 11.7151 34.9753C12.627 34.9753 15.1616 35.1289 16.0735 36.9559C16.6714 38.1579 16.1304 39.6641 14.6675 39.6641L14.6678 39.6641ZM25.4816 18.009C26.4835 17.675 28.6677 17.4245 29.743 16.8768C30.235 16.5842 30.708 16.2607 31.1591 15.9082L30.6981 18.3832C30.6453 18.6578 30.7691 18.9363 31.0088 19.0809L33.1797 20.3834C32.5854 20.4922 31.9985 20.6383 31.4227 20.8211C30.3174 21.2553 28.7042 22.7147 27.8158 23.2025C26.4567 23.9506 24.7367 23.1458 24.112 21.7395C23.4876 20.3333 24.0187 18.5233 25.4815 18.0089L25.4816 18.009ZM19.3129 13.447C19.4131 14.4489 19.4766 16.1957 18.8853 17.4546L17.7865 16.4527H17.7868C17.6544 16.3331 17.4796 16.2714 17.3013 16.2815C17.123 16.2914 16.9563 16.3725 16.8382 16.5061L16.4708 16.9235L15.8262 15.8948C16.6044 14.6793 18.3211 13.8444 19.3129 13.447H19.3129ZM11.4411 10.7752C12.6741 13.2439 14.0455 15.6413 15.5489 17.9555L6.46184 28.2121L6.07121 27.8012L11.4411 10.7752ZM2.6212 30.6769L5.22618 28.8534L5.56016 29.2175L2.47418 32.7072L2.6212 30.6769ZM7.79452 36.9189C6.98284 36.6183 4.72198 35.6396 2.53448 34.658L6.49535 30.1894L10.396 34.3205C9.45759 35.2556 8.29521 36.4213 7.79429 36.9189H7.79452ZM11.5317 33.5792L7.38361 29.1875L17.4028 17.8988L29.028 28.3417L11.5317 33.5792Z" fill="#C94F6E"/>
<path d="M14.6678 39.6641C14.2989 39.6641 13.9998 39.9632 13.9998 40.332C13.9998 40.7009 14.2989 41 14.6678 41C17.0957 41 18.3415 38.4887 17.2695 36.361C16.6886 35.2592 15.6921 34.4344 14.5008 34.07L30.5543 29.2841C30.7872 29.2158 30.9646 29.0271 31.018 28.7903C31.0714 28.5538 30.9923 28.3069 30.8116 28.1453L27.0813 24.8056H27.081C27.5584 24.757 28.0209 24.6115 28.4405 24.3783C29.3923 23.8573 31.0353 22.4079 31.8938 22.0738C32.9586 21.7858 34.0378 21.5529 35.1265 21.3758C35.3999 21.3266 35.6146 21.1131 35.665 20.8396C35.7154 20.5665 35.5914 20.2904 35.3537 20.1467L32.0808 18.1827L32.8054 14.4357C32.8579 14.1614 32.7338 13.8834 32.495 13.7388C32.2558 13.5942 31.952 13.6139 31.7334 13.7877C30.9017 14.4667 30.0358 15.1022 29.1386 15.6914C28.3004 16.119 26.0795 16.3895 25.0372 16.7536C24.2488 17.0523 23.5776 17.5968 23.1223 18.3065C22.6672 19.0162 22.4522 19.8533 22.5092 20.6944L19.9108 18.3566C21.21 16.1125 20.5486 12.5521 20.5185 12.3985C20.4806 12.2163 20.3679 12.058 20.2081 11.9622C20.0482 11.8665 19.8559 11.8418 19.677 11.8942C19.5434 11.9378 16.6444 12.8359 15.0915 14.663C13.913 12.7459 12.8664 10.7507 11.959 8.6914C11.8549 8.4278 11.5961 8.25872 11.3128 8.26916C11.0299 8.2796 10.7841 8.46776 10.6998 8.73821L4.74849 27.5574L1.59244 29.7649C1.42874 29.8821 1.32496 30.0652 1.30856 30.2659L1.01127 34.434C0.974589 35.025 1.01127 35.3993 1.3685 35.5964L6.92259 38.0177C7.73755 38.3517 8.13832 38.425 8.42222 38.168C8.51227 38.0878 10.2623 36.3377 10.2623 36.3377C10.4218 36.8482 10.7946 37.265 11.2845 37.4801C11.7745 37.6953 12.3332 37.6879 12.8172 37.4598C13.1419 37.2827 13.2615 36.8759 13.0844 36.5515C12.9073 36.2268 12.5005 36.1072 12.1761 36.2843C11.9122 36.4281 11.1241 36.1039 11.7151 34.9753C12.627 34.9753 15.1616 35.1289 16.0735 36.9559C16.6714 38.1579 16.1304 39.6641 14.6675 39.6641L14.6678 39.6641ZM25.4816 18.009C26.4835 17.675 28.6677 17.4245 29.743 16.8768C30.235 16.5842 30.708 16.2607 31.1591 15.9082L30.6981 18.3832C30.6453 18.6578 30.7691 18.9363 31.0088 19.0809L33.1797 20.3834C32.5854 20.4922 31.9985 20.6383 31.4227 20.8211C30.3174 21.2553 28.7042 22.7147 27.8158 23.2025C26.4567 23.9506 24.7367 23.1458 24.112 21.7395C23.4876 20.3333 24.0187 18.5233 25.4815 18.0089L25.4816 18.009ZM19.3129 13.447C19.4131 14.4489 19.4766 16.1957 18.8853 17.4546L17.7865 16.4527H17.7868C17.6544 16.3331 17.4796 16.2714 17.3013 16.2815C17.123 16.2914 16.9563 16.3725 16.8382 16.5061L16.4708 16.9235L15.8262 15.8948C16.6044 14.6793 18.3211 13.8444 19.3129 13.447H19.3129ZM11.4411 10.7752C12.6741 13.2439 14.0455 15.6413 15.5489 17.9555L6.46184 28.2121L6.07121 27.8012L11.4411 10.7752ZM2.6212 30.6769L5.22618 28.8534L5.56016 29.2175L2.47418 32.7072L2.6212 30.6769ZM7.79452 36.9189C6.98284 36.6183 4.72198 35.6396 2.53448 34.658L6.49535 30.1894L10.396 34.3205C9.45759 35.2556 8.29521 36.4213 7.79429 36.9189H7.79452ZM11.5317 33.5792L7.38361 29.1875L17.4028 17.8988L29.028 28.3417L11.5317 33.5792Z" stroke="#C94F6E" stroke-width="0.6" mask="url(#path-4-outside-4_68_771)"/>
</svg>
