<svg width="38" height="40" viewBox="0 0 38 40" fill="none" xmlns="http://www.w3.org/2000/svg">
<path d="M0.517705 29.4776C0.163681 29.7405 -0.0303199 30.1669 0.00394881 30.6068C0.0385173 31.0463 0.296583 31.4376 0.687263 31.642C1.07824 31.8467 1.54673 31.836 1.92756 31.6137L12.1807 24.8637C12.3997 24.7335 12.653 24.6739 12.9069 24.693H12.9925L22.5621 24.9492C22.9304 24.9704 23.2245 25.2642 23.2457 25.6328C23.271 26.0188 22.9891 26.357 22.6047 26.4017L18.1189 26.9142C17.4272 26.9941 16.8174 27.4065 16.4858 28.0189C16.1541 28.6313 16.1419 29.3671 16.4527 29.9902L17.1364 31.3574C17.3059 31.704 17.5664 31.9984 17.8897 32.2091C18.2133 32.4198 18.5876 32.5387 18.9735 32.5536L25.2962 32.8099C25.5683 32.8194 25.8368 32.7449 26.0651 32.5962L33.3279 27.5123C33.4978 27.3987 33.7058 27.3573 33.9061 27.3976C34.1066 27.4375 34.2827 27.5558 34.396 27.726H34.4386C34.6511 28.0472 34.576 28.4781 34.2675 28.7085L25.0824 35.2877C24.8241 35.4761 24.501 35.553 24.1854 35.5014L11.1127 33.5361C10.764 33.4827 10.4085 33.5754 10.1301 33.7923L5.00365 37.6801C4.6374 37.9626 4.44937 38.4188 4.51076 38.8771C4.57215 39.3354 4.87342 39.7264 5.30103 39.9025C5.72896 40.0786 6.21801 40.0131 6.5842 39.7306L11.2837 36.1847L23.8438 38.0645C24.8234 38.2114 25.8211 37.9659 26.6206 37.3812L35.7629 30.8445C36.4564 30.3391 36.9251 29.5828 37.0688 28.7367C37.2124 27.8907 37.0196 27.022 36.5321 26.3161H36.4892C35.9817 25.6009 35.2129 25.1146 34.3489 24.9626C33.4853 24.8106 32.5963 25.0055 31.8752 25.5044L24.9118 30.2039L19.2724 29.9902L19.0161 29.3921L22.9039 28.9648V28.9651C23.7305 28.8685 24.4901 28.4624 25.0292 27.8279C25.5683 27.1938 25.8469 26.3787 25.8088 25.5473C25.7661 24.7194 25.4121 23.9381 24.8182 23.3599C24.224 22.7815 23.4335 22.449 22.6047 22.4287L13.0778 22.1295C12.2783 22.0797 11.484 22.2895 10.8135 22.7276L0.517705 29.4776Z" fill="#C94F6E"/>
<path d="M23.5446 20.5061C24.0235 20.7031 24.561 20.7031 25.04 20.5061C33.4988 17.0458 36.3612 10.6375 35.464 5.85269C34.7375 2.30681 32.1744 0.0425688 28.9273 0.0425688C27.2657 0.0932288 25.6517 0.611451 24.2708 1.53767C22.8835 0.586428 21.2526 0.0527152 19.5716 0C16.2819 0 13.7188 2.30681 13.0352 5.85276C12.0953 10.723 15.0002 17.1312 23.5446 20.5062L23.5446 20.5061ZM15.5557 6.32262C15.983 4.01582 17.521 2.56306 19.5716 2.56306C20.7678 2.56306 22.135 3.07562 23.5019 4.10103C23.7236 4.26732 23.9936 4.35731 24.2708 4.35731C24.5482 4.35731 24.8179 4.26732 25.0399 4.10103C26.4071 3.11851 27.7314 2.60563 28.9276 2.60563C30.9355 2.60563 32.4735 4.01543 32.9435 6.32232C33.6697 10.039 31.2774 15.1229 24.2711 18.028C17.2644 15.1657 14.8296 10.1245 15.5559 6.32232L15.5557 6.32262Z" fill="#C94F6E"/>
</svg>
