<svg width="40" height="40" viewBox="0 0 40 40" fill="none" xmlns="http://www.w3.org/2000/svg">
<path fill-rule="evenodd" clip-rule="evenodd" d="M38.627 17.8573C38.1695 17.3997 37.4274 17.3997 36.9698 17.8573C36.5121 18.315 36.5121 19.057 36.9698 19.5146C37.4124 19.9573 37.6562 20.5459 37.6562 21.1719C37.6562 22.4423 36.5472 23.5156 35.2344 23.5156H35.1821C35.1816 23.5102 35.1812 23.5048 35.1808 23.4995C35.1802 23.4923 35.1797 23.4851 35.179 23.478C34.8891 20.3052 33.369 17.3649 30.8988 15.1985C28.8276 13.3821 26.2445 12.2362 23.513 11.9006L23.5141 11.8624C23.5149 11.8406 23.5156 11.8188 23.5156 11.7969C23.5156 9.21219 21.4128 7.10938 18.8281 7.10938C16.2434 7.10938 14.1406 9.21219 14.1406 11.7969C14.1406 11.8065 14.141 11.816 14.1413 11.8255C14.1415 11.8311 14.1417 11.8368 14.1418 11.8425C14.1419 11.8451 14.1419 11.8477 14.142 11.8503C13.4305 11.9145 12.7276 12.0361 12.0388 12.2165C10.4769 10.4505 8.29547 9.4532 5.9375 9.4532C5.21352 9.4532 4.66266 10.1041 4.78156 10.8177L5.67031 16.1494C4.36336 17.6073 3.41602 19.34 2.89172 21.2273C1.24977 21.5227 0 22.9619 0 24.6876V27.0313C0 29.0341 1.66336 30.5429 3.44695 30.5473L3.82828 30.5477C4.62945 32.1142 5.74859 33.5076 7.10938 34.6316V38.8282C7.10938 39.4754 7.63406 40.0001 8.28125 40.0001H12.9688C13.6159 40.0001 14.1406 39.4754 14.1406 38.8282V37.5782H21.1719V38.8282C21.1719 39.4754 21.6966 40.0001 22.3438 40.0001H27.0312C27.6784 40.0001 28.2031 39.4754 28.2031 38.8282V36.1727C32.1734 34.1473 34.7768 30.237 35.1786 25.8595H35.2344C36.4846 25.8595 37.6711 25.3762 38.5754 24.499C39.4941 23.6077 40 22.4261 40 21.172C40 19.9198 39.5124 18.7427 38.627 17.8573ZM18.8281 9.45312C20.1205 9.45312 21.1719 10.5045 21.1719 11.7969C21.1719 13.0892 20.1205 14.1406 18.8281 14.1406C17.5358 14.1406 16.4844 13.0892 16.4844 11.7969C16.4844 10.5045 17.5358 9.45312 18.8281 9.45312ZM25.8594 35.431C25.8594 34.9652 26.1352 34.5436 26.562 34.3572C30.7364 32.5333 33.2612 28.247 32.845 23.6911C32.3818 18.6229 28.1489 14.6506 22.8587 14.1861C22.0407 15.5608 20.5405 16.4843 18.8281 16.4843C17.103 16.4843 15.5936 15.5468 14.7798 14.1552C13.8257 14.2026 12.8884 14.3758 11.987 14.675C11.5021 14.836 10.9687 14.6642 10.6688 14.2504C9.82992 13.0927 8.66336 12.3015 7.34992 11.9708L8.0775 16.3359C8.13922 16.7064 8.01969 17.084 7.75602 17.3515C6.34023 18.7872 5.37906 20.594 4.97656 22.5768C4.8657 23.1229 4.38547 23.5155 3.82812 23.5155H3.51547C2.86945 23.5155 2.34375 24.0412 2.34375 24.6874V27.0311C2.34375 27.6773 2.86945 28.203 3.51562 28.203C3.52703 28.203 3.53836 28.2032 3.54977 28.2035C3.70258 28.2038 4.00508 28.2041 4.57078 28.2047C5.03609 28.2051 5.45695 28.4807 5.64336 28.9072C6.37102 30.5718 7.52656 32.0307 8.98508 33.1262C9.27969 33.3476 9.45312 33.6947 9.45312 34.0632V37.6561H11.7969V33.828C11.7969 33.1808 12.3216 32.6561 12.9687 32.6561C13.6159 32.6561 14.1406 33.1808 14.1406 33.828V35.2343H21.1719V34.0624C21.1719 33.4152 21.6966 32.8905 22.3437 32.8905C22.9909 32.8905 23.5156 33.4152 23.5156 34.0624V37.6561H25.8594V35.431Z" fill="#C94F6E"/>
<path d="M8.28125 23.5156C8.92846 23.5156 9.45312 22.991 9.45312 22.3438C9.45312 21.6965 8.92846 21.1719 8.28125 21.1719C7.63404 21.1719 7.10938 21.6965 7.10938 22.3438C7.10938 22.991 7.63404 23.5156 8.28125 23.5156Z" fill="#C94F6E"/>
<path d="M22.3438 18.8281H15.3125C14.6653 18.8281 14.1406 19.3528 14.1406 20C14.1406 20.6472 14.6653 21.1719 15.3125 21.1719H22.3438C22.9909 21.1719 23.5156 20.6472 23.5156 20C23.5156 19.3528 22.9909 18.8281 22.3438 18.8281Z" fill="#C94F6E"/>
<path fill-rule="evenodd" clip-rule="evenodd" d="M23.5156 4.6875C23.5156 2.10281 25.6184 0 28.2031 0C30.7878 0 32.8906 2.10281 32.8906 4.6875C32.8906 7.27219 30.7878 9.375 28.2031 9.375C25.6184 9.375 23.5156 7.27219 23.5156 4.6875ZM25.8594 4.6875C25.8594 5.97984 26.9108 7.03125 28.2031 7.03125C29.4955 7.03125 30.5469 5.97984 30.5469 4.6875C30.5469 3.39516 29.4955 2.34375 28.2031 2.34375C26.9108 2.34375 25.8594 3.39516 25.8594 4.6875Z" fill="#C94F6E"/>
</svg>
