<svg width="611" height="713" viewBox="0 0 611 713" fill="none" xmlns="http://www.w3.org/2000/svg">
<path opacity="0.88" fill-rule="evenodd" clip-rule="evenodd" d="M506.46 463.74C505.088 465.718 503.469 467.467 501.602 468.987C499.011 460.816 496.127 452.738 492.951 444.753C488.345 440.115 482.911 436.848 476.649 434.952C461.959 430.238 447.483 424.948 433.22 419.081C417.552 411.543 403.212 402.009 390.201 390.481C381.224 381.036 374.126 370.341 368.906 358.398C362.466 350.7 355.511 343.493 348.039 336.779C343.62 333.411 338.676 331.299 333.205 330.44C316.227 329.763 299.53 331.724 283.115 336.325C269.23 340.795 255.144 344.522 240.857 347.507C217.586 351.163 194.872 348.955 172.716 340.884C164.25 337.014 156.404 332.141 149.178 326.263C135.185 314.533 121.909 302.044 109.348 288.794C107.945 287.221 106.674 285.549 105.534 283.778C103.682 279.939 101.696 276.171 99.5762 272.475C98.3936 270.884 97.0292 269.464 95.4823 268.215C90.3991 265.087 85.1373 262.284 79.6961 259.807C73.2087 255.122 66.6618 250.528 60.0558 246.026C56.9981 244.324 53.7368 243.234 50.2722 242.755C38.735 243.302 27.1977 243.849 15.6605 244.396C11.2358 244.223 6.83087 243.74 2.4541 242.953C1.64873 242.63 0.93192 242.164 0.307062 241.558C0.582598 241.092 0.968783 240.749 1.46166 240.525C12.8661 238.783 24.3244 237.52 35.8365 236.736C46.5231 234.35 57.081 231.494 67.5104 228.17C88.5544 220.065 110.069 213.586 132.054 208.733C144.901 206.712 157.805 205.411 170.765 204.828C180.395 204.382 189.649 206.141 198.528 210.103C206.346 214.556 214.3 218.753 222.386 222.695C228.543 225.027 234.88 226.623 241.398 227.485C252.837 231.141 263.135 236.892 272.294 244.737C286.405 256.117 299.164 268.845 310.571 282.921C318.943 294.61 327.579 306.101 336.479 317.395C345.323 325.202 353.829 333.325 361.998 341.763C357.19 328.415 351.525 315.388 345.005 302.683C341.683 294.471 340.749 285.997 342.202 277.26C341.502 267.612 340.555 257.931 339.363 248.216C339.148 238.552 341.277 229.378 345.752 220.693C347.163 217.409 347.165 214.146 345.76 210.906C346.209 209.699 346.436 208.465 346.44 207.207C343.244 197.946 342.443 188.49 344.038 178.841C344.879 171.325 346.609 164.006 349.228 156.886C350.17 152.387 351.128 147.932 352.104 143.521C352.492 142.159 353.142 140.939 354.057 139.863C367.468 145.623 379.94 153.007 391.472 162.014C397.154 166.933 401.777 172.705 405.341 179.331C406.524 180.922 407.888 182.342 409.435 183.591C420.114 189.331 430.677 195.294 441.126 201.481C451.208 207.567 460.67 214.498 469.512 222.272C476.888 231.019 482.9 240.625 487.548 251.089C491.722 259.6 494.87 268.433 496.994 277.592C499.933 294.396 502.16 311.305 503.673 328.32C503.677 338.231 502.952 348.096 501.499 357.916C498.739 372.91 495.676 387.865 492.311 402.782C491.079 411.595 491.324 420.387 493.044 429.158C497.814 440.602 502.286 452.13 506.46 463.74ZM490.014 436.197C486.596 433.955 482.938 432.003 479.039 430.34C464.37 425.722 450 420.3 435.93 414.071C420.574 407.002 406.526 397.92 393.784 386.824C389.234 382.578 385.101 377.959 381.384 372.969C382.481 373.144 383.039 372.719 383.056 371.698C380.55 367.124 377.769 362.719 374.714 358.483C381.666 363.568 389.036 367.95 396.821 371.63C412.834 377.873 428.953 383.827 445.18 389.494C458.473 394.434 470.057 401.976 479.93 412.12C483.305 420.173 486.667 428.198 490.014 436.197ZM488.201 416.464C482.021 401.59 475.271 386.932 467.95 372.487C465.474 360.987 464.437 349.384 464.838 337.675C466.119 324.078 467.642 310.5 469.408 296.942C471.056 275.699 469.575 254.6 464.967 233.645C463.93 229.728 462.66 225.881 461.158 222.105C476.862 237.69 487.242 256.237 492.299 277.747C497.177 298.982 499.426 320.48 499.046 342.24C496.947 359.948 493.935 377.556 490.01 395.062C489.095 402.19 488.492 409.324 488.201 416.464ZM475.959 404.041C464.125 393.031 450.5 385.049 435.084 380.097C422.319 376.106 409.646 371.825 397.063 367.254C385.742 363.238 376.2 356.68 368.437 347.577C364.495 336.471 360.261 325.461 355.736 314.547C366.03 323.032 377.402 329.752 389.851 334.706C401.572 339.265 413.211 344.022 424.768 348.978C438.187 356.209 450.618 364.866 462.061 374.948C467.063 384.515 471.695 394.213 475.959 404.041ZM347.022 270.024C355.38 279.864 365.159 288.028 376.36 294.515C390.72 302.558 405.327 310.13 420.18 317.228C424.854 319.781 429.44 322.477 433.938 325.316C442.609 339.286 450.765 353.549 458.407 368.103C447.385 357.963 435.112 349.652 421.59 343.167C407.749 337.081 393.91 330.996 380.073 324.911C366.654 318.759 356.08 309.415 348.352 296.878C347.558 295.153 346.763 293.428 345.969 291.704C346.403 284.466 346.754 277.239 347.022 270.024ZM461.199 358.916C456.053 350.588 450.941 342.031 445.866 333.243C438.268 321.182 430.772 309.082 423.38 296.942C422.04 289.169 421.662 281.358 422.247 273.51C423.436 262.926 424.93 252.372 426.73 241.847C428.107 230.17 428.024 218.461 426.482 206.719C425.763 203.495 424.811 200.338 423.626 197.249C433.77 202.813 443.617 208.855 453.168 215.375C457.084 221.367 459.85 227.828 461.466 234.756C465.8 258.02 466.801 281.346 464.468 304.735C462.31 319.451 460.918 334.222 460.293 349.049C460.237 352.379 460.539 355.668 461.199 358.916ZM429.886 318.152C411.746 307.978 393.428 297.977 374.933 288.148C365.902 282.494 357.899 275.644 350.923 267.6C346.163 262.622 343.582 256.745 343.181 249.97C343.229 245.767 343.737 241.604 344.703 237.48C346.454 232.276 348.302 227.119 350.246 222.009C357.473 228.32 365.013 234.254 372.867 239.812C379.284 245.355 385.259 251.341 390.793 257.769C403.604 278.05 416.634 298.178 429.886 318.152ZM419.248 290.693C414.668 284.744 410.403 278.389 406.455 271.626C405.754 266.366 405.294 261.101 405.076 255.832C406.199 239.424 407.168 223.008 407.983 206.584C407.84 199.808 406.984 193.137 405.415 186.572C410.159 190.003 415.089 193.084 420.206 195.814C423.042 206.198 424.452 216.794 424.435 227.603C422.717 244.614 420.846 261.613 418.821 278.599C418.606 282.662 418.748 286.693 419.248 290.693ZM400.973 262.989C383.536 237.83 370.219 210.727 361.022 181.68C358.4 171.527 356.3 161.248 354.723 150.843C354.771 148.816 354.972 146.801 355.325 144.797C368.098 151.736 380.318 159.57 391.984 168.3C391.666 168.698 391.347 169.095 391.028 169.493C397.377 176.299 401.454 184.246 403.261 193.333C404.761 203.089 405.111 212.835 404.309 222.573C402.595 236.02 401.483 249.492 400.973 262.989ZM334.961 324.992C327.102 324.1 319.186 324.067 311.211 324.892C306.56 325.613 301.945 326.485 297.364 327.505C277.939 333.103 258.283 337.807 238.395 341.617C220.15 344.84 202.077 344.175 184.174 339.621C180.277 338.697 176.618 337.288 173.198 335.394C182.484 336.18 191.727 335.644 200.927 333.787C205.994 332.625 211.061 331.462 216.127 330.3C235.472 323.65 255.182 318.336 275.257 314.358C288.923 312.001 302.487 312.318 315.953 315.308C323.155 316.849 329.49 320.077 334.961 324.992ZM351.494 159.354C353.97 173.812 357.645 187.964 362.517 201.811C369.096 218.46 376.906 234.512 385.946 249.967C382.507 246.418 379.088 242.808 375.692 239.138C370.1 234.439 364.508 229.739 358.916 225.04C356 222.536 353.51 219.67 351.444 216.441C350.669 209.323 349.296 202.347 347.325 195.512C346.641 183.239 348.031 171.187 351.494 159.354ZM322.008 306.124C321.767 306.334 321.476 306.427 321.132 306.402C309.645 298.753 297.663 291.98 285.187 286.082C277.048 281.333 269.653 275.624 263.004 268.956C252.378 255.828 241.091 243.301 229.142 231.373C245.744 234.15 260.351 241.178 272.963 252.455C280.685 258.665 287.893 265.42 294.587 272.723C304.172 283.506 313.312 294.639 322.008 306.124ZM312.856 308.583C300.319 306.799 287.708 306.92 275.023 308.948C256.187 312.273 237.75 317.084 219.714 323.381C206.944 326.846 193.906 329.128 180.602 330.229C172.651 330.539 164.908 329.339 157.372 326.629C141.25 313.788 125.96 300.01 111.5 285.295C109.935 283.565 108.637 281.654 107.606 279.563C105.863 275.415 103.851 271.409 101.57 267.544C111.893 270.002 122.315 271.39 132.835 271.708C154.737 271.47 176.644 270.746 198.556 269.537C208.408 269.78 218.247 270.266 228.073 270.995C258.134 279.456 286.395 291.985 312.856 308.583ZM136.067 213.908C149.253 211.789 162.489 210.752 175.772 210.799C183.599 211.008 191.049 212.845 198.125 216.309C208.625 221.483 218.38 227.777 227.388 235.191C241.059 249.628 254.732 264.068 268.406 278.509C250.305 270.906 231.745 264.737 212.727 260.002C204.631 253.942 196.799 247.556 189.232 240.846C173.147 228.585 155.426 219.606 136.067 213.908ZM202.857 264.17C178.513 265.585 154.139 266.399 129.736 266.614C118.007 265.49 106.339 263.756 94.7323 261.412C83.766 256.706 73.6135 250.637 64.2751 243.205C101.091 242.952 137.527 247.452 173.584 256.706C183.395 259.049 193.152 261.538 202.857 264.17ZM204.295 257.488C179.888 250.993 155.202 245.681 130.235 241.551C106.831 238.377 83.335 236.739 59.7456 236.637C59.2679 236.69 59.0032 236.477 58.9505 236C74.7617 231.102 90.5069 225.984 106.185 220.645C113.341 218.813 120.517 217.056 127.712 215.373C157.064 222.428 182.591 236.467 204.295 257.488Z" fill="#FEFFFE"/>
<path opacity="0.882" fill-rule="evenodd" clip-rule="evenodd" d="M478.034 404.451C477.337 401.913 476.502 399.421 475.528 396.975C465.063 408.573 454.648 420.213 444.283 431.895C439.454 433.867 434.451 434.475 429.277 433.72C416.24 430.78 403.103 428.221 389.863 426.042C375.116 423.949 360.309 423.424 345.443 424.467C336.426 425.859 327.429 427.379 318.453 429.026C312.547 430.025 306.601 430.54 300.614 430.569C299.495 431.074 299.386 431.717 300.287 432.499C309.585 437.748 319.035 442.727 328.638 447.437C356.716 459.392 385.486 460.928 414.947 452.044C420.204 450.377 425.333 448.433 430.336 446.213C423.316 452.612 416.002 458.654 408.393 464.339C388.511 471.326 368.236 476.891 347.567 481.035C319.164 486.852 291.324 485.11 264.044 475.807C260.637 474.596 257.353 473.079 254.19 471.256C253.509 470.532 253.024 469.689 252.733 468.725C252.412 467.062 252.133 465.393 251.894 463.716C255.142 450.878 254.292 438.321 249.345 426.045C247.26 421.62 244.094 418.236 239.845 415.893C233.993 415.787 228.135 415.587 222.27 415.296C216.472 415.845 212.563 418.79 210.543 424.131C205.573 421.692 200.413 421.28 195.063 422.896C184.607 426.656 177.178 433.572 172.775 443.645C167.49 447.86 165.269 453.342 166.113 460.092C166.504 464.45 167.947 468.435 170.441 472.048C170.417 481.294 174.222 488.526 181.855 493.745C197.819 502.773 214.058 503.243 230.574 495.156C237.701 491.454 242.899 485.98 246.169 478.734C249.097 476.436 252.372 475.667 255.994 476.428C291.973 490.066 328.549 491.436 365.725 480.539C376.741 477.65 387.717 474.612 398.651 471.426C378.609 485.356 357.691 497.83 335.899 508.847C313.965 515.192 291.595 517.886 268.788 516.93C263.375 516.541 257.99 515.893 252.633 514.984C254.449 510.475 253.246 507.027 249.025 504.64C241.918 503.866 237.773 507.036 236.588 514.15C236.286 515.931 236.754 517.467 237.991 518.757C241.295 521.799 244.798 522.029 248.5 519.447C249.762 518.34 250.924 517.147 251.987 515.868C273.083 521.036 294.392 521.869 315.913 518.368C304.843 523.841 293.519 528.74 281.941 533.063C265.732 538.462 249.545 543.926 233.381 549.455C202.982 554.512 173.385 562.535 144.591 573.524C141.653 574.835 138.842 576.378 136.16 578.151C129.691 575.972 125.156 578.115 122.557 584.583C121.452 591.289 124.303 594.388 131.109 593.879C136.45 591.703 139.069 587.778 138.965 582.103C138.39 581.123 137.792 580.161 137.171 579.217C138.155 578.244 139.306 577.513 140.622 577.021C158.913 570.312 177.653 565.215 196.84 561.729C182.72 570.542 170.66 581.539 160.659 594.719C154.938 602.76 149.325 610.877 143.818 619.073C135.838 628.777 128.191 638.734 120.876 648.946C117.118 653.199 112.602 656.405 107.328 658.565C107.188 658.797 107.114 659.049 107.101 659.321C129.855 655.327 151.316 647.646 171.486 636.278C190.772 625.851 205.382 610.95 215.314 591.575C217.944 585.107 220.377 578.568 222.613 571.959C224.953 566.252 227.999 560.976 231.752 556.131C233.402 554.115 235.317 552.387 237.497 550.948C244.983 549.272 252.441 547.458 259.87 545.507C267.51 542.779 275.195 540.21 282.925 537.798C275.617 544.375 269.714 552.046 265.219 560.813C260.837 569.032 257.84 577.726 256.227 586.895C252.348 587.75 249.407 589.866 247.405 593.244C247.033 599.099 249.766 602.31 255.602 602.877C259.675 603.04 262.764 601.412 264.871 597.994C265.934 591.837 263.395 588.262 257.256 587.268C261.817 571.251 269.937 557.335 281.616 545.52C285.597 541.561 289.579 537.602 293.56 533.643C325.384 520.203 355.99 504.473 385.378 486.454C361.858 506.445 344.829 530.932 334.289 559.915C330.814 570.254 328.873 580.915 328.468 591.898C328.031 594.864 327.471 597.781 326.785 600.649C327.103 601.111 327.537 601.284 328.087 601.168C332.034 594.875 336.799 589.229 342.38 584.227C354.928 575.659 366.898 566.368 378.289 556.355C388.637 546.377 395.598 534.416 399.172 520.472C401.697 510.486 403.025 500.316 403.154 489.965C403.611 483.153 405.395 476.736 408.504 470.713C419.865 461.912 430.73 452.5 441.098 442.477C450.776 431.672 460.454 420.867 470.131 410.062C470.623 410.142 470.778 410.4 470.596 410.836C457.546 438.968 451.785 468.643 453.313 499.862C454.074 505.988 455.301 512.023 456.995 517.965C457.408 519.641 457.002 521.062 455.776 522.226C451.923 525.19 447.796 527.667 443.393 529.66C426.75 539.821 418.375 554.653 418.269 574.158C418.263 580.881 420.134 587.024 423.883 592.588C426.247 596.034 429.472 598.103 433.555 598.796C438.182 606.057 444.775 609.923 453.336 610.393C455.754 610.007 458.036 609.235 460.183 608.079C472.189 608.29 481.822 603.602 489.084 594.013C491.549 590.264 492.811 586.142 492.869 581.646C498.207 583.586 502.626 582.316 506.127 577.837C507.329 574.321 507.978 570.69 508.073 566.945C509.216 564.962 510.466 563.056 511.824 561.226C512.606 556.61 511.749 552.294 509.253 548.277C500.772 537.909 490.055 531.027 477.104 527.631C475.241 527.183 473.353 526.995 471.44 527.068C468.907 524.825 466.332 522.634 463.716 520.495C463.153 519.94 462.661 519.327 462.241 518.655C457.825 505.958 456.134 492.895 457.169 479.463C457.646 470.795 459.023 462.29 461.298 453.947C462.416 467.202 465.685 479.938 471.105 492.155C478.533 508.615 490.535 520.216 507.109 526.96C507.185 526.708 507.261 526.456 507.336 526.204C500.555 516.266 495.805 505.431 493.087 493.698C491.656 486.033 490.31 478.357 489.048 470.669C484.487 457.665 476.274 447.732 464.41 440.87C467.644 428.231 472.185 416.092 478.034 404.451ZM475.001 531.247C482.929 535.998 488.968 542.55 493.118 550.903C496.463 559.839 496.346 568.723 492.768 577.557C495.304 579.341 497.912 579.386 500.59 577.692C503.448 574.515 504.746 570.763 504.485 566.436C500.973 564.188 498.884 561.086 498.218 557.131C498.583 557.325 498.947 557.519 499.311 557.713C500.753 559.895 502.48 561.81 504.494 563.458C508.733 563.214 510.5 560.998 509.792 556.81C507.48 552.097 504.332 548.021 500.347 544.582C494.823 538.949 488.326 534.901 480.857 532.438C478.914 531.911 476.962 531.514 475.001 531.247ZM478.191 541.718C482.312 550.673 483.707 560.013 482.376 569.737C481.747 573.11 480.06 575.836 477.315 577.916C474.957 579.342 472.657 580.806 470.413 582.306C476.244 583.219 481.848 582.58 487.223 580.39C491.676 573.47 493.259 565.893 491.972 557.66C490.604 551.323 487.464 546.024 482.553 541.763C482.126 541.345 481.917 541.409 481.924 541.954C484.026 545.035 485.509 548.398 486.37 552.043C485.951 552.17 485.532 552.298 485.114 552.426C483.379 548.432 481.071 544.863 478.191 541.718ZM463.345 532.05C459.816 535.04 457.203 538.734 455.507 543.134C453.615 548.628 452.038 554.219 450.776 559.909C450.657 560.021 450.539 560.134 450.421 560.246C449.559 557.444 449.519 554.557 450.3 551.586C452.049 545.022 454.84 538.908 458.674 533.244C453.809 534.774 449.767 537.53 446.547 541.515C434.264 555.99 433.453 571.113 444.116 586.883C446.486 589.105 449.108 589.451 451.984 587.919C454.023 585.849 456.062 583.778 458.102 581.708C458.559 581.819 458.993 581.992 459.404 582.227C459.133 583.064 458.766 583.862 458.303 584.622C459.505 584.561 460.621 584.221 461.653 583.601C465.667 580.185 469.904 577.064 474.364 574.237C478.498 571.168 480.221 567.058 479.534 561.906C478.199 550.794 473.908 540.963 466.66 532.414C464.939 534.873 463.692 537.542 462.919 540.419C462.207 545.01 461.374 549.536 460.418 553.997C459.957 553.985 459.592 553.791 459.325 553.415C459.133 545.954 460.473 538.832 463.345 532.05ZM487.616 589.196C487.577 588.87 487.422 588.612 487.152 588.422C483.391 591.607 479.108 593.827 474.304 595.081C474.177 594.663 474.049 594.244 473.922 593.825C478.026 592.774 481.519 590.718 484.402 587.658C481.227 587.914 478.094 587.647 475.004 586.858C474.36 586.749 473.802 586.919 473.328 587.369C472.893 588.786 472.213 590.061 471.289 591.194C468.741 592.01 466.313 593.055 464.005 594.328C463.723 595.015 463.635 595.728 463.742 596.468C465.722 599.159 465.768 601.815 463.88 604.436C474.078 602.766 481.99 597.686 487.616 589.196ZM428.813 438.209C415.699 435.586 402.54 432.957 389.336 430.322C373.677 427.836 357.948 427.287 342.147 428.675C331.826 430.626 321.488 432.25 311.133 433.544C318.275 437.001 325.336 440.647 332.316 444.485C350.055 451.728 368.547 454.335 387.793 452.305C398.316 451.599 408.484 449.418 418.297 445.76C408.85 447.766 399.483 447.568 390.195 445.165C389.36 444.406 389.448 443.693 390.459 443.025C403.497 443.565 416.282 441.959 428.813 438.209ZM470.915 586.959C469.614 586.168 468.297 585.349 466.963 584.502C464.032 587.801 460.471 588.886 456.282 587.755C455.637 589.22 454.727 590.489 453.551 591.562C454.397 592.593 455.247 593.631 456.101 594.675C457.427 595.066 458.784 595.263 460.172 595.266C461.49 591.07 464.334 589.136 468.703 589.464C469.682 588.83 470.419 587.995 470.915 586.959ZM451.435 532.017C433.757 537.51 423.909 549.511 421.892 568.02C421.266 574.679 422.16 581.12 424.574 587.342C426.809 592.745 430.725 594.832 436.322 593.605C431.655 591.136 429.101 587.261 428.661 581.978C431.187 586.393 434.675 589.832 439.127 592.293C440.836 592.919 442.5 592.87 444.117 592.146C440.596 589.661 438.003 586.407 436.338 582.386C429.704 565.483 432.499 550.366 444.724 537.036C446.724 535.022 448.961 533.349 451.435 532.017ZM460.446 600.676C460.248 600.042 459.82 599.638 459.162 599.465C457.034 599.601 455.11 599.042 453.388 597.79C452.274 596.285 451.017 594.913 449.617 593.675C448.786 593.735 447.954 593.76 447.122 593.748C444.158 595.635 441.089 597.333 437.917 598.841C441.381 603.085 445.817 605.625 451.223 606.46C454.13 606.49 456.783 605.682 459.181 604.036C459.915 602.998 460.336 601.877 460.446 600.676ZM384.714 493.293C359.259 515.264 342.318 542.547 333.892 575.141C332.998 579.233 332.498 583.353 332.392 587.498C334.976 584.596 337.838 581.97 340.977 579.62C350.916 573.017 360.518 565.972 369.785 558.487C383.863 547.208 392.827 532.806 396.675 515.282C398.726 503.692 400.229 492.096 401.185 480.495C396.628 485.946 391.918 491.271 387.055 496.47C376.812 509.868 368.422 524.401 361.886 540.067C361.497 540.796 360.939 540.966 360.21 540.577C365.636 523.378 373.804 507.617 384.714 493.293ZM249.311 437.956C248.036 433.263 246.284 428.762 244.054 424.452C241.734 421.461 238.686 419.719 234.911 419.227C233.585 419.275 232.419 419.707 231.414 420.521C231.962 423.211 232.958 425.73 234.402 428.078C234.412 428.61 234.421 429.141 234.43 429.672C231.569 427.246 229.64 424.171 228.646 420.449C224.44 418.836 220.281 418.959 216.17 420.816C214.924 421.836 214.013 423.105 213.439 424.623C213.317 425.248 213.535 425.715 214.095 426.025C232.667 427.236 243.815 437.038 247.539 455.431C247.938 457.925 248.382 460.384 248.87 462.806C250.819 454.509 250.966 446.225 249.311 437.956ZM200.813 444.031C203.52 441.968 206.406 440.173 209.472 438.647C217.049 437.749 223.878 439.636 229.962 444.307C233.492 447.127 236.734 450.259 239.689 453.702C238.289 450.012 236.276 446.659 233.65 443.641C233.874 443.077 234.272 442.88 234.843 443.049C239.644 446.862 243.026 451.705 244.99 457.58C242.593 444.87 235.434 436.142 223.512 431.395C211.047 426.899 203.48 431.11 200.813 444.031ZM244.492 468.717C239.789 459.658 233.313 452.171 225.063 446.256C221.102 443.732 216.792 442.604 212.132 442.872C208.367 445.094 204.616 447.304 200.878 449.503C198.192 449.64 195.812 450.594 193.739 452.364C192.548 454.5 193.201 455.14 195.698 454.285C195.937 454.817 195.947 455.349 195.725 455.879C193.642 456.983 191.494 457.942 189.279 458.758C186.243 460.063 185.03 462.34 185.638 465.588C186.853 470.251 189.386 474.057 193.234 477.006C205.359 485.777 218.387 487.225 232.319 481.35C235.461 479.968 238.235 478.055 240.641 475.612C231.961 477.279 223.431 476.825 215.052 474.251C214.051 473.717 213.049 473.183 212.047 472.649C211.674 472.313 211.729 471.991 212.211 471.684C218.858 473.336 225.62 474.252 232.5 474.429C236.875 474.373 240.966 473.279 244.774 471.149C241.399 471.753 238.03 471.712 234.667 471.023C230.47 469.897 226.374 468.474 222.381 466.755C221.905 466.523 221.638 466.146 221.58 465.626C222.336 465.392 223.098 465.388 223.865 465.616C228.1 466.998 232.41 468.126 236.797 469.001C239.381 469.231 241.946 469.136 244.492 468.717ZM250.711 511.679C249.474 508.505 247.176 507.222 243.817 507.829C240.926 509.303 239.432 511.665 239.338 514.914C242.211 518.822 245.301 518.949 248.608 515.295C249.589 514.221 250.29 513.015 250.711 511.679ZM238.721 482.833C224.011 491.75 209.207 491.987 194.31 483.544C187.426 478.831 182.815 472.455 180.474 464.414C179.154 465.513 178.447 466.948 178.353 468.722C178.43 473.926 180.204 478.497 183.674 482.435C183.598 482.687 183.522 482.939 183.447 483.191C180.112 481.284 177.877 478.456 176.743 474.705C176.244 473.175 176.076 471.624 176.241 470.052C175.078 470.684 174.404 471.728 174.22 473.185C172.973 477.418 173.939 481.091 177.118 484.203C189.343 495.503 203.605 499.246 219.901 495.431C227.427 493.001 233.7 488.802 238.721 482.833ZM262.385 595.09C259.645 590.12 255.859 589.213 251.029 592.369C249.591 595.375 250.411 597.567 253.489 598.943C256.247 599.521 258.887 599.175 261.411 597.904C262.044 597.024 262.369 596.086 262.385 595.09ZM202.012 429.934C200.835 429.773 199.696 430.044 198.597 430.745C195.909 432.406 193.414 434.235 191.113 436.229C190.869 436.113 190.665 435.947 190.503 435.728C193.38 432.014 196.898 429.035 201.055 426.792C192.472 427.566 185.357 431.259 179.713 437.87C178.815 439.172 177.813 440.393 176.708 441.531C180.486 440.039 183.042 441.168 184.377 444.917C185.384 445.254 186.419 445.396 187.482 445.345C189.212 443.965 190.708 442.365 191.97 440.545C193.913 439.674 195.91 439.218 197.962 439.177C198.551 437.412 199.334 435.724 200.31 434.114C200.013 432.368 200.58 430.975 202.012 429.934ZM196.952 443.376C195.77 442.525 194.547 442.517 193.282 443.349C192.487 444.182 191.862 445.135 191.407 446.209C189.331 448.441 186.866 449.115 184.013 448.232C182.895 451.038 183.172 453.7 184.843 456.218C186.455 455.593 188.103 455.243 189.788 455.17C190.357 450.617 192.904 447.706 197.426 446.435C196.973 445.402 196.815 444.382 196.952 443.376ZM226.279 556.195C221.621 559.717 217.521 563.787 213.979 568.409C207.064 578.088 200.661 588.124 194.772 598.519C191.738 602.702 187.957 606.066 183.427 608.611C182.382 608.697 182.024 608.272 182.353 607.336C186.714 602.883 190.579 598.043 193.951 592.818C199.462 582.695 205.488 572.926 212.03 563.511C214.155 560.953 216.48 558.566 219.004 556.352C205.405 560.964 193.217 568.033 182.437 577.559C175.822 583.295 169.795 589.556 164.357 596.34C151.441 614.865 137.858 632.887 123.608 650.403C136.992 644.155 149.184 636.094 160.183 626.218C160.113 627.56 159.552 628.722 158.499 629.706C156.316 632.138 153.949 634.385 151.398 636.446C145.217 640.978 138.853 645.129 132.305 648.898C150.135 642.916 166.855 634.696 182.466 624.237C195.558 614.801 205.566 602.827 212.49 588.316C215.327 581.021 217.966 573.656 220.408 566.223C222.119 562.68 224.076 559.337 226.279 556.195ZM180.397 446.129C179.182 444.745 177.777 444.64 176.181 445.811C170.822 448.626 168.583 453.046 169.463 459.071C169.632 462.382 170.567 465.454 172.27 468.286C172.925 467.08 173.739 465.993 174.71 465.026C176.767 463.524 178.836 462.054 180.919 460.617C181.179 459.694 181.434 458.777 181.684 457.867C180.572 455.859 179.843 453.716 179.497 451.438C180.062 449.669 180.362 447.899 180.397 446.129ZM136.189 585.008C133.661 579.608 130.283 579.035 126.053 583.289C124.442 585.711 124.613 588.023 126.564 590.228C129.943 591.534 132.645 590.635 134.668 587.531C135.094 586.62 135.601 585.779 136.189 585.008Z" fill="#FEFFFE"/>
</svg>
