<svg width="842" height="860" viewBox="0 0 842 860" fill="none" xmlns="http://www.w3.org/2000/svg">
<path fill-rule="evenodd" clip-rule="evenodd" d="M211.026 492.266C211.676 493.067 212.326 493.868 212.975 494.669C223.932 489.041 235.482 487.262 247.626 489.334C253.655 490.381 259.577 491.838 265.395 493.704C275.339 497.78 285.282 501.857 295.226 505.933C313.902 513.541 333.333 517.038 353.519 516.422C367.928 515.124 381.896 511.765 395.422 506.345C408.936 500.287 422.192 493.711 435.19 486.619C443.283 485.768 451.046 483.646 458.479 480.253C470.456 474.872 482.175 468.974 493.636 462.559C499.396 460.272 505.35 459.428 511.497 460.026C513.93 460.595 516.406 460.958 518.925 461.116C533.687 464.99 548.484 468.736 563.314 472.352C591.14 477.843 618.31 475.444 644.823 465.156C650.259 462.757 655.475 459.95 660.471 456.736C661.078 456.272 661.454 455.682 661.598 454.968C649.142 456.703 636.885 455.739 624.822 452.069C612.504 448.289 600.079 444.896 587.55 441.89C580.651 440.75 573.709 440.025 566.724 439.714C590.058 428.021 607.706 410.487 619.668 387.113C620.916 384.683 621.912 382.168 622.655 379.57C620.14 382.665 617.282 385.457 614.082 387.944C607.462 392.691 600.657 397.165 593.669 401.365C587.068 405.961 581.167 411.315 575.965 417.427C570.953 425.553 565.239 433.126 558.823 440.146C545.281 440.997 532.104 443.81 519.291 448.585C509.075 452.718 498.98 457.11 489.006 461.761C475.615 469.322 461.737 475.832 447.373 481.293C445.65 481.741 443.927 482.19 442.204 482.638C451.383 476.985 460.015 470.555 468.101 463.348C482.049 449.972 491.47 433.988 496.364 415.395C498.232 405.69 501.001 396.238 504.668 387.04C508.354 378.878 514.345 373.167 522.641 369.906C523.44 368.147 522.93 367.517 521.11 368.018C507.407 374.457 493.231 375.805 478.581 372.059C472.153 370.448 465.881 368.326 459.764 365.694C446.689 358.968 433.554 352.358 420.357 345.866C407.587 340.656 394.357 338.96 380.668 340.777C363.511 342.887 347.091 347.665 331.407 355.113C352.705 335.523 377.636 323.463 406.202 318.935C416.992 317.133 427.82 315.75 438.687 314.787C452.512 314.293 466.337 313.8 480.163 313.307C483.977 317.038 488.333 319.954 493.232 322.056C504.863 325.68 516.55 329.101 528.296 332.318C530.172 333.768 531.886 335.413 533.436 337.255C536 339.718 539.033 340.768 542.534 340.405C545.79 338.811 546.281 336.61 544.009 333.803C541.96 331.535 539.421 330.275 536.391 330.022C534.374 330.164 532.362 330.373 530.356 330.648C526.083 328.843 521.747 327.237 517.347 325.833C510.617 324.082 503.887 322.332 497.157 320.581C492.818 319.224 488.904 317.086 485.414 314.17C485.25 313.734 485.087 313.297 484.923 312.861C487.557 312.481 490.201 312.234 492.856 312.119C511.639 319.477 531.099 322.191 551.237 320.261C556.349 322.995 561.644 323.443 567.122 321.606C571.749 318.277 571.534 315.322 566.477 312.74C560.615 312.217 555.6 314.102 551.432 318.396C533.266 319.701 515.877 317.204 499.267 310.903C514.005 308.352 528.395 304.461 542.436 299.231C555.333 301.815 568.04 300.996 580.558 296.772C582.736 297.471 584.916 298.17 587.095 298.869C592.203 299.476 595.964 297.565 598.377 293.134C597.337 289.372 594.806 287.536 590.783 287.628C586.249 288.251 582.57 290.38 579.746 294.016C578.958 294.658 578.075 295.089 577.097 295.31C568.304 296.488 559.47 296.822 550.597 296.313C568.025 288.71 583.951 278.643 598.373 266.11C604.101 265.567 609.195 263.429 613.655 259.694C617.654 256.381 620.94 252.483 623.518 247.998C624.028 246.62 624.225 245.228 624.112 243.818C623.091 242.559 622.07 241.301 621.05 240.042C618.512 238.772 616.027 238.985 613.599 240.677C605.903 247.151 600.204 255.091 596.498 264.5C582.1 275.511 566.629 284.736 550.087 292.174C553.877 288.19 557.358 283.945 560.53 279.439C566.673 276.642 571.119 272.184 573.868 266.064C575.002 263.249 574.869 260.512 573.469 257.852C570.849 255.255 568.18 255.238 565.461 257.801C562.525 260.459 560.36 263.636 558.966 267.335C558.649 271.373 558.123 275.403 557.389 279.425C552.512 285.34 547.128 290.748 541.239 295.649C522.875 302.645 503.957 307.268 484.486 309.516C486.046 306.852 488.067 304.55 490.55 302.608C492.973 300.745 495.551 299.129 498.284 297.76C504.177 295.296 510.168 293.094 516.257 291.154C519.216 289.971 522.083 288.595 524.858 287.025C532.036 288.285 536.216 285.37 537.398 278.279C536.546 274.677 534.457 273.621 531.13 275.111C529.342 276.181 527.74 277.48 526.324 279.008C525.189 280.871 524.305 282.821 523.67 284.858C517.47 287.114 511.226 289.237 504.937 291.228C499.244 292.996 494.085 295.756 489.46 299.509C485.741 302.74 482.29 306.202 479.105 309.897C469.468 310.07 459.828 310.111 450.183 310.018C423.88 310.365 398.255 315.02 373.309 323.982C376.381 318.647 379.452 313.312 382.523 307.977C392.962 291.162 406.725 277.727 423.813 267.67C448.872 251.082 476.282 241.376 506.04 238.553C509.511 238.497 512.973 238.44 516.428 238.381C516.762 237.911 516.691 237.589 516.214 237.416C513.885 236.858 511.513 236.506 509.098 236.359C503.084 233.486 496.969 230.857 490.754 228.472C487.624 228.354 484.494 228.237 481.364 228.119C478.327 225.95 475.185 223.946 471.937 222.107C462.303 218.902 452.509 218.402 442.556 220.608C437.734 222.388 433.286 224.857 429.213 228.013C427.322 229.072 425.56 228.888 423.929 227.461C419.268 226.769 414.798 227.454 410.516 229.516C398.042 236.689 390.542 247.322 388.016 261.416C386.787 275.201 384.737 288.813 381.864 302.252C376.781 309.701 372.703 317.654 369.63 326.112C351.214 333.662 335.33 344.834 321.98 359.627C300.732 369.775 281.884 383.255 265.436 400.068C260.21 405.785 255.487 411.891 251.268 418.384C246.706 425.709 242.175 432.987 237.674 440.217C244.026 420.156 253.014 401.299 264.638 383.645C271.683 373.107 280.275 364.054 290.414 356.486C297.609 352.236 304.852 348.07 312.145 343.987C326.375 335.554 337.02 323.888 344.082 308.988C345.328 305.602 346.318 302.144 347.051 298.615C348.038 283.168 348.603 267.724 348.748 252.286C363.054 245.474 375.834 236.44 387.088 225.183C398.999 213.514 405.706 199.446 407.208 182.979C407.082 182.56 407.021 182.135 407.027 181.703C404.177 186.682 400.571 191.124 396.209 195.027C388.405 201.544 380.602 208.061 372.799 214.578C362.771 222.946 354.621 232.779 348.349 244.075C348.474 222.151 340.199 197.227 328.345 184.777C322.762 178.913 336.684 192.383 297.809 150.821C297.017 145.218 297.455 153 296.94 154.144C308.559 166.269 333.39 197.805 339.279 213.59C340.573 217.608 341.612 221.697 342.397 225.856C334.35 206.267 310.413 183.061 292.045 172.861C292.045 172.861 292.368 174.387 291.452 175.13C311.734 188.498 335.764 212.113 343.631 235.098C344.35 246.604 344.403 258.131 343.789 269.679C342.56 265.679 341.2 261.661 339.706 257.626C338.43 254.738 336.939 251.963 335.234 249.303C326.61 238.652 317.866 228.102 309.003 217.654C306.222 206.085 296.939 185.687 291.452 175.13C290.478 175.766 290.518 178.702 294.306 186.895C296.969 192.658 299.286 198.556 301.255 204.59C300.167 211.847 296.905 218 291.471 223.049C284.786 229.07 278.083 235.074 271.364 241.059C265.649 246.82 260.79 253.226 256.788 260.276C254.699 264.718 252.772 269.126 251.007 273.498C251.422 265.49 252.659 257.659 254.718 250.004C257.667 240.311 260.872 230.695 264.331 221.157C269.002 215.023 273.725 208.918 278.499 202.841C279.936 200.761 281.211 198.59 282.322 196.327C280.649 197.304 279.161 198.511 277.859 199.946C274.722 205.012 271.094 209.661 266.975 213.892C267.628 211.655 268.281 209.419 268.933 207.183C266.802 208.532 264.857 210.109 263.097 211.915C259.063 223.199 255.157 234.522 251.378 245.884C244.682 266.911 245.772 287.554 254.649 307.815C259.767 318.049 264.988 328.23 270.312 338.36C275.13 346.57 277.04 355.358 276.041 364.726C264.872 376.867 255.711 390.364 248.558 405.218C240.74 421.089 234.728 437.534 230.521 454.553C224.367 467.324 217.869 479.895 211.026 492.266ZM405.368 496.858C395.458 498.076 385.618 497.519 375.848 495.188C352.169 486.98 328.53 478.644 304.931 470.182C295.223 467.124 285.281 465.038 275.105 463.924C262.592 463.717 250.27 465.363 238.139 468.86C230.097 475.541 222.632 482.826 215.745 490.716C215.298 490.984 214.851 491.251 214.404 491.519C214.488 491.233 214.463 490.968 214.33 490.726C213.594 491.359 213.093 492.145 212.826 493.082C221.584 487.975 231.002 485.555 241.08 485.822C249.738 486.408 258.158 488.022 266.341 490.66C282.194 497.058 298.246 502.82 314.498 507.946C346.073 515.981 376.363 512.284 405.368 496.858ZM214.33 490.726C229.234 473.099 246.276 457.859 265.455 445.005C272.251 440.754 279.033 436.488 285.803 432.205C292.873 425.89 298.715 418.592 303.33 410.311C309.368 398.117 315.754 386.111 322.49 374.292C326.955 367.673 332.185 361.726 338.181 356.449C318.438 365.131 299.836 375.757 282.374 388.326C268.959 400.345 257.672 414.144 248.512 429.723C236.871 449.973 225.477 470.307 214.33 490.726ZM241.432 465.905C253.482 461.891 265.829 460.51 278.473 461.762C290.589 463.549 302.446 466.359 314.043 470.191C334.598 477.707 355.194 485.096 375.83 492.358C387.386 494.927 399.044 495.621 410.806 494.441C422.922 488.261 434.728 481.534 446.222 474.259C451.992 470.398 457.464 466.152 462.636 461.52C453.034 463.975 443.383 464.119 433.682 461.951C418.299 458.231 403.174 453.614 388.309 448.098C369.455 442.344 350.181 438.341 330.489 436.088C314.549 435.153 298.677 435.694 282.871 437.711C268.031 445.598 254.218 454.996 241.432 465.905ZM435.31 357.64C411.295 343.296 386.128 340.562 359.809 349.438C347.456 352.841 337.469 359.706 329.848 370.033C322.228 380.855 315.491 392.196 309.64 404.058C304.193 414.396 297.166 423.508 288.559 431.393C303.39 423.678 318.811 417.433 334.822 412.659C342.23 408.562 349.031 403.617 355.226 397.822C363.654 388.979 372.399 380.466 381.461 372.282C397.244 359.046 415.193 354.165 435.31 357.64ZM290.99 433.689C308.975 431.423 327.005 431.787 345.08 434.784C355.074 436.714 365.006 438.904 374.874 441.353C393.834 447.132 412.83 452.783 431.863 458.305C443.2 461.222 454.509 461.252 465.791 458.393C476.591 448.997 484.385 437.556 489.173 424.071C480.396 430.804 470.502 434.275 459.49 434.482C448.203 434.455 437.002 433.389 425.888 431.285C406.21 426.506 386.641 421.32 367.181 415.725C360.485 413.884 353.657 413.066 346.699 413.271C327.35 417.931 308.78 424.737 290.99 433.689ZM278.37 361.984C287.273 337.091 295.806 312.059 303.97 286.887C306.428 278.885 308.17 270.739 309.194 262.451C307.247 265.339 305.125 268.102 302.828 270.742C294.304 279.026 286.077 287.593 278.147 296.444C273.185 302.403 269.455 309.031 266.957 316.328C266.43 318.38 266.11 320.441 265.997 322.512C269.927 329.755 273.335 337.234 276.222 344.948C278.093 350.519 278.809 356.198 278.37 361.984ZM311.003 275.209C302.396 304.09 292.252 332.515 280.569 360.485C284.348 356.957 288.446 353.824 292.864 351.086C300.046 346.871 307.15 342.533 314.177 338.072C318.011 331.983 319.911 325.321 319.878 318.086C319.757 310.514 318.971 302.995 317.521 295.53C315.389 288.733 313.216 281.959 311.003 275.209ZM302.772 209.619C301.309 214.039 299.057 218.046 296.018 221.639C288.686 228.943 281.233 236.125 273.656 243.184C262.313 253.342 254.836 265.758 251.225 280.434C251.835 288.952 253.914 297.129 257.461 304.966C259.643 309.987 262.068 314.849 264.735 319.552C265.903 311.472 268.972 304.147 273.944 297.576C276.643 293.958 279.519 290.488 282.573 287.165C289.259 280.875 295.798 274.435 302.188 267.847C305.324 264.316 307.829 260.388 309.704 256.063C310.352 240.206 308.041 224.725 302.772 209.619ZM345.363 409.518C364.969 404.774 384.806 401.872 404.876 400.81C417.152 400.311 429.437 400.023 441.731 399.947C460.485 398.921 477.914 393.515 494.016 383.727C497.036 381.847 499.875 379.735 502.534 377.39C494.449 378.221 486.427 377.802 478.47 376.133C466.678 373.102 455.42 368.574 444.695 362.549C430.064 357.362 415.56 357.836 401.183 363.973C391.872 367.911 383.741 373.555 376.789 380.907C369.349 388.862 361.634 396.54 353.644 403.941C350.922 405.87 348.161 407.729 345.363 409.518ZM357.453 411.095C379.457 416.171 401.341 421.757 423.104 427.852C434.721 430.55 446.5 432.095 458.442 432.487C466.85 432.516 474.891 430.738 482.566 427.151C485.085 425.828 487.445 424.294 489.646 422.549C492.55 412.797 495.454 403.045 498.358 393.293C500.755 386.85 504.191 381.029 508.667 375.831C489.658 392.424 467.63 401.75 442.584 403.806C422.344 404.415 402.125 405.445 381.93 406.897C373.685 407.775 365.526 409.174 357.453 411.095ZM318.361 334.11C335.362 322.073 343.733 305.613 343.474 284.729C342.533 274.017 339.614 263.866 334.714 254.277C332.637 251.034 330.51 247.826 328.335 244.655C322.335 238.158 316.482 231.524 310.775 224.752C313.98 239.238 314.444 253.846 312.167 268.575C314.358 275.858 316.637 283.114 319.006 290.343C322.378 302.123 323.227 314.048 321.553 326.117C320.792 328.91 319.728 331.574 318.361 334.11ZM506.236 457.748C512.088 457.571 517.97 457.923 523.88 458.805C539.392 461.996 554.853 465.392 570.264 468.993C597.895 473.917 624.528 470.623 650.167 459.116C645.14 459.322 640.157 458.908 635.215 457.868C618.079 453.64 600.91 449.542 583.709 445.574C567.031 443.101 550.575 444.21 534.341 448.9C524.895 451.63 515.526 454.58 506.236 457.748ZM385.483 296.188C385.73 296.328 385.994 296.303 386.276 296.114C392.639 288.125 399.689 280.797 407.427 274.128C408.893 268.129 410.765 262.25 413.04 256.489C415.49 251.089 417.939 245.689 420.389 240.289C422.024 237.292 423.892 234.45 425.993 231.761C421.253 229.903 416.536 229.934 411.843 231.854C400.171 238.581 393.058 248.522 390.503 261.676C389.278 271.394 388.053 281.112 386.828 290.83C386.483 292.656 386.034 294.442 385.483 296.188ZM409.283 272.908C412.721 270.532 416.26 268.23 419.902 266.004C421.1 257.854 423.984 250.299 428.554 243.341C432.746 235.86 437.948 229.177 444.161 223.29C441.857 223.772 439.677 224.592 437.619 225.749C434.906 227.797 432.135 229.759 429.306 231.636C419.525 243.95 412.851 257.707 409.283 272.908ZM421.169 264.408C428.802 260.347 436.507 256.282 444.282 252.212C450.233 249.397 456.268 246.78 462.384 244.362C468.417 239.817 474.439 235.314 480.45 230.852C478.124 229.551 475.986 227.966 474.034 226.097C467.41 223.518 460.532 222.171 453.402 222.056C451.737 222.02 450.221 222.49 448.856 223.466C442.142 227.397 436.77 232.701 432.739 239.379C427.548 247.154 423.692 255.498 421.169 264.408ZM534.406 332.486C536.13 333.564 535.915 334.118 533.761 334.146C535.132 336.116 536.982 337.461 539.31 338.183C540.787 337.967 542.06 337.314 543.128 336.225C540.771 333.636 537.863 332.39 534.406 332.486ZM502.366 236.127C498.91 234.415 495.346 232.943 491.672 231.71C486.542 230.798 481.914 231.99 477.787 235.287C474.511 237.563 471.422 240.069 468.517 242.803C479.651 239.53 490.933 237.304 502.366 236.127ZM526.435 285.461C531.474 286.165 534.578 284.028 535.746 279.05C534.466 276.134 532.565 275.778 530.045 277.983C528.324 279.597 527.025 281.504 526.148 283.703C528.608 283.185 528.704 283.771 526.435 285.461ZM556.201 319.365C559.759 320.782 563.325 320.735 566.9 319.226C567.193 318.927 567.386 318.581 567.48 318.187C567.07 317.232 566.753 316.256 566.528 315.259C562.066 314.289 558.092 315.236 554.605 318.099C555.544 317.959 556.488 317.953 557.435 318.08C557.128 318.608 556.716 319.037 556.201 319.365ZM560.191 275.162C560.438 275.301 560.702 275.276 560.984 275.088C564.779 269.662 565.276 269.923 562.473 275.872C567.352 273.608 570.571 269.859 572.133 264.626C572.613 262.681 572.268 260.969 571.098 259.49C569.848 259.674 568.593 259.648 567.335 259.411C564.056 261.866 561.938 265.101 560.98 269.117C560.817 271.182 560.554 273.197 560.191 275.162ZM581.439 294.35C582.531 294.28 583.647 294.135 584.784 293.914C585.261 294.087 585.332 294.409 584.998 294.879C584.286 294.914 583.886 295.239 583.796 295.853C586.101 296.251 588.427 296.547 590.774 296.739C593.261 296.451 594.967 295.163 595.891 292.875C595.543 291.423 594.594 290.485 593.042 290.063C588.509 289.602 584.642 291.031 581.439 294.35ZM600.015 263.925C608.366 261.122 615.213 256.234 620.558 249.26C622.352 246.041 621.646 243.767 618.442 242.44C614.597 243.172 611.366 245.033 608.746 248.026C604.932 252.15 601.832 256.749 599.449 261.823C600.38 261.351 601.226 260.76 601.991 260.047C602.27 260.39 602.548 260.733 602.826 261.077C601.785 261.926 600.848 262.875 600.015 263.925Z" fill="#FEFFFE"/>
<path opacity="0.88" fill-rule="evenodd" clip-rule="evenodd" d="M229.867 478.783C230.676 477.849 231.485 476.915 232.294 475.982C257.908 506.356 288.637 530.126 324.481 547.292C333.731 546.541 342.936 546.672 352.094 547.684C357.174 548.517 362.016 550.098 366.62 552.426C375.869 557.315 385.223 561.989 394.682 566.447C399.667 568.462 404.736 570.158 409.889 571.535C410.088 571.871 410.287 572.207 410.487 572.543C399.812 575.719 388.88 577.77 377.692 578.695C358.472 579.505 342.726 572.398 330.456 557.374C328.745 555.452 327.115 553.467 325.564 551.419C307.015 542.984 289.714 532.486 273.659 519.922C285.279 543.581 299.792 565.313 317.2 585.119C324.799 593.481 333.132 601.03 342.2 607.766C348.674 609.538 355.233 610.646 361.879 611.089C371.712 611.437 381.545 611.786 391.378 612.134C403.875 612.478 415.893 615.21 427.431 620.33C443.529 620.854 459.504 622.602 475.358 625.575C477.698 625.233 480.038 624.891 482.378 624.549C491.638 622.264 500.949 620.198 510.309 618.35C522.528 616.371 534.509 617.354 546.25 621.299C558.558 625.758 571.011 629.684 583.609 633.079C584.281 633.419 584.882 633.858 585.411 634.396C584.679 635.376 583.718 636.015 582.527 636.309C571.904 639.938 561.193 643.242 550.395 646.224C530.466 650.743 511.297 648.434 492.89 639.298C487.099 636.454 481.448 633.355 475.937 630C462.469 628.381 449.026 626.539 435.609 624.475C443.532 630.186 451.069 636.39 458.219 643.089C468.682 653.867 479.007 664.776 489.194 675.818C489.215 676.892 488.749 677.714 487.793 678.282C482.386 679.829 476.841 680.662 471.158 680.784C454.315 680.47 437.63 678.597 421.102 675.165C400.842 671.094 383.609 661.553 369.403 646.544C361.239 637.353 353.385 627.931 345.841 618.277C348.493 624.53 351.045 630.828 353.496 637.172C359.59 648.987 366.859 660.027 375.304 670.293C382.184 677.809 389.799 684.489 398.147 690.335C400.435 686.549 403.724 685.394 408.015 686.872C414.551 691.335 415 696.382 409.359 702.013C404.784 703.746 401.193 702.514 398.586 698.317C397.984 697.081 397.542 695.799 397.26 694.471C397.241 693.611 397.493 692.849 398.017 692.184C389.502 687.23 381.683 681.352 374.557 674.55C376.789 683.112 379.665 691.489 383.183 699.68C384.565 702.511 386.118 705.246 387.841 707.886C391.24 706.023 394.212 706.555 396.757 709.482C400.324 713.962 399.814 717.852 395.226 721.151C391.101 722.192 387.939 720.841 385.741 717.099C383.898 713.957 384.262 711.084 386.833 708.483C377.228 696.999 371.604 683.87 369.964 669.098C365.689 663.86 361.712 658.452 358.033 652.873C359.963 663.317 360.228 673.763 358.827 684.212C363.665 685.519 366.039 688.722 365.95 693.818C365.156 697.503 362.96 699.849 359.359 700.857C354.59 700.748 351.447 698.433 349.931 693.911C349.728 689.554 351.508 686.273 355.27 684.072C355.937 684.068 356.588 683.978 357.221 683.801C357.44 677.655 357.219 671.497 356.558 665.327C355.63 658.453 354.528 651.613 353.253 644.808C347.786 634.509 342.913 623.91 338.634 613.012C338 611.712 337.297 610.449 336.524 609.222C333.411 606.397 330.156 603.74 326.759 601.25C328.497 610.7 328.647 620.147 327.208 629.592C337.677 640.912 341.952 654.18 340.035 669.397C339.404 672.533 338.664 675.651 337.813 678.751C335.565 684.286 333.244 689.794 330.85 695.274C329.142 699.492 328.663 703.818 329.412 708.25C329.317 708.633 329.121 708.954 328.824 709.212C314.273 695.825 307.094 679.305 307.287 659.652C307.854 647.698 312.951 638.138 322.578 630.973C324.292 623.01 324.591 614.932 323.473 606.739C322.688 601.921 321.051 597.397 318.563 593.166C308.246 582.425 299.01 570.824 290.855 558.365C285.424 550.195 280.19 541.899 275.153 533.477C271.632 527.291 268.719 520.843 266.415 514.135C253.264 503.356 241.081 491.572 229.867 478.783ZM329.494 549.43C342.6 547.932 355.143 550.057 367.124 555.806C375.344 560.375 383.668 564.728 392.096 568.865C370.363 565.356 349.495 558.878 329.494 549.43ZM401.002 572.17C390.679 574.441 380.209 575.583 369.589 575.596C361.346 575.082 353.803 572.469 346.96 567.755C341.734 563.59 336.773 559.128 332.08 554.368C354.343 563.428 377.317 569.361 401.002 572.17ZM323.97 700.101C315.813 688.295 311.509 675.247 311.058 660.958C311.116 650.806 314.888 642.304 322.372 635.454C319.865 648.379 318.695 661.423 318.863 674.588C319.44 683.363 321.143 691.868 323.97 700.101ZM326.621 700.437C325.115 695.952 324.041 691.344 323.4 686.611C322.39 676.224 322.44 665.887 323.549 655.6C324.563 648.181 325.521 640.757 326.424 633.326C336.075 646.293 338.938 660.626 335.013 676.324C333.081 681.605 331.003 686.833 328.777 692.007C327.84 694.778 327.122 697.588 326.621 700.437ZM351.451 614.067C361.548 615.058 371.702 615.602 381.912 615.7C392.114 616.027 402.196 617.409 412.158 619.845C425.359 624.002 437.053 630.785 447.241 640.195C459.289 651.274 470.635 662.986 481.277 675.332C434.783 661.812 391.508 641.39 351.451 614.067ZM474.36 675.958C468.09 676.295 461.82 676.173 455.549 675.594C441.86 674.32 428.299 672.048 414.866 668.78C393.546 662.404 375.884 650.53 361.879 633.157C357.752 628.268 353.719 623.302 349.78 618.259C368.156 630.621 387.405 641.419 407.529 650.651C429.208 660.755 451.486 669.19 474.36 675.958ZM354.421 688.73C355.589 687.617 356.933 686.821 358.454 686.34C362.21 688.26 363.339 691.2 361.843 695.162C358.951 699.217 356.225 699.062 353.665 694.695C353.209 692.589 353.461 690.6 354.421 688.73ZM399.865 692.314C402.112 688.657 405.037 687.922 408.64 690.111C411.164 692.959 411.335 695.968 409.154 699.138C405.34 701.812 402.396 701.059 400.322 696.879C399.908 695.362 399.756 693.84 399.865 692.314ZM389.074 710.425C391.679 708.701 393.686 709.214 395.095 711.965C395.443 713.145 395.617 714.359 395.618 715.606C394.931 718.159 393.338 719.148 390.838 718.574C389.226 717.505 388.33 715.993 388.15 714.037C388.358 712.778 388.666 711.574 389.074 710.425ZM574.004 632.846C551.171 630.89 528.265 629.593 505.287 628.954C499.021 628.407 492.76 627.803 486.504 627.144C498.118 623.278 510.141 621.193 522.576 620.889C529.625 621.351 536.614 622.34 543.543 623.857C553.804 626.538 563.958 629.535 574.004 632.846ZM486.943 631.447C507.677 632.64 528.454 633.564 549.274 634.219C556.92 634.469 564.529 634.932 572.099 635.609C561.711 639.287 551.103 642.19 540.275 644.32C521.015 646.341 503.238 642.05 486.943 631.447Z" fill="#FEFFFE"/>
</svg>
