<svg width="36" height="40" fill="none" xmlns="http://www.w3.org/2000/svg"><path d="M30.728 8.992a1.35 1.35 0 00-1.922 0 1.38 1.38 0 000 1.94c2.887 2.913 4.477 6.787 4.477 10.908 0 4.12-1.59 7.994-4.477 10.908-5.958 6.014-15.654 6.014-21.612 0A15.399 15.399 0 012.717 21.84c0-4.121 1.59-7.995 4.477-10.908a15.123 15.123 0 018.082-4.272L13.21 9.716a1.38 1.38 0 00.357 1.906 1.354 1.354 0 001.888-.36l3.68-5.446v-.001a1.38 1.38 0 00-.357-1.906L13.45.24a1.35 1.35 0 00-1.889.36 1.38 1.38 0 00.357 1.905l2.282 1.57c-3.357.725-6.442 2.409-8.927 4.917C1.872 12.424 0 16.986 0 21.84c0 4.853 1.872 9.415 5.272 12.847A17.855 17.855 0 0018 40c4.609 0 9.219-1.772 12.728-5.313C34.128 31.255 36 26.693 36 21.84c0-4.854-1.873-9.416-5.272-12.848z" fill="#C94F6E"/><path d="M16.634 19.345c0-2.481-1.999-4.5-4.456-4.5-2.458 0-4.457 2.02-4.457 4.5 0 .757.608 1.371 1.359 1.371.75 0 1.358-.614 1.358-1.371 0-.969.78-1.756 1.74-1.756.959 0 1.74.788 1.74 1.756 0 .469-.182.91-.51 1.241a1.24 1.24 0 00-.047.05l-5.29 5.906a1.38 1.38 0 00-.233 1.476c.218.495.704.814 1.241.814h6.197c.75 0 1.358-.614 1.358-1.37 0-.758-.608-1.372-1.358-1.372h-3.137l3.216-3.591a4.488 4.488 0 001.28-3.154z" fill="#C94F6E"/><path fill-rule="evenodd" clip-rule="evenodd" d="M19.254 25.953c-.513 0-.983-.291-1.214-.754a1.383 1.383 0 01.122-1.433l6.133-8.364c.349-.476.96-.672 1.517-.487.557.185.933.71.933 1.302v6.994h.175c.75 0 1.359.614 1.359 1.371s-.608 1.371-1.359 1.371h-.175v1.508c0 .758-.608 1.372-1.358 1.372-.75 0-1.359-.614-1.359-1.372v-1.508h-4.774zm4.775-2.742v-2.836l-2.08 2.836h2.08z" fill="#C94F6E"/></svg>