<svg width="39" height="42" fill="none" xmlns="http://www.w3.org/2000/svg"><mask id="a" maskUnits="userSpaceOnUse" x="12.322" y="0" width="9" height="12" fill="#000"><path fill="#fff" d="M12.322 0h9v12h-9z"/><path d="M19.193 1.064c-.184.08-4.311 2.057-5.56 5.03a3.672 3.672 0 004.78 4.867 3.675 3.675 0 001.992-2.022c1.25-2.973-.233-7.308-.297-7.491a.667.667 0 00-.915-.384zm0 7.347a2.346 2.346 0 01-4.328-1.81c.774-1.843 3.05-3.316 4.205-3.974.343 1.302.881 3.947.106 5.794l.017-.01z"/></mask><path d="M19.193 1.064c-.184.08-4.311 2.057-5.56 5.03a3.672 3.672 0 004.78 4.867 3.675 3.675 0 001.992-2.022c1.25-2.973-.233-7.308-.297-7.491a.667.667 0 00-.915-.384zm0 7.347a2.346 2.346 0 01-4.328-1.81c.774-1.843 3.05-3.316 4.205-3.974.343 1.302.881 3.947.106 5.794l.017-.01z" fill="#C94F6E"/><path d="M19.193 1.064c-.184.08-4.311 2.057-5.56 5.03a3.672 3.672 0 004.78 4.867 3.675 3.675 0 001.992-2.022c1.25-2.973-.233-7.308-.297-7.491a.667.667 0 00-.915-.384h0zm0 7.347a2.346 2.346 0 01-4.328-1.81c.774-1.843 3.05-3.316 4.205-3.974.343 1.302.881 3.947.106 5.794l.017-.01z" stroke="#C94F6E" stroke-width=".6" mask="url(#a)"/><mask id="b" maskUnits="userSpaceOnUse" x="20.995" y="1.917" width="14" height="14" fill="#000"><path fill="#fff" d="M20.995 1.917h14v14h-14z"/><path d="M31.366 5.505c-.15-.153-.42-.42-1.98-.25-1.206-2.338-1.403-2.338-1.807-2.338a.715.715 0 00-.61.438c-.876 2.187-2.783 3.179-3.868 4.261-1.563 1.563-1.456 4.212.237 5.905 1.693 1.693 4.341 1.803 5.904.237.972-.972 2.078-3.006 4.262-3.867a.705.705 0 00.434-.608c.02-.414.027-.598-2.318-1.807.18-1.543-.11-1.824-.254-1.97zm.591 3.674c-1.856 1.125-2.919 2.895-3.673 3.637-1.042 1.042-2.842.935-4.008-.237-1.166-1.172-1.28-2.972-.237-4.008.825-.821 2.525-1.823 3.64-3.673.228.41.495.911.725 1.366.129.255.405.4.688.36.412-.059.827-.092 1.242-.1-.006.41-.042.82-.106 1.226-.045.285.1.567.357.698.447.244.959.51 1.37.741l.002-.01z"/></mask><path d="M31.366 5.505c-.15-.153-.42-.42-1.98-.25-1.206-2.338-1.403-2.338-1.807-2.338a.715.715 0 00-.61.438c-.876 2.187-2.783 3.179-3.868 4.261-1.563 1.563-1.456 4.212.237 5.905 1.693 1.693 4.341 1.803 5.904.237.972-.972 2.078-3.006 4.262-3.867a.705.705 0 00.434-.608c.02-.414.027-.598-2.318-1.807.18-1.543-.11-1.824-.254-1.97zm.591 3.674c-1.856 1.125-2.919 2.895-3.673 3.637-1.042 1.042-2.842.935-4.008-.237-1.166-1.172-1.28-2.972-.237-4.008.825-.821 2.525-1.823 3.64-3.673.228.41.495.911.725 1.366.129.255.405.4.688.36.412-.059.827-.092 1.242-.1-.006.41-.042.82-.106 1.226-.045.285.1.567.357.698.447.244.959.51 1.37.741l.002-.01z" fill="#C94F6E"/><path d="M31.366 5.505c-.15-.153-.42-.42-1.98-.25-1.206-2.338-1.403-2.338-1.807-2.338a.715.715 0 00-.61.438c-.876 2.187-2.783 3.179-3.868 4.261-1.563 1.563-1.456 4.212.237 5.905 1.693 1.693 4.341 1.803 5.904.237.972-.972 2.078-3.006 4.262-3.867a.705.705 0 00.434-.608c.02-.414.027-.598-2.318-1.807.18-1.543-.11-1.824-.254-1.97h0zm.591 3.674c-1.856 1.125-2.919 2.895-3.673 3.637-1.042 1.042-2.842.935-4.008-.237-1.166-1.172-1.28-2.972-.237-4.008.825-.821 2.525-1.823 3.64-3.673.228.41.495.911.725 1.366h0c.129.255.405.4.688.36.412-.059.827-.092 1.242-.1-.006.41-.042.82-.106 1.226-.045.285.1.567.357.698.447.244.959.51 1.37.741l.002-.01z" stroke="#C94F6E" stroke-width=".6" mask="url(#b)"/><mask id="c" maskUnits="userSpaceOnUse" x="30.156" y="21.827" width="9" height="7" fill="#000"><path fill="#fff" d="M30.156 21.827h9v7h-9z"/><path d="M33.01 22.965a2.647 2.647 0 001.362 5.113c2.134-.574 3.84-3.169 3.91-3.279a.667.667 0 00-.256-.959c-.108-.06-2.883-1.449-5.017-.875zm1.028 3.821a1.317 1.317 0 01-1.61-.925c-.21-.785.248-1.7 1.71-1.7a7.68 7.68 0 012.572.555c-.632.764-1.65 1.796-2.672 2.07z"/></mask><path d="M33.01 22.965a2.647 2.647 0 001.362 5.113c2.134-.574 3.84-3.169 3.91-3.279a.667.667 0 00-.256-.959c-.108-.06-2.883-1.449-5.017-.875zm1.028 3.821a1.317 1.317 0 01-1.61-.925c-.21-.785.248-1.7 1.71-1.7a7.68 7.68 0 012.572.555c-.632.764-1.65 1.796-2.672 2.07z" fill="#C94F6E"/><path d="M33.01 22.965a2.647 2.647 0 001.362 5.113c2.134-.574 3.84-3.169 3.91-3.279a.667.667 0 00-.256-.959c-.108-.06-2.883-1.449-5.017-.875h0zm1.028 3.821a1.317 1.317 0 01-1.61-.925c-.21-.785.248-1.7 1.71-1.7v0a7.68 7.68 0 012.572.555c-.632.764-1.65 1.796-2.672 2.07h0z" stroke="#C94F6E" stroke-width=".6" mask="url(#c)"/><mask id="d" maskUnits="userSpaceOnUse" x="0" y="7.269" width="36" height="35" fill="#000"><path fill="#fff" d="M0 7.269h36v35H0z"/><path d="M14.668 39.664a.668.668 0 000 1.336c2.428 0 3.674-2.511 2.602-4.639a4.676 4.676 0 00-2.77-2.291l16.054-4.786a.667.667 0 00.258-1.139l-3.73-3.34h-.001c.477-.048.94-.194 1.36-.427.951-.52 2.594-1.97 3.453-2.304a32.159 32.159 0 013.233-.698.668.668 0 00.227-1.23l-3.273-1.963.724-3.747a.668.668 0 00-1.072-.648 31.081 31.081 0 01-2.594 1.903c-.839.428-3.06.699-4.102 1.063a3.929 3.929 0 00-2.528 3.94l-2.598-2.337c1.299-2.244.638-5.805.607-5.958a.668.668 0 00-.841-.505c-.134.044-3.033.942-4.585 2.769a49.57 49.57 0 01-3.133-5.972.668.668 0 00-1.26.047l-5.95 18.82-3.157 2.207a.685.685 0 00-.283.5l-.298 4.169c-.036.591 0 .965.358 1.162l5.554 2.422c.815.334 1.215.407 1.5.15.09-.08 1.84-1.83 1.84-1.83a1.85 1.85 0 002.554 1.122.67.67 0 10-.64-1.176c-.265.144-1.053-.18-.462-1.309.912 0 3.447.154 4.358 1.98.598 1.203.057 2.71-1.405 2.71zM25.482 18.01c1.002-.334 3.186-.585 4.261-1.132.492-.293.965-.616 1.416-.969l-.46 2.475a.667.667 0 00.31.698l2.17 1.302c-.594.11-1.18.255-1.756.438-1.106.434-2.719 1.894-3.607 2.381-1.36.749-3.08-.056-3.704-1.463-.624-1.406-.093-3.216 1.37-3.73zm-6.17-4.562c.101 1.002.165 2.749-.427 4.008l-1.099-1.002a.668.668 0 00-.948.053l-.367.418-.645-1.03c.778-1.215 2.495-2.05 3.487-2.447zm-7.87-2.672a73.303 73.303 0 004.107 7.18L6.462 28.212l-.39-.41 5.37-17.027zm-8.82 19.902l2.604-1.824.334.364-3.086 3.49.147-2.03zm5.173 6.242c-.812-.3-3.073-1.28-5.26-2.261l3.96-4.469 3.901 4.132c-.938.935-2.1 2.1-2.602 2.598zm3.737-3.34l-4.148-4.392L17.403 17.9l11.625 10.443-17.496 5.237z"/></mask><path d="M14.668 39.664a.668.668 0 000 1.336c2.428 0 3.674-2.511 2.602-4.639a4.676 4.676 0 00-2.77-2.291l16.054-4.786a.667.667 0 00.258-1.139l-3.73-3.34h-.001c.477-.048.94-.194 1.36-.427.951-.52 2.594-1.97 3.453-2.304a32.159 32.159 0 013.233-.698.668.668 0 00.227-1.23l-3.273-1.963.724-3.747a.668.668 0 00-1.072-.648 31.081 31.081 0 01-2.594 1.903c-.839.428-3.06.699-4.102 1.063a3.929 3.929 0 00-2.528 3.94l-2.598-2.337c1.299-2.244.638-5.805.607-5.958a.668.668 0 00-.841-.505c-.134.044-3.033.942-4.585 2.769a49.57 49.57 0 01-3.133-5.972.668.668 0 00-1.26.047l-5.95 18.82-3.157 2.207a.685.685 0 00-.283.5l-.298 4.169c-.036.591 0 .965.358 1.162l5.554 2.422c.815.334 1.215.407 1.5.15.09-.08 1.84-1.83 1.84-1.83a1.85 1.85 0 002.554 1.122.67.67 0 10-.64-1.176c-.265.144-1.053-.18-.462-1.309.912 0 3.447.154 4.358 1.98.598 1.203.057 2.71-1.405 2.71zM25.482 18.01c1.002-.334 3.186-.585 4.261-1.132.492-.293.965-.616 1.416-.969l-.46 2.475a.667.667 0 00.31.698l2.17 1.302c-.594.11-1.18.255-1.756.438-1.106.434-2.719 1.894-3.607 2.381-1.36.749-3.08-.056-3.704-1.463-.624-1.406-.093-3.216 1.37-3.73zm-6.17-4.562c.101 1.002.165 2.749-.427 4.008l-1.099-1.002a.668.668 0 00-.948.053l-.367.418-.645-1.03c.778-1.215 2.495-2.05 3.487-2.447zm-7.87-2.672a73.303 73.303 0 004.107 7.18L6.462 28.212l-.39-.41 5.37-17.027zm-8.82 19.902l2.604-1.824.334.364-3.086 3.49.147-2.03zm5.173 6.242c-.812-.3-3.073-1.28-5.26-2.261l3.96-4.469 3.901 4.132c-.938.935-2.1 2.1-2.602 2.598zm3.737-3.34l-4.148-4.392L17.403 17.9l11.625 10.443-17.496 5.237z" fill="#C94F6E"/><path d="M14.668 39.664a.668.668 0 000 1.336c2.428 0 3.674-2.511 2.602-4.639a4.676 4.676 0 00-2.77-2.291l16.054-4.786a.667.667 0 00.258-1.139l-3.73-3.34h-.001c.477-.048.94-.194 1.36-.427.951-.52 2.594-1.97 3.453-2.304a32.159 32.159 0 013.233-.698.668.668 0 00.227-1.23l-3.273-1.963.724-3.747a.668.668 0 00-1.072-.648 31.081 31.081 0 01-2.594 1.903c-.839.428-3.06.699-4.102 1.063a3.929 3.929 0 00-2.528 3.94l-2.598-2.337c1.299-2.244.638-5.805.607-5.958a.668.668 0 00-.841-.505c-.134.044-3.033.942-4.585 2.769a49.57 49.57 0 01-3.133-5.972.668.668 0 00-1.26.047l-5.95 18.82-3.157 2.207a.685.685 0 00-.283.5l-.298 4.169c-.036.591 0 .965.358 1.162l5.554 2.422c.815.334 1.215.407 1.5.15.09-.08 1.84-1.83 1.84-1.83a1.85 1.85 0 002.554 1.122.67.67 0 10-.64-1.176c-.265.144-1.053-.18-.462-1.309.912 0 3.447.154 4.358 1.98.598 1.203.057 2.71-1.405 2.71h0zM25.482 18.01c1.002-.334 3.186-.585 4.261-1.132.492-.293.965-.616 1.416-.969l-.46 2.475a.667.667 0 00.31.698l2.17 1.302c-.594.11-1.18.255-1.756.438-1.106.434-2.719 1.894-3.607 2.381-1.36.749-3.08-.056-3.704-1.463-.624-1.406-.093-3.216 1.37-3.73h0zm-6.17-4.562c.101 1.002.165 2.749-.427 4.008l-1.099-1.002h0a.668.668 0 00-.948.053l-.367.418-.645-1.03c.778-1.215 2.495-2.05 3.487-2.447h0zm-7.87-2.672a73.303 73.303 0 004.107 7.18L6.462 28.212l-.39-.41 5.37-17.027zm-8.82 19.902l2.604-1.824.334.364-3.086 3.49.147-2.03zm5.173 6.242c-.812-.3-3.073-1.28-5.26-2.261l3.96-4.469 3.901 4.132c-.938.935-2.1 2.1-2.602 2.598h0zm3.737-3.34l-4.148-4.392L17.403 17.9l11.625 10.443-17.496 5.237z" stroke="#C94F6E" stroke-width=".6" mask="url(#d)"/></svg>