<svg width="38" height="40" fill="none" xmlns="http://www.w3.org/2000/svg"><path d="M.518 29.478a1.282 1.282 0 001.41 2.136l10.253-6.75c.219-.13.472-.19.726-.171h.085l9.57.256a.726.726 0 01.684.684.726.726 0 01-.641.769l-4.486.512a2.136 2.136 0 00-1.666 3.076l.683 1.367a2.138 2.138 0 001.838 1.197l6.322.256c.272.01.54-.065.77-.214l7.262-5.084a.768.768 0 011.068.214h.043a.726.726 0 01-.172.983l-9.185 6.579a1.195 1.195 0 01-.897.213l-13.072-1.965a1.283 1.283 0 00-.983.256L5.004 37.68a1.295 1.295 0 001.58 2.05l4.7-3.545 12.56 1.88a3.76 3.76 0 002.777-.684l9.142-6.537a3.29 3.29 0 00.77-4.528h-.044a3.332 3.332 0 00-4.614-.812l-6.963 4.7-5.64-.214-.256-.598 3.888-.427a3.29 3.29 0 002.905-3.418 3.29 3.29 0 00-3.204-3.118l-9.527-.3c-.8-.05-1.594.16-2.264.599L.518 29.478zm23.027-8.972a1.966 1.966 0 001.495 0c8.459-3.46 11.321-9.869 10.424-14.653-.727-3.546-3.29-5.81-6.537-5.81a8.844 8.844 0 00-4.656 1.495A8.798 8.798 0 0019.57 0c-3.29 0-5.852 2.307-6.536 5.853-.94 4.87 1.965 11.278 10.51 14.653zm-7.99-14.183c.428-2.307 1.966-3.76 4.017-3.76 1.196 0 2.563.513 3.93 1.538a1.282 1.282 0 001.538 0c1.367-.982 2.691-1.495 3.888-1.495 2.008 0 3.546 1.41 4.015 3.716.727 3.717-1.666 8.8-8.672 11.706-7.007-2.862-9.441-7.903-8.715-11.706z" fill="#C94F6E"/></svg>