<svg width="40" height="40" fill="none" xmlns="http://www.w3.org/2000/svg"><path fill-rule="evenodd" clip-rule="evenodd" d="M38.627 17.857a1.172 1.172 0 00-1.657 1.658c.442.442.686 1.03.686 1.657 0 1.27-1.109 2.344-2.422 2.344h-.052l-.001-.016-.002-.022c-.29-3.173-1.81-6.113-4.28-8.28a13.755 13.755 0 00-7.386-3.297l.001-.039.002-.065a4.693 4.693 0 00-4.688-4.688 4.693 4.693 0 00-4.687 4.688v.046l.001.007a12.89 12.89 0 00-2.103.367c-1.562-1.767-3.744-2.764-6.101-2.764-.724 0-1.275.651-1.156 1.365l.888 5.331a12.678 12.678 0 00-2.778 5.078A3.522 3.522 0 000 24.687v2.344c0 2.003 1.663 3.512 3.447 3.516h.381a12.957 12.957 0 003.281 4.085v4.196c0 .647.525 1.172 1.172 1.172h4.688c.647 0 1.172-.525 1.172-1.172v-1.25h7.03v1.25c0 .647.526 1.172 1.173 1.172h4.687c.647 0 1.172-.525 1.172-1.172v-2.655a12.892 12.892 0 006.976-10.314h.055c1.25 0 2.437-.483 3.341-1.36A4.607 4.607 0 0040 21.172c0-1.252-.488-2.43-1.373-3.315zM18.828 9.453a2.346 2.346 0 012.344 2.344 2.346 2.346 0 01-2.344 2.344 2.346 2.346 0 01-2.344-2.344 2.346 2.346 0 012.344-2.344zm7.031 25.978c0-.466.276-.887.703-1.074a10.564 10.564 0 006.283-10.666c-.463-5.068-4.696-9.04-9.986-9.505a4.689 4.689 0 01-4.03 2.298 4.689 4.689 0 01-4.05-2.329c-.953.048-1.89.22-2.792.52a1.172 1.172 0 01-1.318-.425c-.84-1.157-2.006-1.948-3.32-2.28l.729 4.366c.061.37-.058.748-.322 1.016a10.356 10.356 0 00-2.78 5.225 1.17 1.17 0 01-1.148.938h-.313c-.646 0-1.171.526-1.171 1.172v2.344a1.173 1.173 0 001.206 1.172l1.02.002c.466 0 .887.276 1.073.702a10.598 10.598 0 003.342 4.22c.295.22.468.568.468.936v3.593h2.344v-3.828a1.172 1.172 0 012.344 0v1.406h7.03v-1.172a1.172 1.172 0 012.345 0v3.594h2.343v-2.225z" fill="#C94F6E"/><path d="M8.281 23.516a1.172 1.172 0 100-2.344 1.172 1.172 0 000 2.344zm14.063-4.688h-7.032a1.172 1.172 0 000 2.344h7.032a1.172 1.172 0 000-2.344z" fill="#C94F6E"/><path fill-rule="evenodd" clip-rule="evenodd" d="M23.516 4.688A4.693 4.693 0 0128.203 0a4.693 4.693 0 014.688 4.688 4.693 4.693 0 01-4.688 4.687 4.693 4.693 0 01-4.687-4.688zm2.343 0a2.346 2.346 0 002.344 2.343 2.346 2.346 0 002.344-2.343 2.346 2.346 0 00-2.344-2.344 2.346 2.346 0 00-2.344 2.344z" fill="#C94F6E"/></svg>